<svg width="25" height="25" viewBox="0 0 25 25" fill="none" xmlns="http://www.w3.org/2000/svg">
<path d="M17.4379 0.718705C17.3765 0.721717 17.3152 0.727615 17.2543 0.736379L4.72835 2.51753C4.25036 2.58864 3.82003 2.8463 3.53164 3.23408C3.24324 3.62185 3.1203 4.10812 3.18973 4.58637L5.70337 22.7091C5.73478 22.9456 5.81259 23.1737 5.93232 23.3801C6.05206 23.5865 6.21138 23.7672 6.40113 23.9119C6.59088 24.0566 6.80733 24.1624 7.03807 24.2232C7.2688 24.284 7.50928 24.2987 7.7457 24.2664L20.2717 22.4833C20.7495 22.4121 21.1796 22.1546 21.468 21.7671C21.7564 21.3795 21.8794 20.8935 21.8103 20.4154L19.2966 2.29464C19.2375 1.84813 19.0145 1.43952 18.6711 1.14813C18.3276 0.856743 17.8881 0.703349 17.4379 0.717723M17.5626 1.63284C17.7713 1.64746 17.9685 1.73357 18.1211 1.87666C18.2737 2.01974 18.3722 2.21106 18.4002 2.41836L20.9138 20.5421C20.9484 20.7809 20.8871 21.0237 20.7432 21.2174C20.5993 21.4112 20.3846 21.5401 20.146 21.576L7.62002 23.3581C7.50175 23.3747 7.38138 23.3676 7.26585 23.3374C7.15033 23.3071 7.04195 23.2543 6.94698 23.1819C6.85202 23.1094 6.77236 23.0189 6.7126 22.9155C6.65285 22.8121 6.61418 22.6979 6.59885 22.5795L4.08522 4.45872C4.05063 4.21975 4.1121 3.97681 4.25618 3.78304C4.40027 3.58928 4.61522 3.46047 4.85404 3.42479L17.38 1.64168C17.4405 1.63339 17.5016 1.63076 17.5626 1.63383M13.9846 6.89086L10.5038 8.10251C10.4758 8.11245 10.4518 8.13146 10.4358 8.15654C10.4198 8.18162 10.4127 8.21134 10.4155 8.24096L10.7277 12.0409C10.7356 12.1292 10.8259 12.1872 10.9084 12.1548L11.8726 11.7836C11.8935 11.7757 11.916 11.7731 11.9382 11.7762C11.9604 11.7792 11.9814 11.7878 11.9994 11.8011C12.0174 11.8144 12.0317 11.8319 12.0411 11.8522C12.0505 11.8725 12.0547 11.8948 12.0532 11.9172L11.9649 13.4293C11.959 13.5304 12.0631 13.6021 12.1544 13.5589L12.7435 13.283C12.8348 13.2398 12.9379 13.3124 12.932 13.4155L12.7877 15.7897C12.7779 15.937 12.9792 15.989 13.041 15.8545L13.0803 15.7642L15.1668 9.45654C15.2012 9.35148 15.102 9.25034 14.9979 9.28667L13.9984 9.63131C13.9051 9.66372 13.8108 9.5832 13.8246 9.48403L14.1614 7.03913C14.1643 7.01947 14.1628 6.9994 14.1571 6.98038C14.1513 6.96136 14.1414 6.94384 14.1281 6.9291C14.1147 6.91436 14.0983 6.90276 14.08 6.89513C14.0616 6.8875 14.0418 6.88403 14.0219 6.88497C14.0062 6.88497 13.9797 6.89381 13.9846 6.89086ZM16.7555 7.67539C16.7288 7.67639 16.7024 7.68102 16.677 7.68914L14.4638 8.42555L14.3892 8.97541L14.8359 8.82224C14.9461 8.78436 15.0647 8.77806 15.1783 8.80404C15.2918 8.83003 15.3959 8.88728 15.4786 8.9693C15.5614 9.05133 15.6195 9.15487 15.6465 9.26821C15.6735 9.38156 15.6682 9.50019 15.6313 9.6107L13.5398 15.9429L13.4878 16.0578C13.4263 16.1909 13.3202 16.2983 13.1879 16.3614C13.0555 16.4245 12.9053 16.4394 12.7632 16.4034C12.6233 16.3659 12.5006 16.2812 12.416 16.1636C12.3314 16.0461 12.2899 15.9029 12.2987 15.7583L12.4067 13.983C12.3087 14.0378 12.1977 14.0652 12.0855 14.0624C11.9732 14.0595 11.8638 14.0266 11.7687 13.967C11.6735 13.9073 11.5961 13.8232 11.5446 13.7235C11.4931 13.6237 11.4694 13.5119 11.4759 13.3998L11.5319 12.4415L11.0861 12.6133C10.9954 12.6475 10.8979 12.6602 10.8015 12.6504C10.705 12.6406 10.6121 12.6087 10.5301 12.5571C10.448 12.5054 10.379 12.4355 10.3285 12.3528C10.2779 12.27 10.2472 12.1767 10.2387 12.0801L9.99914 9.16197L6.99259 9.0412C6.76676 9.03138 6.63518 9.29158 6.77363 9.47323L12.9497 17.5542C12.9784 17.592 13.0167 17.6214 13.0607 17.6393C13.1046 17.6572 13.1526 17.663 13.1995 17.6561C13.2464 17.6492 13.2907 17.6298 13.3276 17.5999C13.3645 17.5701 13.3927 17.5309 13.4092 17.4864L17.0108 8.04164C17.0265 8.00051 17.0319 7.95618 17.0265 7.91249C17.0212 7.86881 17.0052 7.82709 16.98 7.79099C16.9549 7.75488 16.9213 7.72547 16.8821 7.70532C16.843 7.68518 16.7995 7.6749 16.7555 7.67539Z" fill="black"/>
</svg>
