<svg width="24" height="25" viewBox="0 0 24 25" fill="none" xmlns="http://www.w3.org/2000/svg">
<path d="M8.31818 21.0548C7.13218 19.9848 6.78618 17.7388 7.28018 16.1108C8.13618 17.1368 9.32318 17.4628 10.5522 17.6458C12.4492 17.9288 14.3122 17.8228 16.0742 16.9678C16.2762 16.8698 16.4622 16.7388 16.6822 16.6078C16.8482 17.0808 16.8912 17.5578 16.8332 18.0448C16.6932 19.2298 16.0952 20.1448 15.1452 20.8388C14.7652 21.1158 14.3632 21.3638 13.9702 21.6258C12.7652 22.4298 12.4392 23.3728 12.8922 24.7448L12.9362 24.8928C12.3596 24.6453 11.8698 24.2317 11.5292 23.7048C11.1743 23.166 10.9852 22.535 10.9852 21.8898C10.9812 21.5698 10.9812 21.2478 10.9372 20.9318C10.8312 20.1628 10.4652 19.8188 9.77618 19.7988C9.06918 19.7788 8.50918 20.2098 8.36118 20.8888C8.34918 20.9418 8.33318 20.9928 8.31618 21.0538L8.31818 21.0548ZM2.35718 16.6098C2.35718 16.6098 5.59718 15.0348 8.84718 15.0348L11.2982 7.46982C11.3902 7.10382 11.6582 6.85582 11.9602 6.85582C12.2622 6.85582 12.5302 7.10382 12.6222 7.46982L15.0722 15.0348C18.9222 15.0348 21.5632 16.6098 21.5632 16.6098L16.0482 1.61982C15.8902 1.17782 15.6232 0.892822 15.2632 0.892822H8.65718C8.29718 0.892822 8.04218 1.17782 7.87318 1.61982L2.35718 16.6098Z" fill="black"/>
</svg>
