<svg width="24" height="25" viewBox="0 0 24 25" fill="none" xmlns="http://www.w3.org/2000/svg">
<path fill-rule="evenodd" clip-rule="evenodd" d="M3.32474 7.86328H6.27041C6.54927 7.37991 7.02503 7.02446 7.58811 6.90651C8.19431 5.69649 8.96989 4.43027 9.90554 3.0708C7.09467 3.6686 4.71944 5.44676 3.32474 7.86328ZM11.9971 3.54997C10.9537 5.01959 10.1242 6.33106 9.49646 7.54119C9.58373 7.64031 9.66131 7.74817 9.72771 7.86328H14.2685C14.3346 7.74871 14.4117 7.64133 14.4985 7.5426C13.8707 6.33208 13.0409 5.02016 11.9971 3.54997ZM17.7258 7.86328C17.4465 7.37928 16.9699 7.02353 16.4059 6.90604C15.7997 5.69617 15.0242 4.4301 14.0887 3.0708C16.8995 3.6686 19.2748 5.44676 20.6695 7.86328H17.7258ZM15.7676 10.8396C15.1253 10.766 14.5757 10.3872 14.2675 9.85185H9.72868C9.42018 10.3878 8.86975 10.7668 8.2265 10.8399C7.91701 12.1884 7.91307 13.476 8.21466 14.823C8.88322 14.8949 9.45284 15.2972 9.757 15.8633H14.2392C14.543 15.2977 15.1118 14.8957 15.7795 14.8233C16.0811 13.4761 16.0772 12.1884 15.7676 10.8396ZM17.7551 15.8633C17.7158 15.7902 17.6721 15.7199 17.6244 15.6527C18.1169 13.7497 18.1137 11.9292 17.6147 10.0251C17.6549 9.96945 17.6923 9.91163 17.7267 9.85185H21.54C22.1157 11.7455 22.1157 13.9697 21.54 15.8633H17.7551ZM14.5151 18.1403C14.4347 18.0511 14.3623 17.9546 14.2988 17.8518H9.69732C9.63359 17.9551 9.5607 18.0521 9.47979 18.1417C10.1095 19.3608 10.9445 20.6825 11.9971 22.1652C13.0501 20.6819 13.8854 19.3598 14.5151 18.1403ZM9.90554 22.6443C8.95516 21.2635 8.16993 19.9788 7.55961 18.7515C7.02884 18.6322 6.57816 18.3012 6.3008 17.8518H3.32474C4.71944 20.2684 7.09467 22.0465 9.90554 22.6443ZM2.45092 15.8633H6.24112C6.27997 15.791 6.32315 15.7213 6.37032 15.6547C5.87709 13.7504 5.88033 11.9286 6.38004 10.0231C6.34037 9.96806 6.30344 9.91091 6.26944 9.85185H2.45092C1.84194 11.7964 1.84194 13.9188 2.45092 15.8633ZM14.0887 22.6443C15.0389 21.2636 15.8241 19.9791 16.4343 18.752C16.9661 18.6331 17.4176 18.3018 17.6954 17.8518H20.6695C19.2748 20.2684 16.8995 22.0465 14.0887 22.6443ZM0.820816 8.49587C2.56492 4.02986 6.90999 0.863281 11.9971 0.863281C17.0842 0.863281 21.4293 4.02986 23.1734 8.49587C24.2227 11.1827 24.2227 14.5324 23.1734 17.2193C21.4293 21.6853 17.0842 24.8518 11.9971 24.8518C6.90999 24.8518 2.56492 21.6853 0.820816 17.2193C-0.266118 14.436 -0.266118 11.2791 0.820816 8.49587ZM15.999 8.86407C15.9992 8.86401 16 8.86358 16.0011 8.86244C16.0021 8.8615 16.0026 8.86074 16.0027 8.86045L16.0027 8.86019L16.0028 8.8584L16.0027 8.85662L16.0028 8.85648C16.0028 8.85649 16.0028 8.85648 16.0028 8.85647L16.0027 8.85629L16.0027 8.85633L16.0028 8.85648L16.0028 8.85647C16.0027 8.85636 16.0023 8.85549 16.0011 8.85436C16.0002 8.85342 15.9994 8.85296 15.9992 8.8528L15.9992 8.8528L15.9992 8.85278L15.999 8.85273C15.999 8.85273 15.9991 8.85275 15.9992 8.8528L15.9989 8.85276L15.9971 8.85269L15.9953 8.85276L15.9952 8.85273C15.9952 8.85273 15.9952 8.85273 15.9952 8.85273L15.995 8.8528L15.995 8.85278L15.9952 8.85273M8.001 16.8115C8.0011 16.8114 8.00146 16.8112 8.00199 16.8108C8.00231 16.8106 8.00269 16.8103 8.0031 16.8098C8.00392 16.809 8.00437 16.8084 8.00459 16.808C8.0047 16.8078 8.00474 16.8077 8.00474 16.8077L8.00468 16.8079L8.00466 16.8079L8.0047 16.8076L8.00478 16.8058L8.0047 16.804L8.00474 16.8039C8.00474 16.8039 8.00474 16.8039 8.00473 16.8039L8.00466 16.8037L8.00468 16.8037L8.00474 16.8039L8.00473 16.8039C8.00467 16.8038 8.00424 16.8029 8.0031 16.8018C8.00216 16.8008 8.0014 16.8004 8.00111 16.8002L8.00117 16.8002L8.00113 16.8002L8.00105 16.8002C8.00106 16.8002 8.00108 16.8002 8.00111 16.8002L8.00085 16.8002L7.99906 16.8001L7.99728 16.8002L7.99714 16.8001C7.99715 16.8001 7.99714 16.8001 7.99712 16.8001L7.99695 16.8002L7.99699 16.8002L7.99714 16.8001M15.999 16.8115C15.9992 16.8114 16 16.811 16.0011 16.8098C16.0021 16.8089 16.0026 16.8081 16.0027 16.8079L16.0027 16.8076L16.0028 16.8058L16.0027 16.804L16.0028 16.8039C16.0028 16.8039 16.0028 16.8039 16.0028 16.8039L16.0027 16.8037L16.0027 16.8037L16.0028 16.8039L16.0028 16.8039C16.0027 16.8038 16.0023 16.8029 16.0011 16.8018C16.0002 16.8008 15.9994 16.8004 15.9992 16.8002L15.9992 16.8002L15.9992 16.8002L15.999 16.8001C15.999 16.8001 15.9991 16.8002 15.9992 16.8002L15.9989 16.8002L15.9971 16.8001L15.9953 16.8002L15.9952 16.8001C15.9952 16.8001 15.9952 16.8001 15.9952 16.8001L15.995 16.8002L15.995 16.8002L15.9952 16.8001" fill="black"/>
</svg>
