<svg width="24" height="24" viewBox="0 0 24 24" fill="none" xmlns="http://www.w3.org/2000/svg">
<path fill-rule="evenodd" clip-rule="evenodd" d="M18.9334 0.33773C18.5519 -0.0831113 17.9014 -0.114953 17.4806 0.266609L14.052 3.37518C13.8282 3.57808 13.7049 3.86911 13.7149 4.17103C13.7248 4.47294 13.867 4.75523 14.1036 4.94297L17.5322 7.66297C17.9772 8.01603 18.6242 7.94147 18.9772 7.49644C19.3303 7.05142 19.2557 6.40444 18.8107 6.05139L17.6656 5.14293L20.2286 5.14293C21.1753 5.14293 21.9429 5.91045 21.9429 6.85722L21.9429 9.60007C21.9429 10.1681 22.4034 10.6286 22.9714 10.6286C23.5395 10.6286 24 10.1681 24 9.60007L24 6.85722C24 4.77432 22.3115 3.08579 20.2286 3.08579L17.4338 3.08579L18.8623 1.79061C19.2832 1.40905 19.315 0.758571 18.9334 0.33773ZM5.06655 23.6624C5.44811 24.0832 6.09859 24.1151 6.51943 23.7335L9.948 20.6249C10.1718 20.422 10.2951 20.131 10.2851 19.8291C10.2752 19.5272 10.133 19.2449 9.89638 19.0571L6.46781 16.3371C6.02278 15.9841 5.37581 16.0586 5.02276 16.5037C4.6697 16.9487 4.74426 17.5957 5.18929 17.9487L6.33427 18.8571L3.77143 18.8571C2.82465 18.8571 2.05714 18.0896 2.05714 17.1428V14.3999C2.05714 13.8319 1.59663 13.3714 1.02857 13.3714C0.460506 13.3714 0 13.8319 0 14.3999V17.1428C0 19.2257 1.68853 20.9142 3.77143 20.9142L6.56629 20.9142L5.13767 22.2095C4.71683 22.5911 4.68499 23.2415 5.06655 23.6624ZM11.6571 15.4286C11.6571 13.3457 13.3457 11.6572 15.4286 11.6572H20.2286C22.3115 11.6572 24 13.3457 24 15.4286V20.2286C24 22.3115 22.3115 24 20.2286 24H15.4286C13.3457 24 11.6571 22.3115 11.6571 20.2286V15.4286ZM15.4286 13.7143C14.4818 13.7143 13.7143 14.4818 13.7143 15.4286V20.2286C13.7143 21.1754 14.4818 21.9429 15.4286 21.9429H20.2286C21.1753 21.9429 21.9428 21.1754 21.9428 20.2286V15.4286C21.9428 14.4818 21.1753 13.7143 20.2286 13.7143H15.4286ZM3.5019 2.0781C3.58912 2.06439 3.67908 2.05718 3.77144 2.05718H4.25144C4.8195 2.05718 5.28001 1.59668 5.28001 1.02861C5.28001 0.460549 4.8195 4.16561e-05 4.25144 4.16561e-05H3.77144C3.57175 4.16561e-05 3.37501 0.0156516 3.18253 0.0459005C2.62136 0.134092 2.23793 0.660509 2.32612 1.22169C2.41431 1.78286 2.94073 2.16629 3.5019 2.0781ZM8.09144 4.16561e-05C7.52337 4.16561e-05 7.06286 0.460549 7.06286 1.02861C7.06286 1.59668 7.52337 2.05718 8.09144 2.05718H8.57144C8.66379 2.05718 8.75376 2.06439 8.84097 2.0781C9.40215 2.16629 9.92857 1.78286 10.0168 1.22168C10.1049 0.660508 9.72152 0.134091 9.16034 0.0459002C8.96786 0.0156515 8.77112 4.16561e-05 8.57144 4.16561e-05H8.09144ZM12.297 3.18256C12.2088 2.62139 11.6824 2.23796 11.1212 2.32615C10.56 2.41434 10.1766 2.94076 10.2648 3.50193C10.2785 3.58915 10.2857 3.67911 10.2857 3.77147V4.25147C10.2857 4.81953 10.7462 5.28004 11.3143 5.28004C11.8824 5.28004 12.3429 4.81953 12.3429 4.25147V3.77147C12.3429 3.57179 12.3273 3.37504 12.297 3.18256ZM2.07807 3.50194C2.16626 2.94076 1.78283 2.41434 1.22165 2.32615C0.660477 2.23796 0.13406 2.62139 0.0458692 3.18257C0.0156205 3.37505 1.06096e-05 3.57179 1.06096e-05 3.77147V4.25147C1.06096e-05 4.81954 0.460518 5.28004 1.02858 5.28004C1.59665 5.28004 2.05715 4.81954 2.05715 4.25147V3.77147C2.05715 3.67912 2.06436 3.58915 2.07807 3.50194ZM12.3429 8.09147C12.3429 7.5234 11.8824 7.0629 11.3143 7.0629C10.7462 7.0629 10.2857 7.5234 10.2857 8.09147V8.57147C10.2857 8.66382 10.2785 8.75379 10.2648 8.841C10.1766 9.40218 10.56 9.9286 11.1212 10.0168C11.6824 10.105 12.2088 9.72155 12.297 9.16037C12.3273 8.96789 12.3429 8.77115 12.3429 8.57147V8.09147ZM2.05715 8.09147C2.05715 7.52341 1.59665 7.0629 1.02858 7.0629C0.460518 7.0629 1.06096e-05 7.52341 1.06096e-05 8.09147V8.57147C1.06096e-05 8.77115 0.0156206 8.9679 0.0458694 9.16037C0.134061 9.72155 0.660478 10.105 1.22165 10.0168C1.78283 9.9286 2.16626 9.40218 2.07807 8.84101C2.06436 8.75379 2.05715 8.66382 2.05715 8.57147V8.09147ZM3.50191 10.2648C2.94073 10.1766 2.41431 10.5601 2.32612 11.1213C2.23793 11.6824 2.62136 12.2088 3.18254 12.297C3.37501 12.3273 3.57176 12.3429 3.77144 12.3429H4.25144C4.81951 12.3429 5.28001 11.8824 5.28001 11.3143C5.28001 10.7463 4.81951 10.2858 4.25144 10.2858H3.77144C3.67909 10.2858 3.58912 10.2785 3.50191 10.2648ZM9.16034 12.297C9.72152 12.2088 10.1049 11.6824 10.0168 11.1213C9.92857 10.5601 9.40215 10.1766 8.84097 10.2648C8.75376 10.2785 8.66379 10.2858 8.57144 10.2858H8.09144C7.52337 10.2858 7.06287 10.7463 7.06287 11.3143C7.06287 11.8824 7.52337 12.3429 8.09144 12.3429H8.57144C8.77112 12.3429 8.96786 12.3273 9.16034 12.297Z" fill="black"/>
</svg>
