<svg xmlns="http://www.w3.org/2000/svg" width="24" height="24" fill="currentColor" viewBox="0 0 24 24">
  <path fill-rule="evenodd" d="M17.95 20.78a.973.973 0 1 0 .423 1.9 4.7 4.7 0 0 0 3.68-4.589v-3.11c0-.733.277-1.44.775-1.98l.914-.99a.973.973 0 0 0 .063-1.243L22.638 9.21a2.92 2.92 0 0 1-.584-1.751V4.612A4.7 4.7 0 0 0 18.373.023a.973.973 0 1 0-.422 1.9 2.755 2.755 0 0 1 2.157 2.689V7.46c0 1.052.341 2.076.973 2.919l.681.908-.364.395a4.865 4.865 0 0 0-1.29 3.3v3.11a2.754 2.754 0 0 1-2.157 2.688ZM6.05 1.923a.973.973 0 0 0-.422-1.9 4.7 4.7 0 0 0-3.681 4.59v3.109c0 .734-.276 1.44-.774 1.98l-.914.99a.973.973 0 0 0-.063 1.243l1.167 1.557a2.92 2.92 0 0 1 .584 1.752v2.847a4.7 4.7 0 0 0 3.68 4.589.973.973 0 0 0 .423-1.9 2.755 2.755 0 0 1-2.157-2.689v-2.847a4.865 4.865 0 0 0-.973-2.92l-.681-.908.364-.394a4.865 4.865 0 0 0 1.29-3.3v-3.11c0-1.291.897-2.409 2.157-2.689Zm8.563 3.328c-1.892-.709-3.91.69-3.91 2.71v1.445h-.648a.973.973 0 1 0 0 1.946h.649v6.162a.973.973 0 0 0 1.946 0v-6.162h1.297a.973.973 0 0 0 0-1.946H12.65V7.96c0-.662.66-1.12 1.28-.887a.973.973 0 0 0 .683-1.823Z" clip-rule="evenodd"/>
</svg>
