<svg xmlns="http://www.w3.org/2000/svg" width="26" height="25" fill="currentColor" viewBox="0 0 26 25">
  <path fill-rule="evenodd" d="M14.106 3.321c.783 1.15 1.437 2.228 1.957 3.263a1.886 1.886 0 1 1-1.96 2.818h-4.23c-.26.437-.692.76-1.203.876a7.818 7.818 0 0 0-.012 3.438 1.886 1.886 0 1 1-1.955 2.92H4.324a8.99 8.99 0 0 0 4.214 3.647.994.994 0 0 1-.77 1.833 10.974 10.974 0 0 1-5.963-6.113 11.015 11.015 0 0 1 0-7.957c1.59-4.074 5.554-6.962 10.194-6.962 3.501 0 6.619 1.645 8.62 4.201a.994.994 0 0 1-1.566 1.226 8.954 8.954 0 0 0-4.947-3.19ZM7.938 6.58c-.531.09-.987.4-1.27.834H4.324a8.967 8.967 0 0 1 5.568-4.092c-.78 1.147-1.434 2.224-1.954 3.258Zm1.895.834a1.892 1.892 0 0 0-.05-.074c.552-1.078 1.287-2.25 2.216-3.566.923 1.307 1.655 2.473 2.208 3.548-.022.03-.044.06-.064.092h-4.31Zm-3.061 6.975a1.892 1.892 0 0 0-.173.259H3.438a9.057 9.057 0 0 1 0-5.245h3.19c.046.077.097.15.153.22a9.848 9.848 0 0 0-.01 4.766Z" clip-rule="evenodd"/>
  <path fill-rule="evenodd" d="M14.738 12.027c1.017-.364 2.45-.734 4.084-.734 1.633 0 3.066.37 4.083.734.511.183.924.366 1.213.506a8.877 8.877 0 0 1 .434.226l.028.015.009.006.003.002h.002l-.505.857.505-.856c.303.178.49.504.49.856v8.79a.994.994 0 0 1-.49.856l-.505-.857.505.857-.002.001-.003.002-.01.005-.027.016-.095.053a12.283 12.283 0 0 1-1.552.68c-1.017.363-2.45.733-4.083.733-1.634 0-3.067-.37-4.084-.734a12.304 12.304 0 0 1-1.213-.507 8.954 8.954 0 0 1-.434-.225l-.028-.016-.009-.005-.003-.002h-.002l.505-.858-.505.857a.996.996 0 0 1-.49-.857V13.64c0-.352.187-.677.49-.856l.505.856-.505-.856.002-.002.003-.001.01-.005.027-.016.095-.053c.08-.043.194-.102.339-.173.289-.14.702-.323 1.213-.506Zm-.19 4.507V18.1c.222.103.513.226.86.35.872.312 2.073.618 3.414.618 1.34 0 2.54-.306 3.414-.618.346-.124.637-.247.859-.35v-1.566a13.49 13.49 0 0 1-.19.07c-1.017.364-2.45.734-4.084.734-1.633 0-3.066-.37-4.083-.734a13.49 13.49 0 0 1-.19-.07Zm8.547-2.285v.133c-.222.102-.513.226-.86.35-.872.312-2.073.617-3.413.617-1.341 0-2.542-.305-3.415-.618a10.507 10.507 0 0 1-.859-.35v-.132c.222-.102.513-.226.86-.35.872-.312 2.073-.617 3.414-.617 1.34 0 2.54.305 3.414.618.346.123.637.247.859.35Zm0 6.004a13.49 13.49 0 0 1-.19.07c-1.017.363-2.45.733-4.084.733-1.633 0-3.066-.37-4.083-.734a13.49 13.49 0 0 1-.19-.07v1.567c.222.102.513.225.86.35.872.311 2.073.617 3.414.617 1.34 0 2.54-.306 3.414-.618.346-.124.637-.247.859-.35v-1.565Z" clip-rule="evenodd"/>
</svg>