<svg xmlns="http://www.w3.org/2000/svg" width="24" height="24" fill="currentColor" viewBox="0 0 24 24">
    <path d="M6.049 1.924a.973.973 0 0 0-.422-1.9 4.7 4.7 0 0 0-3.681 4.589v3.11a2.92 2.92 0 0 1-.774 1.98l-.914.99a.973.973 0 0 0-.063 1.243l1.167 1.557a2.92 2.92 0 0 1 .584 1.751v2.848a4.7 4.7 0 0 0 3.68 4.589.973.973 0 0 0 .423-1.9 2.754 2.754 0 0 1-2.157-2.689v-2.848a4.865 4.865 0 0 0-.973-2.919l-.681-.908.364-.395a4.865 4.865 0 0 0 1.29-3.3v-3.11c0-1.29.897-2.408 2.157-2.688Zm8.563 3.328c-1.892-.709-3.91.69-3.91 2.71v1.445h-.648a.973.973 0 1 0 0 1.945h.649v6.163a.973.973 0 1 0 1.946 0v-6.163h1.297a.973.973 0 0 0 0-1.945h-1.297V7.96a.947.947 0 0 1 1.28-.887.973.973 0 0 0 .683-1.822Zm3.339 15.529a.973.973 0 1 0 .422 1.9 4.7 4.7 0 0 0 3.681-4.589v-3.11c0-.733.276-1.44.774-1.98l.914-.99a.973.973 0 0 0 .063-1.243l-1.167-1.557a2.92 2.92 0 0 1-.584-1.751V4.613a4.7 4.7 0 0 0-3.68-4.589.973.973 0 1 0-.423 1.9 2.755 2.755 0 0 1 2.157 2.689V7.46a4.86 4.86 0 0 0 .973 2.918l.681.909-.364.394a4.865 4.865 0 0 0-1.29 3.3v3.11a2.755 2.755 0 0 1-2.157 2.69Z"/>
</svg>
