<svg width="24" height="25" viewBox="0 0 24 25" fill="none" xmlns="http://www.w3.org/2000/svg">
<path fill-rule="evenodd" clip-rule="evenodd" d="M0.0344238 3.59736C0.0344238 2.66952 0.786586 1.91736 1.71442 1.91736H22.2858C23.2137 1.91736 23.9658 2.66952 23.9658 3.59736V9.08307V15.9402V21.4259C23.9658 22.3538 23.2137 23.1059 22.2858 23.1059H1.71442C0.786585 23.1059 0.0344238 22.3538 0.0344238 21.4259V15.9402V9.08307V3.59736ZM2.02299 3.90593V8.08879H21.9773V3.90593H2.02299ZM21.9773 10.0774H2.02299V14.9459H21.9773V10.0774ZM21.9773 16.9345H2.02299V21.1174H21.9773V16.9345ZM8.87282 12.5116C8.87282 13.0797 8.41231 13.5402 7.84425 13.5402C7.27618 13.5402 6.81568 13.0797 6.81568 12.5116C6.81568 11.9436 7.27618 11.4831 7.84425 11.4831C8.41231 11.4831 8.87282 11.9436 8.87282 12.5116ZM7.84425 20.3965C8.41231 20.3965 8.87282 19.936 8.87282 19.3679C8.87282 18.7999 8.41231 18.3394 7.84425 18.3394C7.27618 18.3394 6.81568 18.7999 6.81568 19.3679C6.81568 19.936 7.27618 20.3965 7.84425 20.3965ZM8.87282 5.65513C8.87282 6.22319 8.41231 6.6837 7.84425 6.6837C7.27618 6.6837 6.81568 6.22319 6.81568 5.65513C6.81568 5.08706 7.27618 4.62656 7.84425 4.62656C8.41231 4.62656 8.87282 5.08706 8.87282 5.65513ZM4.41777 13.5402C4.98584 13.5402 5.44634 13.0797 5.44634 12.5116C5.44634 11.9436 4.98584 11.4831 4.41777 11.4831C3.84971 11.4831 3.3892 11.9436 3.3892 12.5116C3.3892 13.0797 3.84971 13.5402 4.41777 13.5402ZM5.44634 19.3679C5.44634 19.936 4.98584 20.3965 4.41777 20.3965C3.84971 20.3965 3.3892 19.936 3.3892 19.3679C3.3892 18.7999 3.84971 18.3394 4.41777 18.3394C4.98584 18.3394 5.44634 18.7999 5.44634 19.3679ZM4.41777 6.6837C4.98584 6.6837 5.44634 6.22319 5.44634 5.65513C5.44634 5.08706 4.98584 4.62656 4.41777 4.62656C3.84971 4.62656 3.3892 5.08706 3.3892 5.65513C3.3892 6.22319 3.84971 6.6837 4.41777 6.6837Z" fill="black"/>
</svg>
