<svg width="24" height="25" viewBox="0 0 24 25" fill="none" xmlns="http://www.w3.org/2000/svg">
<g clip-path="url(#clip0_661_7991)">
<path fill-rule="evenodd" clip-rule="evenodd" d="M3.77143 0.714111C1.68852 0.714111 0 2.40264 0 4.48554V8.24427V20.9427C0 23.0256 1.68852 24.7141 3.77143 24.7141H20.2286C22.3115 24.7141 24 23.0256 24 20.9427V8.24427V4.48554C24 2.40264 22.3115 0.714111 20.2286 0.714111H17.1427H6.85697H3.77143ZM5.8284 2.77125H3.77143C2.82465 2.77125 2.05714 3.53876 2.05714 4.48554V8.24427V20.9427C2.05714 21.8895 2.82466 22.657 3.77143 22.657H20.2286C21.1753 22.657 21.9429 21.8895 21.9429 20.9427V8.24427V4.48554C21.9429 3.53877 21.1753 2.77125 20.2286 2.77125H18.1713V11.6855C18.1713 12.0809 17.9446 12.4413 17.5883 12.6126C17.2319 12.7839 16.8089 12.7357 16.5001 12.4887L11.9998 8.88846L7.49952 12.4887C7.19077 12.7357 6.76777 12.7839 6.41141 12.6126C6.05504 12.4413 5.8284 12.0809 5.8284 11.6855V2.77125ZM16.1141 2.77125V9.54546L12.6424 6.76807C12.2667 6.46755 11.7329 6.46755 11.3573 6.76807L7.88555 9.54546V2.77125H16.1141Z" fill="black"/>
</g>
<defs>
<clipPath id="clip0_661_7991">
<rect width="24" height="24" fill="white" transform="translate(0 0.714111)"/>
</clipPath>
</defs>
</svg>
