<svg width="24" height="24" viewBox="0 0 24 24" fill="none" xmlns="http://www.w3.org/2000/svg">
<path fill-rule="evenodd" clip-rule="evenodd" d="M18.9338 0.337211C18.5522 -0.08363 17.9017 -0.115472 17.4809 0.266091L14.0523 3.37466C13.8285 3.57756 13.7052 3.86859 13.7152 4.17051C13.7251 4.47242 13.8673 4.75471 14.1039 4.94245L17.5325 7.66245C17.9775 8.01551 18.6245 7.94095 18.9776 7.49592C19.3306 7.0509 19.2561 6.40392 18.811 6.05087L17.666 5.14246L20.2286 5.14246C21.1753 5.14247 21.9429 5.90998 21.9429 6.85675V9.5996C21.9429 10.1677 22.4034 10.6282 22.9714 10.6282C23.5395 10.6282 24 10.1677 24 9.5996L24 6.85675C24 4.77385 22.3115 3.08533 20.2286 3.08532L17.4341 3.08532L18.8626 1.79009C19.2835 1.40853 19.3153 0.758052 18.9338 0.337211ZM5.06624 23.6618C5.4478 24.0826 6.09827 24.1145 6.51911 23.7329L9.94769 20.6244C10.1715 20.4215 10.2948 20.1304 10.2848 19.8285C10.2749 19.5266 10.1327 19.2443 9.89607 19.0566L6.4675 16.3366C6.02247 15.9835 5.3755 16.0581 5.02244 16.5031C4.66939 16.9481 4.74395 17.5951 5.18897 17.9482L6.33402 18.8566L3.77143 18.8566C2.82465 18.8566 2.05714 18.089 2.05714 17.1423L2.05714 14.3994C2.05714 13.8314 1.59663 13.3708 1.02857 13.3708C0.460506 13.3708 0 13.8314 0 14.3994V17.1423C0 19.2252 1.68852 20.9137 3.77142 20.9137L6.56592 20.9137L5.13735 22.2089C4.71651 22.5905 4.68467 23.241 5.06624 23.6618ZM11.657 15.4279C11.657 13.345 13.3455 11.6565 15.4284 11.6565H20.2284C22.3113 11.6565 23.9998 13.345 23.9998 15.4279V20.2279C23.9998 22.3108 22.3113 23.9993 20.2284 23.9993H15.4284C13.3455 23.9993 11.657 22.3108 11.657 20.2279V15.4279ZM15.4284 13.7136C14.4816 13.7136 13.7141 14.4811 13.7141 15.4279V20.2279C13.7141 21.1747 14.4816 21.9422 15.4284 21.9422H20.2284C21.1752 21.9422 21.9427 21.1747 21.9427 20.2279V15.4279C21.9427 14.4811 21.1752 13.7136 20.2284 13.7136H15.4284ZM3.50206 2.07774C3.58927 2.06403 3.67924 2.05682 3.77159 2.05682H4.25159C4.81966 2.05682 5.28017 1.59631 5.28017 1.02825C5.28017 0.460187 4.81966 -0.000320162 4.25159 -0.000320162H3.77159C3.57191 -0.000320162 3.37517 0.0152898 3.18269 0.0455386C2.62151 0.13373 2.23808 0.660147 2.32627 1.22132C2.41447 1.7825 2.94088 2.16593 3.50206 2.07774ZM8.09159 -0.000320162C7.52353 -0.000320162 7.06302 0.460187 7.06302 1.02825C7.06302 1.59631 7.52353 2.05682 8.09159 2.05682H8.57159C8.66395 2.05682 8.75391 2.06403 8.84113 2.07774C9.4023 2.16593 9.92872 1.7825 10.0169 1.22132C10.1051 0.660146 9.72167 0.133729 9.1605 0.0455383C8.96802 0.0152897 8.77128 -0.000320162 8.57159 -0.000320162H8.09159ZM12.2972 3.1822C12.209 2.62103 11.6826 2.2376 11.1214 2.32579C10.5602 2.41398 10.1768 2.94039 10.265 3.50157C10.2787 3.58879 10.2859 3.67875 10.2859 3.77111V4.25111C10.2859 4.81917 10.7464 5.27968 11.3145 5.27968C11.8825 5.27968 12.343 4.81917 12.343 4.25111V3.77111C12.343 3.57142 12.3274 3.37468 12.2972 3.1822ZM2.07823 3.50157C2.16642 2.9404 1.78299 2.41398 1.22181 2.32579C0.660634 2.2376 0.134217 2.62103 0.0460261 3.1822C0.0157775 3.37468 0.000167608 3.57142 0.000167608 3.77111V4.25111C0.000167608 4.81917 0.460675 5.27968 1.02874 5.27968C1.5968 5.27968 2.05731 4.81917 2.05731 4.25111V3.77111C2.05731 3.67875 2.06452 3.58879 2.07823 3.50157ZM12.343 8.09111C12.343 7.52304 11.8825 7.06253 11.3145 7.06253C10.7464 7.06253 10.2859 7.52304 10.2859 8.09111V8.5711C10.2859 8.66346 10.2787 8.75343 10.265 8.84064C10.1768 9.40182 10.5602 9.92823 11.1214 10.0164C11.6826 10.1046 12.209 9.72119 12.2972 9.16001C12.3274 8.96753 12.343 8.77079 12.343 8.5711V8.09111ZM2.05731 8.09111C2.05731 7.52304 1.5968 7.06254 1.02874 7.06254C0.460675 7.06254 0.000167608 7.52304 0.000167608 8.09111V8.57111C0.000167608 8.77079 0.0157776 8.96753 0.0460264 9.16001C0.134218 9.72119 0.660634 10.1046 1.22181 10.0164C1.78299 9.92824 2.16642 9.40182 2.07823 8.84064C2.06452 8.75343 2.05731 8.66346 2.05731 8.57111V8.09111ZM3.50206 10.2645C2.94088 10.1763 2.41447 10.5597 2.32628 11.1209C2.23809 11.6821 2.62152 12.2085 3.18269 12.2967C3.37517 12.3269 3.57191 12.3425 3.7716 12.3425H4.2516C4.81966 12.3425 5.28017 11.882 5.28017 11.314C5.28017 10.7459 4.81966 10.2854 4.2516 10.2854H3.7716C3.67924 10.2854 3.58928 10.2782 3.50206 10.2645ZM9.1605 12.2967C9.72168 12.2085 10.1051 11.6821 10.0169 11.1209C9.92872 10.5597 9.40231 10.1763 8.84113 10.2645C8.75391 10.2782 8.66395 10.2854 8.57159 10.2854H8.09159C7.52353 10.2854 7.06302 10.7459 7.06302 11.314C7.06302 11.882 7.52353 12.3425 8.09159 12.3425H8.57159C8.77128 12.3425 8.96802 12.3269 9.1605 12.2967Z" fill="black"/>
</svg>
