<svg width="24" height="25" viewBox="0 0 24 25" fill="none" xmlns="http://www.w3.org/2000/svg">
<path fill-rule="evenodd" clip-rule="evenodd" d="M11.4036 1.74793C11.7571 1.48279 12.2432 1.48279 12.5967 1.74793L20.8252 7.91933L23.5681 9.97646C24.0074 10.3059 24.0964 10.9292 23.7669 11.3685C23.4375 11.8078 22.8142 11.8968 22.3749 11.5673L21.223 10.7033V21.7433C21.223 22.2924 20.7778 22.7375 20.2287 22.7375H14.743H9.2573H3.77161C3.22248 22.7375 2.77733 22.2924 2.77733 21.7433V10.7033L1.62534 11.5673C1.18604 11.8968 0.562817 11.8078 0.233339 11.3685C-0.0961378 10.9292 -0.00710644 10.3059 0.432196 9.97646L3.17504 7.91933L11.4036 1.74793ZM4.7659 9.2119V20.749H8.26301V12.1433C8.26301 11.5942 8.70817 11.149 9.2573 11.149H14.743C15.2921 11.149 15.7373 11.5942 15.7373 12.1433V20.749H19.2344V9.2119L12.0001 3.78621L4.7659 9.2119ZM13.7487 20.749V13.1376H10.2516V20.749H13.7487Z" fill="black"/>
</svg>
