<svg width="24" height="25" viewBox="0 0 24 25" fill="none" xmlns="http://www.w3.org/2000/svg">
<path d="M7.41868 5.16382C9.24123 5.16382 10.9891 5.88782 12.2779 7.17656C13.5666 8.46529 14.2906 10.2132 14.2906 12.0357C14.2906 13.8583 13.5666 15.6062 12.2779 16.8949C10.9891 18.1837 9.24123 18.9077 7.41868 18.9077C5.59613 18.9077 3.84823 18.1837 2.55949 16.8949C1.27076 15.6062 0.546753 13.8583 0.546753 12.0357C0.546753 10.2132 1.27076 8.46529 2.55949 7.17656C3.84823 5.88782 5.59613 5.16382 7.41868 5.16382ZM17.7266 6.30914C19.4445 6.30914 20.5899 8.87351 20.5899 12.0357C20.5899 15.198 19.4445 17.7623 17.7266 17.7623C16.0086 17.7623 14.8633 15.198 14.8633 12.0357C14.8633 8.87351 16.0086 6.30914 17.7266 6.30914ZM22.3078 6.8818C22.7431 6.8818 23.1233 7.82898 23.3157 9.45419L23.3696 9.96157L23.3913 10.2307L23.4257 10.7965L23.4371 11.0931L23.4509 11.7128L23.4532 12.0357L23.4509 12.3587L23.4371 12.9783L23.4257 13.2761L23.3913 13.8408L23.3684 14.1099L23.3169 14.6173C23.1233 16.2437 22.7442 17.1897 22.3078 17.1897C21.8726 17.1897 21.4924 16.2425 21.3 14.6173L21.2461 14.1099C21.2382 14.0203 21.231 13.9305 21.2244 13.8408L21.19 13.275C21.1856 13.1761 21.1818 13.0772 21.1786 12.9783L21.1648 12.3587V11.7128L21.1786 11.0931L21.19 10.7954L21.2244 10.2307L21.2473 9.96157L21.2988 9.45419C21.4924 7.82783 21.8715 6.8818 22.3078 6.8818Z" fill="black"/>
</svg>
