<svg width="24" height="24" viewBox="0 0 24 24" fill="none" xmlns="http://www.w3.org/2000/svg">
<path fill-rule="evenodd" clip-rule="evenodd" d="M17.3899 0.359205C17.7596 -0.0721019 18.4089 -0.122051 18.8402 0.24764L23.6235 4.34755C23.8531 4.53619 23.9997 4.82239 23.9997 5.14281C23.9997 5.48612 23.8315 5.79014 23.573 5.97698L18.788 9.56573C18.3335 9.90657 17.6888 9.81447 17.348 9.36002C17.0071 8.90557 17.0992 8.26086 17.5537 7.92002L19.8852 6.17138H6.17109C5.22432 6.17138 4.45681 6.9389 4.45681 7.88567V11.9999C4.45681 12.568 3.9963 13.0285 3.42824 13.0285C2.86017 13.0285 2.39966 12.568 2.39966 11.9999V7.88567C2.39966 5.80277 4.08819 4.11424 6.17109 4.11424H20.1903L17.5015 1.80954C17.0701 1.43985 17.0202 0.790511 17.3899 0.359205ZM6.60977 23.6408C6.24008 24.0721 5.59074 24.122 5.15943 23.7524L0.376154 19.6524C0.146494 19.4638 -2.80124e-08 19.1776 0 18.8572C3.00206e-08 18.5138 0.168226 18.2098 0.426748 18.023L5.21168 14.4343C5.66613 14.0934 6.31084 14.1855 6.65168 14.64C6.99252 15.0944 6.90042 15.7391 6.44596 16.08L4.11445 17.8286H17.8286C18.7753 17.8286 19.5429 17.0611 19.5429 16.1143V12.0001C19.5429 11.432 20.0034 10.9715 20.5714 10.9715C21.1395 10.9715 21.6 11.432 21.6 12.0001V16.1143C21.6 18.1972 19.9115 19.8858 17.8286 19.8858H3.80939L6.49821 22.1905C6.92951 22.5601 6.97946 23.2095 6.60977 23.6408Z" fill="black"/>
</svg>
