<svg width="24" height="25" viewBox="0 0 24 25" fill="none" xmlns="http://www.w3.org/2000/svg">
<path fill-rule="evenodd" clip-rule="evenodd" d="M0.0344238 4.48568C0.0344238 2.42171 1.7076 0.748535 3.77157 0.748535H5.82871H18.8573C20.9212 0.748535 22.5944 2.42171 22.5944 4.48568V5.54853V6.54282V9.97139C22.5944 10.5205 22.1493 10.9657 21.6001 10.9657C21.051 10.9657 20.6058 10.5205 20.6058 9.97139V7.5371H6.82299V20.9771H9.25728C9.80641 20.9771 10.2516 21.4223 10.2516 21.9714C10.2516 22.5205 9.80641 22.9657 9.25728 22.9657H5.82871H4.83442H3.77157C1.7076 22.9657 0.0344238 21.2925 0.0344238 19.2285V6.54282V4.48568ZM4.83442 20.9771H3.77157C2.80586 20.9771 2.02299 20.1942 2.02299 19.2285V7.5371H4.83442V20.9771ZM6.82299 5.54853H20.6058V4.48568C20.6058 3.51997 19.823 2.73711 18.8573 2.73711H6.82299V5.54853ZM4.83442 2.73711V5.54853H2.02299V4.48568C2.02299 3.51997 2.80586 2.73711 3.77157 2.73711H4.83442ZM11.3141 16.4857C11.3141 14.2134 13.1561 12.3714 15.4284 12.3714C17.7006 12.3714 19.5427 14.2134 19.5427 16.4857C19.5427 18.7579 17.7006 20.6 15.4284 20.6C13.1561 20.6 11.3141 18.7579 11.3141 16.4857ZM15.4284 10.3142C12.02 10.3142 9.25694 13.0773 9.25694 16.4857C9.25694 19.8941 12.02 22.6571 15.4284 22.6571C16.8492 22.6571 18.1578 22.177 19.2009 21.3701L22.2437 24.413C22.6454 24.8146 23.2967 24.8146 23.6984 24.413C24.1001 24.0113 24.1001 23.36 23.6984 22.9583L20.5979 19.8578C21.2315 18.8885 21.5998 17.7301 21.5998 16.4857C21.5998 13.0773 18.8368 10.3142 15.4284 10.3142ZM16.4228 14.7714C16.4228 14.2223 15.9777 13.7771 15.4285 13.7771C14.8794 13.7771 14.4343 14.2223 14.4343 14.7714V15.4914H13.7143C13.1651 15.4914 12.72 15.9366 12.72 16.4857C12.72 17.0348 13.1651 17.48 13.7143 17.48H14.4343V18.2C14.4343 18.7491 14.8794 19.1943 15.4285 19.1943C15.9777 19.1943 16.4228 18.7491 16.4228 18.2V17.48H17.2483C17.7975 17.48 18.2426 17.0348 18.2426 16.4857C18.2426 15.9366 17.7975 15.4914 17.2483 15.4914H16.4228V14.7714Z" fill="black"/>
</svg>
