<svg width="24" height="25" viewBox="0 0 24 25" fill="none" xmlns="http://www.w3.org/2000/svg">
<path d="M12 10.8755C13.1498 10.8755 14.0874 11.8132 14.0874 12.9853C14.0874 14.1016 13.1498 15.0504 12 15.0504C10.8502 15.0504 9.91256 14.1016 9.91256 12.9853C9.91256 11.8132 10.8502 10.8755 12 10.8755ZM6.83163 21.9155C7.53488 22.3397 9.07535 21.6923 10.8502 20.0179C10.2698 19.3592 9.70047 18.6448 9.16465 17.8969C8.26518 17.8102 7.37091 17.6761 6.48558 17.4951C5.91628 19.8839 6.12837 21.5248 6.83163 21.9155ZM7.62419 15.5081L7.30047 14.9388C7.17767 15.2625 7.05488 15.5862 6.97674 15.8988C7.27814 15.9658 7.61302 16.0216 7.95907 16.0774L7.62419 15.5081ZM14.9247 14.6597L15.8288 12.9853L14.9247 11.3109C14.5898 10.7192 14.2326 10.1946 13.9088 9.66994C13.306 9.63646 12.6698 9.63646 12 9.63646C11.3302 9.63646 10.694 9.63646 10.0912 9.66994C9.76744 10.1946 9.41023 10.7192 9.07535 11.3109L8.17116 12.9853L9.07535 14.6597C9.41023 15.2513 9.76744 15.776 10.0912 16.3006C10.694 16.3341 11.3302 16.3341 12 16.3341C12.6698 16.3341 13.306 16.3341 13.9088 16.3006C14.2326 15.776 14.5898 15.2513 14.9247 14.6597ZM12 7.15832C11.7879 7.4039 11.5647 7.66064 11.3414 7.96204H12.6586C12.4353 7.66064 12.2121 7.4039 12 7.15832ZM12 18.8123C12.2121 18.5667 12.4353 18.3099 12.6586 18.0085H11.3414C11.5647 18.3099 11.7879 18.5667 12 18.8123ZM17.1572 4.05506C16.4651 3.63087 14.9247 4.27832 13.1498 5.95273C13.7302 6.61134 14.2995 7.32576 14.8353 8.07366C15.7507 8.16297 16.6549 8.29692 17.5144 8.47553C18.0837 6.08669 17.8716 4.44576 17.1572 4.05506ZM16.3758 10.4625L16.6995 11.0318C16.8223 10.7081 16.9451 10.3844 17.0233 10.0718C16.7219 10.0048 16.387 9.94901 16.0409 9.8932L16.3758 10.4625ZM17.9944 2.59273C19.6354 3.53041 19.814 5.99739 19.1219 8.87739C21.9572 9.7146 24 11.0988 24 12.9853C24 14.8718 21.9572 16.256 19.1219 17.0932C19.814 19.9732 19.6354 22.4402 17.9944 23.3779C16.3647 24.3155 14.1433 23.2439 12 21.2011C9.85674 23.2439 7.63535 24.3155 5.99442 23.3779C4.36465 22.4402 4.18605 19.9732 4.87814 17.0932C2.04279 16.256 0 14.8718 0 12.9853C0 11.0988 2.04279 9.7146 4.87814 8.87739C4.18605 5.99739 4.36465 3.53041 5.99442 2.59273C7.63535 1.65506 9.85674 2.72669 12 4.76948C14.1433 2.72669 16.3647 1.65506 17.9944 2.59273ZM17.6707 12.9853C18.0502 13.8225 18.3851 14.6597 18.6642 15.5081C21.0084 14.8048 22.3256 13.8002 22.3256 12.9853C22.3256 12.1704 21.0084 11.1658 18.6642 10.4625C18.3851 11.3109 18.0502 12.1481 17.6707 12.9853ZM6.3293 12.9853C5.94977 12.1481 5.61488 11.3109 5.33581 10.4625C2.99163 11.1658 1.67442 12.1704 1.67442 12.9853C1.67442 13.8002 2.99163 14.8048 5.33581 15.5081C5.61488 14.6597 5.94977 13.8225 6.3293 12.9853ZM16.3758 15.5081L16.0409 16.0774C16.387 16.0216 16.7219 15.9658 17.0233 15.8988C16.9451 15.5862 16.8223 15.2625 16.6995 14.9388L16.3758 15.5081ZM13.1498 20.0179C14.9247 21.6923 16.4651 22.3397 17.1572 21.9155C17.8716 21.5248 18.0837 19.8839 17.5144 17.4951C16.6549 17.6737 15.7507 17.8076 14.8353 17.8969C14.2995 18.6448 13.7302 19.3592 13.1498 20.0179ZM7.62419 10.4625L7.95907 9.8932C7.61302 9.94901 7.27814 10.0048 6.97674 10.0718C7.05488 10.3844 7.17767 10.7081 7.30047 11.0318L7.62419 10.4625ZM10.8502 5.95273C9.07535 4.27832 7.53488 3.63087 6.83163 4.05506C6.12837 4.44576 5.91628 6.08669 6.48558 8.47553C7.37091 8.29452 8.26518 8.16038 9.16465 8.07366C9.70047 7.32576 10.2698 6.61134 10.8502 5.95273Z" fill="black"/>
</svg>
