<svg width="24" height="24" viewBox="0 0 24 24" fill="none" xmlns="http://www.w3.org/2000/svg">
<path fill-rule="evenodd" clip-rule="evenodd" d="M4.8713 1.74926C6.65419 1.10823 9.15667 0.459595 11.9998 0.459595C14.8429 0.459595 17.3454 1.10823 19.1282 1.74926C20.0224 2.07075 20.7433 2.39315 21.2452 2.63769C21.4963 2.76006 21.6931 2.86324 21.83 2.93748C21.8985 2.97462 21.952 3.00455 21.9899 3.02606L22.0349 3.05188L22.0484 3.05978L22.0529 3.06243L22.0546 3.06342L22.0553 3.06383C22.0556 3.06402 22.0559 3.06419 21.4639 4.06324L22.0559 3.06419C22.4088 3.2733 22.6252 3.65306 22.6252 4.06324V19.9385C22.6252 20.3487 22.4088 20.7285 22.0559 20.9376L21.4639 19.9385C22.0559 20.9376 22.0556 20.9378 22.0553 20.9379L22.0546 20.9384L22.0529 20.9393L22.0484 20.942L22.0349 20.9499L21.9899 20.9757C21.952 20.9972 21.8985 21.0272 21.83 21.0643C21.6931 21.1385 21.4963 21.2417 21.2452 21.3641C20.7433 21.6086 20.0224 21.931 19.1282 22.2525C17.3454 22.8936 14.8429 23.5422 11.9998 23.5422C9.15665 23.5422 6.65417 22.8936 4.8713 22.2525C3.97715 21.931 3.25619 21.6086 2.75439 21.3641C2.50327 21.2417 2.30641 21.1385 2.16952 21.0643C2.10105 21.0272 2.04753 20.9972 2.00965 20.9757L1.96465 20.9499L1.95111 20.942L1.9466 20.9393L1.94492 20.9384L1.94422 20.9379C1.94391 20.9378 1.94362 20.9376 2.53565 19.9385L1.94362 20.9376C1.59075 20.7285 1.37436 20.3487 1.37436 19.9385V4.06324C1.37436 3.65306 1.59075 3.2733 1.94362 3.06419L2.53565 4.06324C1.94362 3.06419 1.94391 3.06402 1.94422 3.06383L1.94492 3.06342L1.9466 3.06243L1.95111 3.05978L1.96465 3.05188L2.00965 3.02606C2.04753 3.00455 2.10105 2.97462 2.16952 2.93748C2.30641 2.86323 2.50328 2.76006 2.75439 2.63769C3.2562 2.39315 3.97715 2.07075 4.8713 1.74926ZM3.12717 5.06259L3.1262 5.06316L3.12675 5.06283L3.12717 5.06259ZM3.69694 4.7623C3.72118 4.75032 3.74615 4.73807 3.77183 4.72556C4.20976 4.51215 4.85309 4.22396 5.65714 3.93486C7.27066 3.35472 9.50024 2.78217 11.9998 2.78217C14.4993 2.78217 16.7289 3.35472 18.3424 3.93486C19.1465 4.22396 19.7898 4.51215 20.2277 4.72555C20.2534 4.73807 20.2784 4.75032 20.3026 4.7623V5.80653C20.2784 5.81851 20.2534 5.83076 20.2277 5.84327C19.7898 6.05668 19.1465 6.34487 18.3424 6.63397C16.7289 7.21411 14.4993 7.78665 11.9998 7.78665C9.50022 7.78665 7.27064 7.21411 5.65712 6.63397C4.85308 6.34487 4.20975 6.05668 3.77183 5.84328C3.74614 5.83076 3.72118 5.81851 3.69694 5.80653V4.7623ZM3.69694 8.35979C4.04408 8.50726 4.43728 8.66352 4.87129 8.81957C6.65416 9.4606 9.15664 10.1092 11.9998 10.1092C14.8429 10.1092 17.3453 9.4606 19.1282 8.81957C19.5622 8.66352 19.9555 8.50726 20.3026 8.35979V12.523C20.2784 12.535 20.2534 12.5472 20.2277 12.5598C19.7898 12.7732 19.1465 13.0613 18.3424 13.3504C16.7289 13.9306 14.4993 14.5031 11.9998 14.5031C9.50022 14.5031 7.27064 13.9306 5.65712 13.3504C4.85308 13.0613 4.20975 12.7732 3.77183 12.5598C3.74614 12.5472 3.72118 12.535 3.69694 12.523V8.35979ZM3.69694 15.0763V19.2395C3.72118 19.2515 3.74615 19.2637 3.77183 19.2762C4.20975 19.4896 4.85308 19.7778 5.65713 20.0669C7.27065 20.6471 9.50023 21.2196 11.9998 21.2196C14.4993 21.2196 16.7289 20.6471 18.3424 20.0669C19.1465 19.7778 19.7898 19.4896 20.2277 19.2762C20.2534 19.2637 20.2784 19.2515 20.3026 19.2395V15.0763C19.9555 15.2237 19.5622 15.38 19.1282 15.536C17.3453 16.1771 14.8429 16.8257 11.9998 16.8257C9.15664 16.8257 6.65416 16.1771 4.87129 15.536C4.43728 15.38 4.04408 15.2237 3.69694 15.0763ZM3.1262 5.06316C3.12596 5.0633 3.12596 5.0633 3.1262 5.06316Z" fill="#1C1C1C"/>
</svg>
