<svg width="26" height="25" viewBox="0 0 26 25" fill="none" xmlns="http://www.w3.org/2000/svg">
<path fill-rule="evenodd" clip-rule="evenodd" d="M14.3404 6.99972C13.8113 6.99972 13.3755 6.60026 13.3182 6.08649C13.1432 4.71929 12.2985 3.52875 11.0651 2.91209L10.7947 2.77685C10.4462 2.60261 10.2261 2.24646 10.2261 1.85686V1.17115C10.2261 0.603086 10.6866 0.142578 11.2546 0.142578H16.0546C16.6227 0.142578 17.0832 0.603086 17.0832 1.17115V5.97115C17.0832 6.53921 16.6227 6.99972 16.0546 6.99972H14.3404ZM13.562 2.19972C14.2092 2.83743 14.7102 3.61182 15.0261 4.468V2.19972H13.562ZM18.7975 1.17148C18.7975 0.60342 19.258 0.142913 19.8261 0.142913H24.6261C25.1941 0.142913 25.6546 0.60342 25.6546 1.17148V5.97148C25.6546 6.53955 25.1941 7.00005 24.6261 7.00005H19.8261C19.258 7.00005 18.7975 6.53955 18.7975 5.97148V1.17148ZM20.8546 2.20006V4.94291H23.5975V2.20006H20.8546ZM16.74 9.74291C16.74 9.17485 17.2005 8.71434 17.7686 8.71434H24.6257C25.1938 8.71434 25.6543 9.17485 25.6543 9.74291V14.5429C25.6543 15.111 25.1938 15.5715 24.6257 15.5715H17.7686C17.2005 15.5715 16.74 15.111 16.74 14.5429V9.74291ZM18.7972 10.7715V13.5143H23.5972V10.7715H18.7972ZM17.7688 18.3143C17.7688 17.8908 17.5092 17.5106 17.1147 17.3564C16.7203 17.2022 16.2717 17.3055 15.9844 17.6167L14.801 18.8987C14.2832 19.4596 13.6929 19.9488 13.0455 20.3534L11.3951 21.385C11.0943 21.5729 10.9116 21.9026 10.9116 22.2572V23.1143C10.9116 23.6824 11.3721 24.1429 11.9402 24.1429H16.7402C17.3083 24.1429 17.7688 23.6824 17.7688 23.1143V18.3143ZM14.1551 22.0858C14.71 21.7373 15.231 21.3386 15.7116 20.895V22.0858H14.1551ZM18.7975 18.3143C18.7975 17.7463 19.258 17.2858 19.8261 17.2858H24.6261C25.1941 17.2858 25.6546 17.7463 25.6546 18.3143V23.1143C25.6546 23.6824 25.1941 24.1429 24.6261 24.1429H19.8261C19.258 24.1429 18.7975 23.6824 18.7975 23.1143V18.3143ZM20.8546 19.3429V22.0858H23.5975V19.3429H20.8546Z" fill="black"/>
<path d="M3.62729 17.0061C1.78299 13.9578 2.26527 11.2342 2.26527 11.2342C2.26527 11.2342 2.73527 12.4442 3.47873 13.1433C4.14094 13.766 5.52106 13.5308 5.52106 13.5308C5.52106 13.5308 3.53222 9.06861 4.12232 6.44841C4.47507 4.8821 5.97896 3.96024 5.97896 3.96024C5.97896 3.96024 6.3578 6.94545 7.27865 8.46745C8.2008 9.9916 9.96461 9.97118 9.96461 9.97118C9.96461 9.97118 9.36818 8.12381 9.48186 7.1812C9.6242 6.00103 11.1281 5.07917 11.1281 5.07917C11.1281 5.07917 10.7995 7.02801 11.7841 8.47012C12.7688 9.91222 14.4938 10.4929 14.8548 12.6569C15.2254 14.878 14.1731 17.8707 11.0354 19.2637C7.89763 20.6566 4.98306 19.2469 3.62729 17.0061Z" stroke="black" stroke-width="2.05714" stroke-linecap="round" stroke-linejoin="round"/>
</svg>
