<svg width="24" height="24" viewBox="0 0 24 24" fill="none" xmlns="http://www.w3.org/2000/svg">
<path fill-rule="evenodd" clip-rule="evenodd" d="M12 6C12.55 6 13 5.55 13 5C13 4.45 12.55 4 12 4C11.45 4 11 4.45 11 5C11 5.55 11.45 6 12 6ZM13 12C13 12.55 12.55 13 12 13C11.45 13 11 12.55 11 12C11 11.45 11.45 11 12 11C12.55 11 13 11.45 13 12ZM13 19C13 19.55 12.55 20 12 20C11.45 20 11 19.55 11 19C11 18.45 11.45 18 12 18C12.55 18 13 18.45 13 19Z" fill="black"/>
<path d="M12.25 5C12.25 5.13579 12.1358 5.25 12 5.25V6.75C12.9642 6.75 13.75 5.96421 13.75 5H12.25ZM12 4.75C12.1358 4.75 12.25 4.86421 12.25 5H13.75C13.75 4.03579 12.9642 3.25 12 3.25V4.75ZM11.75 5C11.75 4.86421 11.8642 4.75 12 4.75V3.25C11.0358 3.25 10.25 4.03579 10.25 5H11.75ZM12 5.25C11.8642 5.25 11.75 5.13579 11.75 5H10.25C10.25 5.96421 11.0358 6.75 12 6.75V5.25ZM12 13.75C12.9642 13.75 13.75 12.9642 13.75 12H12.25C12.25 12.1358 12.1358 12.25 12 12.25V13.75ZM10.25 12C10.25 12.9642 11.0358 13.75 12 13.75V12.25C11.8642 12.25 11.75 12.1358 11.75 12H10.25ZM12 10.25C11.0358 10.25 10.25 11.0358 10.25 12H11.75C11.75 11.8642 11.8642 11.75 12 11.75V10.25ZM13.75 12C13.75 11.0358 12.9642 10.25 12 10.25V11.75C12.1358 11.75 12.25 11.8642 12.25 12H13.75ZM12 20.75C12.9642 20.75 13.75 19.9642 13.75 19H12.25C12.25 19.1358 12.1358 19.25 12 19.25V20.75ZM10.25 19C10.25 19.9642 11.0358 20.75 12 20.75V19.25C11.8642 19.25 11.75 19.1358 11.75 19H10.25ZM12 17.25C11.0358 17.25 10.25 18.0358 10.25 19H11.75C11.75 18.8642 11.8642 18.75 12 18.75V17.25ZM13.75 19C13.75 18.0358 12.9642 17.25 12 17.25V18.75C12.1358 18.75 12.25 18.8642 12.25 19H13.75Z" fill="black"/>
</svg>
