<svg width="24" height="24" viewBox="0 0 24 24" fill="none" xmlns="http://www.w3.org/2000/svg">
<path fill-rule="evenodd" clip-rule="evenodd" d="M7.46967 4.46967C7.54158 4.39776 7.62445 4.34351 7.71291 4.30691C7.79996 4.27081 7.89528 4.25064 7.99523 4.25001L8 4.25L8.00477 4.25001C8.19512 4.25122 8.3851 4.32444 8.53033 4.46967L11.0303 6.96967C11.3232 7.26256 11.3232 7.73744 11.0303 8.03033C10.7374 8.32322 10.2626 8.32322 9.96967 8.03033L8.75 6.81066V19C8.75 19.4142 8.41421 19.75 8 19.75C7.58579 19.75 7.25 19.4142 7.25 19V6.81066L6.03033 8.03033C5.73744 8.32322 5.26256 8.32322 4.96967 8.03033C4.67678 7.73744 4.67678 7.26256 4.96967 6.96967L7.46967 4.46967ZM17.2835 18.7519L17.0084 17.98H14.9816L14.7065 18.7519C14.5674 19.142 14.1384 19.3456 13.7482 19.2066C13.358 19.0675 13.1545 18.6385 13.2935 18.2483L14.9935 13.4783L14.9969 13.4687L15.0006 13.4593C15.1526 13.0665 15.5165 12.7476 15.995 12.7476C16.4735 12.7476 16.8374 13.0665 16.9894 13.4593L16.9931 13.4687L16.9965 13.4783L18.6965 18.2483C18.8355 18.6385 18.632 19.0675 18.2418 19.2066C17.8516 19.3456 17.4226 19.142 17.2835 18.7519ZM15.995 15.1364L16.4738 16.48H15.5162L15.995 15.1364ZM14.25 4.75C13.8358 4.75 13.5 5.08579 13.5 5.5C13.5 5.91421 13.8358 6.25 14.25 6.25H16.6388L13.8101 9.19937L13.8093 9.20023C13.4466 9.57711 13.408 10.0838 13.54 10.4653C13.671 10.8437 14.0377 11.26 14.62 11.26H17.75C18.1642 11.26 18.5 10.9242 18.5 10.51C18.5 10.0958 18.1642 9.76001 17.75 9.76001H15.3508L18.1713 6.81912L18.1714 6.81918L18.1789 6.81105C18.5256 6.43868 18.5766 5.94138 18.446 5.55244C18.3146 5.16137 17.9425 4.75 17.36 4.75H14.25Z" fill="black"/>
</svg>
