<svg width="24" height="24" viewBox="0 0 24 24" fill="none" xmlns="http://www.w3.org/2000/svg">
<path d="M11.0303 17.0303C11.3232 16.7374 11.3232 16.2626 11.0303 15.9697C10.7374 15.6768 10.2626 15.6768 9.96967 15.9697L11.0303 17.0303ZM8 19L7.46967 19.5303C7.76256 19.8232 8.23744 19.8232 8.53033 19.5303L8 19ZM6.03033 15.9697C5.73744 15.6768 5.26256 15.6768 4.96967 15.9697C4.67678 16.2626 4.67678 16.7374 4.96967 17.0303L6.03033 15.9697ZM8.75 5C8.75 4.58579 8.41421 4.25 8 4.25C7.58579 4.25 7.25 4.58579 7.25 5H8.75ZM14.635 13.3449C14.2731 13.5465 14.1432 14.0033 14.3448 14.3651C14.5464 14.727 15.0032 14.8569 15.365 14.6553L14.635 13.3449ZM15.7 13.6101L16.065 14.2653L16.1233 14.2328L16.1749 14.1906L15.7 13.6101ZM15.75 18.5001C15.75 18.9143 16.0858 19.2501 16.5 19.2501C16.9142 19.2501 17.25 18.9143 17.25 18.5001H15.75ZM17.48 8.59998L16.7314 8.55168L16.7308 8.5643L17.48 8.59998ZM15 9.75C14.5858 9.75 14.25 10.0858 14.25 10.5C14.25 10.9142 14.5858 11.25 15 11.25V9.75ZM9.96967 15.9697L7.46967 18.4697L8.53033 19.5303L11.0303 17.0303L9.96967 15.9697ZM8.53033 18.4697L6.03033 15.9697L4.96967 17.0303L7.46967 19.5303L8.53033 18.4697ZM7.25 5V19H8.75V5H7.25ZM15.365 14.6553L16.065 14.2653L15.335 12.9549L14.635 13.3449L15.365 14.6553ZM16.1749 14.1906C16.1402 14.219 16.0852 14.2449 16.0185 14.2497C15.9554 14.2543 15.9013 14.2388 15.8617 14.2169C15.7806 14.1722 15.75 14.0977 15.75 14.0501H17.25C17.25 13.5525 16.9844 13.123 16.5858 12.9033C16.1786 12.6788 15.6444 12.6866 15.2251 13.0296L16.1749 14.1906ZM15.75 14.0501V18.5001H17.25V14.0501H15.75ZM16.75 7C16.75 7.41421 16.4142 7.75 16 7.75V9.25C17.2426 9.25 18.25 8.24264 18.25 7H16.75ZM16 7.75C15.5858 7.75 15.25 7.41421 15.25 7H13.75C13.75 8.24264 14.7574 9.25 16 9.25V7.75ZM15.25 7C15.25 6.58579 15.5858 6.25 16 6.25V4.75C14.7574 4.75 13.75 5.75736 13.75 7H15.25ZM16 6.25C16.4142 6.25 16.75 6.58579 16.75 7H18.25C18.25 5.75736 17.2426 4.75 16 4.75V6.25ZM16.75 7V7.5H18.25V7H16.75ZM16.75 7.5C16.75 7.93773 16.7497 8.27094 16.7316 8.55169L18.2284 8.64826C18.2503 8.30902 18.25 7.92227 18.25 7.5H16.75ZM16.7308 8.5643C16.7001 9.21063 16.1334 9.75 15.48 9.75V11.25C16.9265 11.25 18.1599 10.0893 18.2291 8.63565L16.7308 8.5643ZM15.48 9.75H15V11.25H15.48V9.75Z" fill="black"/>
</svg>
