<svg width="24" height="25" viewBox="0 0 24 25" fill="none" xmlns="http://www.w3.org/2000/svg">
<path fill-rule="evenodd" clip-rule="evenodd" d="M11.6016 0.492543C11.8557 0.381392 12.1446 0.381392 12.3987 0.492543L23.3701 5.29254C23.732 5.45088 23.9658 5.80844 23.9658 6.20346V18.5463C23.9658 18.9413 23.732 19.2989 23.3701 19.4572L12.3987 24.2572C12.1446 24.3684 11.8557 24.3684 11.6016 24.2572L0.630181 19.4572C0.268274 19.2989 0.0344238 18.9413 0.0344238 18.5463V6.20346C0.0344238 5.80844 0.268274 5.45088 0.630181 5.29254L11.6016 0.492543ZM2.02299 7.72374V17.896L11.0059 21.826V11.6537L2.02299 7.72374ZM12.9944 11.6537V21.826L21.9773 17.896V7.72374L12.9944 11.6537ZM20.4909 6.20346L12.0001 9.91819L3.50934 6.20346L12.0001 2.48874L20.4909 6.20346Z" fill="black"/>
</svg>
