<svg width="24" height="24" viewBox="0 0 24 24" fill="none" xmlns="http://www.w3.org/2000/svg">
<path d="M6.05249 5.77983C6.05249 5.50339 6.25673 5.2793 6.50867 5.2793H7.73654C7.98848 5.2793 8.19271 5.50339 8.19271 5.77983V18.2188C8.19271 18.4952 7.98848 18.7193 7.73654 18.7193H6.50867C6.25673 18.7193 6.05249 18.4952 6.05249 18.2188V5.77983Z" fill="black"/>
<path d="M10.9298 5.77983C10.9298 5.50339 11.134 5.2793 11.386 5.2793H12.6138C12.8658 5.2793 13.07 5.50339 13.07 5.77983V18.2188C13.07 18.4952 12.8658 18.7193 12.6138 18.7193H11.386C11.134 18.7193 10.9298 18.4952 10.9298 18.2188V5.77983Z" fill="black"/>
<path d="M15.8071 5.77983C15.8071 5.50339 16.0113 5.2793 16.2632 5.2793H17.4911C17.743 5.2793 17.9473 5.50339 17.9473 5.77983V18.2188C17.9473 18.4952 17.743 18.7193 17.4911 18.7193H16.2632C16.0113 18.7193 15.8071 18.4952 15.8071 18.2188V5.77983Z" fill="black"/>
</svg>
