<svg width="24" height="24" viewBox="0 0 24 24" fill="none" xmlns="http://www.w3.org/2000/svg">
<path fill-rule="evenodd" clip-rule="evenodd" d="M9.5999 1.71429C9.5999 0.767511 10.3674 0 11.3142 0H18.5142C19.0822 0 19.5428 0.460507 19.5428 1.02857C19.5428 1.59664 19.0822 2.05714 18.5142 2.05714H11.657V21.9429H18.5142C19.0822 21.9429 19.5428 22.4034 19.5428 22.9714C19.5428 23.5395 19.0822 24 18.5142 24H11.3142C10.3674 24 9.5999 23.2325 9.5999 22.2857V1.71429ZM14.2422 6.6443C14.5682 6.46272 14.9669 6.4719 15.2841 6.6683L22.4841 11.1254C22.787 11.3129 22.9713 11.6438 22.9713 12C22.9713 12.3562 22.787 12.6871 22.4841 12.8746L15.2841 17.3317C14.9669 17.5281 14.5682 17.5373 14.2422 17.3557C13.9162 17.1741 13.7142 16.8303 13.7142 16.4571V7.54286C13.7142 7.16974 13.9162 6.82587 14.2422 6.6443ZM15.7713 14.6107L19.9886 12L15.7713 9.3893V14.6107ZM6.51419 1.02858C7.08226 1.02858 7.54276 1.48909 7.54276 2.05715V21.9429C7.54276 22.5109 7.08226 22.9714 6.51419 22.9714C5.94613 22.9714 5.48562 22.5109 5.48562 21.9429V2.05715C5.48562 1.48909 5.94613 1.02858 6.51419 1.02858ZM3.77132 4.11427C3.77132 3.5462 3.31081 3.08569 2.74274 3.08569C2.17468 3.08569 1.71417 3.5462 1.71417 4.11427V19.8857C1.71417 20.4538 2.17468 20.9143 2.74274 20.9143C3.31081 20.9143 3.77132 20.4538 3.77132 19.8857V4.11427Z" fill="black"/>
</svg>
