<svg width="24" height="24" viewBox="0 0 24 24" fill="none" xmlns="http://www.w3.org/2000/svg">
<path fill-rule="evenodd" clip-rule="evenodd" d="M9.59975 1.71438C9.59975 0.767603 10.3673 9.15527e-05 11.314 9.15527e-05H18.514C19.0821 9.15527e-05 19.5426 0.460599 19.5426 1.02866C19.5426 1.59673 19.0821 2.05723 18.514 2.05723H11.6569V21.9429H18.514C19.0821 21.9429 19.5426 22.4035 19.5426 22.9715C19.5426 23.5396 19.0821 24.0001 18.514 24.0001H11.314C10.3673 24.0001 9.59975 23.2326 9.59975 22.2858V1.71438ZM14.2421 6.64439C14.568 6.46281 14.9667 6.47199 15.284 6.66839L22.484 11.1255C22.7869 11.313 22.9712 11.6439 22.9712 12.0001C22.9712 12.3563 22.7869 12.6872 22.484 12.8746L15.284 17.3318C14.9667 17.5282 14.568 17.5374 14.2421 17.3558C13.9161 17.1742 13.714 16.8304 13.714 16.4572V7.54295C13.714 7.16983 13.9161 6.82596 14.2421 6.64439ZM15.7712 9.38939V14.6108L19.9885 12.0001L15.7712 9.38939ZM6.5142 1.02867C7.08227 1.02867 7.54277 1.48918 7.54277 2.05724V21.943C7.54277 22.511 7.08227 22.9715 6.5142 22.9715C5.94614 22.9715 5.48563 22.511 5.48563 21.943V2.05724C5.48563 1.48918 5.94614 1.02867 6.5142 1.02867ZM3.77101 4.11436C3.77101 3.54629 3.3105 3.08578 2.74244 3.08578C2.17437 3.08578 1.71387 3.54629 1.71387 4.11436V19.8858C1.71387 20.4538 2.17437 20.9144 2.74244 20.9144C3.3105 20.9144 3.77101 20.4538 3.77101 19.8858V4.11436Z" fill="black"/>
</svg>
