<svg width="24" height="25" viewBox="0 0 24 25" fill="none" xmlns="http://www.w3.org/2000/svg">
<path fill-rule="evenodd" clip-rule="evenodd" d="M19.9389 2.61269C19.8691 2.47151 19.7099 2.39853 19.5574 2.43776L18.5489 2.69707C18.1886 2.78972 17.8114 2.79481 17.4487 2.71191L16.3395 2.45838C16.166 2.41873 15.992 2.52247 15.9444 2.69395L15.8369 3.08092C15.675 3.66359 15.2931 4.16058 14.7718 4.46701L14.2848 4.75325C14.1289 4.84487 14.0746 5.04412 14.1624 5.20217L14.4621 5.74173C14.7468 6.2542 14.828 6.8551 14.6896 7.42475L14.531 8.07717C14.488 8.25426 14.5952 8.43305 14.7717 8.47844L15.5504 8.67868C15.9143 8.77225 16.2502 8.95239 16.5295 9.20375L17.7639 10.3147C17.8906 10.4287 18.0829 10.4287 18.2096 10.3147L19.444 9.20375C19.7233 8.95239 20.0592 8.77225 20.4231 8.67868L21.3434 8.44203C21.5053 8.4004 21.6112 8.2452 21.5911 8.07925L21.4784 7.15184C21.4297 6.75173 21.4857 6.34584 21.6407 5.97378L21.9755 5.17013C22.0364 5.02407 21.9861 4.85536 21.8552 4.76646L21.0816 4.24108C20.7486 4.01499 20.4799 3.70657 20.3015 3.34583L19.9389 2.61269ZM19.0596 0.502192C20.1274 0.227623 21.2415 0.738464 21.7303 1.72671L22.0929 2.45985C22.1184 2.51138 22.1568 2.55544 22.2043 2.58774L22.978 3.11313C23.8943 3.73538 24.2464 4.91639 23.8203 5.9388L23.4855 6.74245C23.4633 6.7956 23.4554 6.85358 23.4623 6.91074L23.575 7.83815C23.7162 8.99981 22.9744 10.0862 21.8411 10.3776L20.9208 10.6142C20.8688 10.6276 20.8208 10.6533 20.7809 10.6893L19.5465 11.8002C18.6598 12.5983 17.3137 12.5983 16.427 11.8002L15.1926 10.6893C15.1527 10.6533 15.1047 10.6276 15.0527 10.6142L14.274 10.414C13.0385 10.0963 12.2877 8.84474 12.589 7.60516L12.7476 6.95274C12.7674 6.87136 12.7558 6.78552 12.7151 6.71231L12.4153 6.17275C11.8007 5.06635 12.1809 3.67162 13.2721 3.03028L13.7591 2.74404C13.8336 2.70026 13.8881 2.62927 13.9113 2.54603L14.0188 2.15905C14.3522 0.958683 15.5704 0.232494 16.7849 0.510094L17.894 0.763623C17.9459 0.775465 17.9997 0.774738 18.0512 0.761502L19.0596 0.502192ZM2.33162 4.19851C2.14766 4.19851 1.99853 4.34764 1.99853 4.5316V17.8552C1.99853 18.0391 2.14766 18.1883 2.33163 18.1883H11.6581H20.9846C21.1686 18.1883 21.3177 18.0391 21.3177 17.8552V13.8581C21.3177 13.3062 21.7651 12.8588 22.317 12.8588C22.8689 12.8588 23.3162 13.3062 23.3162 13.8581V17.8552C23.3162 19.1429 22.2723 20.1868 20.9846 20.1868H12.6574V21.8522H16.3214C16.8733 21.8522 17.3206 22.2996 17.3206 22.8515C17.3206 23.4034 16.8733 23.8508 16.3214 23.8508H11.6581H6.99487C6.44299 23.8508 5.99561 23.4034 5.99561 22.8515C5.99561 22.2996 6.44299 21.8522 6.99487 21.8522H10.6589V20.1868H2.33163C1.04391 20.1868 0 19.1429 0 17.8552V4.5316C0 3.24387 1.0439 2.19997 2.33162 2.19997H9.99268C10.5446 2.19997 10.9919 2.64736 10.9919 3.19924C10.9919 3.75112 10.5446 4.19851 9.99268 4.19851H2.33162ZM20.3586 5.90429C20.7489 5.51405 20.7489 4.88135 20.3586 4.49112C19.9684 4.10088 19.3357 4.10088 18.9455 4.49112L17.5262 5.91039L17.2086 5.69862C16.7494 5.39249 16.1289 5.51657 15.8228 5.97577C15.5167 6.43496 15.6408 7.05537 16.1 7.3615L17.0992 8.02768C17.4956 8.2919 18.0233 8.23964 18.3601 7.90283L20.3586 5.90429Z" fill="black"/>
</svg>
