<svg width="24" height="25" viewBox="0 0 24 25" fill="none" xmlns="http://www.w3.org/2000/svg">
<path fill-rule="evenodd" clip-rule="evenodd" d="M15.97 4.71638C16.4592 4.49402 16.6755 3.9172 16.4532 3.42801C16.2308 2.93882 15.654 2.72251 15.1648 2.94487L11.5973 4.56648C11.1081 4.78883 10.8918 5.36566 11.1141 5.85484C11.3365 6.34403 11.9133 6.56034 12.4025 6.33798L15.97 4.71638ZM23.4294 7.63539C23.9186 7.41303 24.1349 6.83621 23.9126 6.34702C23.6902 5.85783 23.1134 5.64153 22.6242 5.86388L19.0567 7.48549C18.5675 7.70785 18.3512 8.28467 18.5735 8.77386C18.7959 9.26305 19.3727 9.47935 19.8619 9.257L23.4294 7.63539ZM8.49801 6.18261C8.2494 6.07384 7.96666 6.07384 7.71804 6.18261L0.582981 9.3042C0.228835 9.45914 0 9.80903 0 10.1956V18.2225C0 18.6091 0.228835 18.959 0.582981 19.1139L7.71804 22.2355C7.96666 22.3443 8.2494 22.3443 8.49801 22.2355L15.6331 19.1139C15.9872 18.959 16.2161 18.6091 16.2161 18.2225V10.1956C16.2161 9.80903 15.9872 9.45914 15.6331 9.3042L8.49801 6.18261ZM1.94593 17.5862V11.6833L7.13506 13.9535V19.8564L1.94593 17.5862ZM9.08099 19.8564V13.9535L14.2701 11.6833V17.5862L9.08099 19.8564ZM8.10803 12.2552L12.8157 10.1956L8.10803 8.136L3.4004 10.1956L8.10803 12.2552ZM23.9126 14.4549C24.1349 14.9441 23.9186 15.5209 23.4294 15.7433L19.8619 17.3649C19.3727 17.5873 18.7959 17.371 18.5735 16.8818C18.3512 16.3926 18.5675 15.8158 19.0567 15.5934L22.6242 13.9718C23.1134 13.7494 23.6902 13.9657 23.9126 14.4549Z" fill="black"/>
</svg>
