<svg width="24" height="24" viewBox="0 0 24 24" fill="none" xmlns="http://www.w3.org/2000/svg">
<path fill-rule="evenodd" clip-rule="evenodd" d="M4.89277 2.3662C4.89277 2.16858 5.05297 2.00838 5.2506 2.00838H7.95482C8.15244 2.00838 8.31265 2.16858 8.31265 2.3662V4.7324C8.31265 4.93002 8.15244 5.09023 7.95482 5.09023H6.60271H5.2506C5.05297 5.09023 4.89277 4.93002 4.89277 4.7324V2.3662ZM5.2506 0.0198059C3.95472 0.0198059 2.9042 1.07032 2.9042 2.3662V4.7324C2.9042 6.02828 3.95471 7.0788 5.2506 7.0788H5.60842V8.54587L2.85735 11.2969C2.46906 11.6852 2.46906 12.3148 2.85735 12.7031L5.60842 15.4541V16.5832H5.2506C3.95471 16.5832 2.9042 17.6337 2.9042 18.9296V21.6338C2.9042 22.9297 3.95472 23.9802 5.2506 23.9802H7.95482C9.2507 23.9802 10.3012 22.9297 10.3012 21.6338V18.9296C10.3012 17.6337 9.2507 16.5832 7.95482 16.5832H7.59699V15.4541L10.2258 12.8253H15.7295C15.9271 12.8253 16.0873 12.9855 16.0873 13.1831V16.5832H15.7295C14.4336 16.5832 13.3831 17.6337 13.3831 18.9296V21.6338C13.3831 22.9297 14.4336 23.9802 15.7295 23.9802H18.4337C19.7296 23.9802 20.7801 22.9297 20.7801 21.6338V18.9296C20.7801 17.6337 19.7296 16.5832 18.4337 16.5832H18.0759V13.1831C18.0759 11.8872 17.0253 10.8367 15.7295 10.8367H9.88775L7.59699 8.54595V7.0788H7.95482C9.2507 7.0788 10.3012 6.02828 10.3012 4.7324V2.3662C10.3012 1.07032 9.2507 0.0198059 7.95482 0.0198059H5.2506ZM4.89277 18.9296C4.89277 18.732 5.05297 18.5718 5.2506 18.5718H6.60271H7.95482C8.15244 18.5718 8.31265 18.732 8.31265 18.9296V21.6338C8.31265 21.8314 8.15244 21.9916 7.95482 21.9916H5.2506C5.05297 21.9916 4.89277 21.8314 4.89277 21.6338V18.9296ZM15.3717 18.9296C15.3717 18.732 15.5319 18.5718 15.7295 18.5718H17.0816H18.4337C18.6313 18.5718 18.7915 18.732 18.7915 18.9296V21.6338C18.7915 21.8314 18.6313 21.9916 18.4337 21.9916H15.7295C15.5319 21.9916 15.3717 21.8314 15.3717 21.6338V18.9296ZM6.60267 13.6361L4.96655 12L6.60267 10.3639L8.23879 12L6.60267 13.6361Z" fill="black"/>
</svg>
