<svg width="24" height="25" viewBox="0 0 24 25" fill="none" xmlns="http://www.w3.org/2000/svg">
<path fill-rule="evenodd" clip-rule="evenodd" d="M12 0.576904C9.0076 0.576904 6.37051 1.25619 4.48893 1.92909C3.54583 2.26637 2.78592 2.60442 2.25803 2.86029C1.9939 2.98831 1.78732 3.09602 1.64437 3.17314C1.57288 3.21171 1.51725 3.24265 1.47824 3.26469L1.43228 3.29092L1.41881 3.29874L1.41448 3.30127L1.41292 3.30218L1.4123 3.30255C1.41202 3.30271 1.41177 3.30286 1.91665 4.15942L1.41177 3.30286C1.1085 3.48161 0.922363 3.8074 0.922363 4.15942V20.9829C0.922363 21.335 1.1085 21.6608 1.41177 21.8395L1.91665 20.9829C1.41177 21.8395 1.41202 21.8397 1.41229 21.8398L1.41292 21.8402L1.41448 21.8411L1.4188 21.8436L1.43227 21.8514L1.47824 21.8777C1.51725 21.8997 1.57288 21.9307 1.64437 21.9692C1.78732 22.0464 1.9939 22.1541 2.25803 22.2821C2.78592 22.538 3.54583 22.876 4.48892 23.2133C6.37049 23.8862 9.00759 24.5655 12 24.5655C14.9924 24.5655 17.6295 23.8862 19.511 23.2133C20.4541 22.876 21.214 22.538 21.7419 22.2821C22.0061 22.1541 22.2126 22.0464 22.3556 21.9692C22.4271 21.9307 22.4827 21.8997 22.5217 21.8777L22.5677 21.8514L22.5812 21.8436L22.5855 21.8411L22.587 21.8402L22.5877 21.8398C22.5879 21.8397 22.5882 21.8395 22.0833 20.9829L22.5882 21.8395C22.8915 21.6608 23.0776 21.335 23.0776 20.9829V4.15942C23.0776 3.8074 22.8915 3.48161 22.5882 3.30286L22.0833 4.15942C22.5882 3.30286 22.5879 3.30271 22.5877 3.30255L22.587 3.30218L22.5855 3.30127L22.5812 3.29874L22.5677 3.29092L22.5217 3.26469C22.4827 3.24265 22.4271 3.21171 22.3556 3.17314C22.2126 3.09602 22.0061 2.98831 21.7419 2.86029C21.214 2.60442 20.4541 2.26637 19.511 1.92909C17.6295 1.25619 14.9924 0.576904 12 0.576904ZM5.15856 3.80152C4.90222 3.8932 4.661 3.9848 4.43612 4.0743C4.64645 4.14348 4.87061 4.21405 5.10764 4.28467C6.85292 4.80467 9.27549 5.32142 12 5.32142C14.7244 5.32142 17.147 4.80467 18.8923 4.28467C19.1293 4.21405 19.3535 4.14348 19.5638 4.07429C19.339 3.9848 19.0977 3.8932 18.8414 3.80152C17.1044 3.18031 14.6998 2.56548 12 2.56548C9.30018 2.56548 6.8956 3.18031 5.15856 3.80152ZM2.91093 20.3868V5.64727C3.36204 5.81478 3.90992 6.00278 4.53982 6.19045C6.41314 6.7486 9.03223 7.30999 12 7.30999C14.9677 7.30999 17.5868 6.7486 19.4601 6.19045C20.09 6.00278 20.6379 5.81478 21.089 5.64727V20.3868C21.0237 20.4197 20.9521 20.4551 20.8746 20.4926C20.4013 20.7221 19.7076 21.0311 18.8414 21.3409C17.1044 21.9621 14.6998 22.5769 12 22.5769C9.30016 22.5769 6.89559 21.9621 5.15855 21.3409C4.29234 21.0311 3.5987 20.7221 3.12538 20.4926C3.04786 20.4551 2.97631 20.4197 2.91093 20.3868ZM6.79266 11.6729C6.90779 11.6438 7.10074 11.6098 7.22149 11.5973C7.34224 11.5848 7.54842 11.58 7.67967 11.5866C7.81092 11.5932 8.0078 11.6113 8.11717 11.6269C8.22655 11.6424 8.45028 11.6958 8.61433 11.7454C8.77841 11.795 9.07074 11.9029 9.26395 11.9852C9.4572 12.0674 9.62003 12.1387 9.62581 12.1437C9.63161 12.1486 9.48371 12.5215 9.29712 12.9724L8.95791 13.7923L8.74304 13.7001C8.62486 13.6494 8.39479 13.5619 8.23177 13.5056C8.06878 13.4493 7.84303 13.3904 7.73013 13.3747C7.61723 13.359 7.48415 13.3537 7.43443 13.3631C7.38469 13.3724 7.33699 13.3983 7.32843 13.4206C7.31912 13.4449 7.33808 13.4815 7.37578 13.5121C7.41039 13.5401 7.65995 13.6748 7.9304 13.8115C8.20083 13.9481 8.51381 14.1204 8.62592 14.1943C8.73802 14.2682 8.89624 14.3895 8.97754 14.4638C9.05883 14.5381 9.17592 14.6759 9.23773 14.77L9.35013 14.9412L9.36771 14.4953C9.37892 14.211 9.40549 13.9512 9.44105 13.7781C9.4717 13.6289 9.52794 13.4201 9.56599 13.3141C9.60406 13.2081 9.67417 13.0439 9.72179 12.9491C9.76941 12.8543 9.86195 12.704 9.92744 12.6152C9.99293 12.5264 10.1165 12.3852 10.2021 12.3015C10.2877 12.2178 10.4375 12.0962 10.5349 12.0313C10.6324 11.9664 10.7896 11.8782 10.8842 11.8352C10.9789 11.7923 11.1437 11.7325 11.2506 11.7024C11.3574 11.6722 11.5701 11.6303 11.7232 11.6094C11.8764 11.5885 12.1031 11.5712 12.227 11.5711C12.351 11.5709 12.5595 11.583 12.6904 11.598C12.8213 11.613 13.0182 11.6483 13.1279 11.6763C13.2376 11.7044 13.402 11.7578 13.4931 11.7949C13.5843 11.832 13.744 11.913 13.8481 11.9749C13.9521 12.0367 14.1259 12.1697 14.2341 12.2704C14.3424 12.3711 14.4841 12.528 14.5491 12.6191C14.6141 12.7101 14.7216 12.8995 14.7881 13.0398C14.8546 13.1802 14.943 13.4295 14.9845 13.594C15.026 13.7584 15.0744 14.0415 15.092 14.2231C15.1112 14.4203 15.117 14.6792 15.1065 14.866C15.0969 15.038 15.0711 15.2826 15.0492 15.4096C15.0273 15.5365 14.9804 15.7358 14.9449 15.8525C14.9094 15.9692 14.8323 16.1638 14.7736 16.2849C14.7149 16.4061 14.6288 16.5612 14.5823 16.6296C14.5357 16.698 14.4083 16.8465 14.299 16.9595L14.1004 17.165L14.154 17.2247L14.901 18.0589C15.2824 18.485 15.5944 18.8399 15.5944 18.8477C15.5944 18.8556 15.0187 18.8613 14.3151 18.8604L13.0357 18.8588L12.5763 18.2924L12.117 17.726L11.9135 17.7084C11.8015 17.6986 11.6026 17.6693 11.4713 17.6432C11.3401 17.617 11.1372 17.5586 11.0206 17.5135C10.9039 17.4683 10.7011 17.3616 10.5698 17.2765C10.4386 17.1913 10.2558 17.0453 10.1637 16.952C10.0716 16.8587 9.94285 16.7021 9.87765 16.604C9.81242 16.5059 9.71951 16.3384 9.67115 16.2319C9.62281 16.1253 9.57426 16.0142 9.56331 15.9851C9.54888 15.9467 9.52998 15.9969 9.4949 16.1666C9.46823 16.2956 9.40414 16.4901 9.35249 16.5989C9.30081 16.7077 9.20212 16.8685 9.13315 16.9563C9.06419 17.0441 8.92968 17.1746 8.83425 17.2463C8.73882 17.318 8.57652 17.4184 8.47359 17.4695C8.37066 17.5205 8.19606 17.5854 8.08554 17.6137C7.97505 17.6419 7.76097 17.6795 7.60981 17.6971C7.44568 17.7162 7.20643 17.7227 7.01587 17.7131C6.84036 17.7042 6.57031 17.6726 6.41578 17.6428C6.26122 17.613 6.06482 17.5645 5.97934 17.535C5.89385 17.5056 5.71384 17.4312 5.5793 17.3697L5.33473 17.2578L5.3339 16.284L5.33308 15.3103L5.39274 15.3336C5.42554 15.3464 5.63655 15.4361 5.86164 15.5329C6.0867 15.6297 6.41371 15.7574 6.58834 15.8169C6.85198 15.9066 6.9512 15.9271 7.17342 15.9378C7.33407 15.9456 7.47018 15.9393 7.51395 15.9222C7.55404 15.9065 7.58687 15.8764 7.58687 15.8555C7.58687 15.8346 7.55131 15.7875 7.50788 15.751C7.46442 15.7144 7.18962 15.5632 6.89721 15.4149C6.60478 15.2666 6.27344 15.0769 6.16086 14.9935C6.0483 14.91 5.90427 14.7828 5.84082 14.7107C5.7774 14.6387 5.67977 14.5022 5.62387 14.4074C5.56801 14.3126 5.49509 14.1575 5.46184 14.0627C5.40905 13.9121 5.40139 13.8385 5.40109 13.4794C5.4008 13.0999 5.40642 13.0516 5.47449 12.8485C5.51917 12.7153 5.60287 12.5483 5.68695 12.4247C5.76639 12.3079 5.90183 12.1568 6.00376 12.0712C6.1017 11.9889 6.2722 11.8776 6.3826 11.8237C6.49304 11.7699 6.67756 11.702 6.79266 11.6729ZM15.3028 17.6423V14.6461V11.6499H16.2838H17.2649V13.7711V15.8923H18.299H19.3331V16.7673V17.6423H17.3179H15.3028ZM12.802 13.5373C12.7555 13.4923 12.6698 13.4356 12.6115 13.4112C12.5524 13.3865 12.4114 13.3629 12.2933 13.3579C12.1766 13.3529 12.0454 13.3588 12.0016 13.371C11.9579 13.3832 11.8916 13.4054 11.8543 13.4204C11.817 13.4354 11.7478 13.4802 11.7005 13.52C11.6533 13.5598 11.5863 13.6481 11.5518 13.7163C11.5172 13.7845 11.4694 13.9112 11.4454 13.9979C11.4207 14.0873 11.3954 14.3105 11.3869 14.5135C11.3779 14.73 11.384 14.9483 11.4024 15.0661C11.4191 15.1731 11.4564 15.3282 11.4852 15.4108C11.5141 15.4933 11.5705 15.6086 11.6106 15.6669C11.6591 15.7375 11.7363 15.7994 11.8415 15.8519C11.982 15.9221 12.0264 15.9309 12.2399 15.9309C12.4501 15.9309 12.4996 15.9214 12.634 15.8556C12.7334 15.807 12.8152 15.7425 12.8656 15.6729C12.9084 15.6137 12.9667 15.4901 12.9952 15.3981C13.0236 15.3061 13.0608 15.1261 13.078 14.9981C13.0963 14.8612 13.1025 14.6453 13.0931 14.4737C13.0843 14.3133 13.0587 14.1124 13.0363 14.0272C13.0138 13.9421 12.9709 13.8154 12.9409 13.7457C12.9109 13.676 12.8484 13.5822 12.802 13.5373Z" fill="black"/>
</svg>
