<svg width="24" height="25" viewBox="0 0 24 25" fill="none" xmlns="http://www.w3.org/2000/svg">
<path fill-rule="evenodd" clip-rule="evenodd" d="M3.77143 0.285767C1.68852 0.285767 0 1.97429 0 4.05719V7.81592V20.5143C0 22.5972 1.68852 24.2858 3.77143 24.2858H20.2286C22.3115 24.2858 24 22.5972 24 20.5143V7.81592V4.05719C24 1.97429 22.3115 0.285767 20.2286 0.285767H3.77143ZM2.05714 4.05719C2.05714 3.11042 2.82465 2.34291 3.77143 2.34291H20.2286C21.1753 2.34291 21.9429 3.11042 21.9429 4.05719V7.81592V20.5143C21.9429 21.4611 21.1753 22.2286 20.2286 22.2286H3.77143C2.82466 22.2286 2.05714 21.4611 2.05714 20.5143V7.81592V4.05719ZM13.9832 6.7609C13.8215 6.35649 13.4225 6.09781 12.9873 6.11514C12.5521 6.13247 12.175 6.42204 12.0459 6.83803L9.8741 13.836L9.19688 11.9398C9.05068 11.5304 8.66292 11.2572 8.22823 11.2572H4.11395C3.54589 11.2572 3.08538 11.7177 3.08538 12.2858C3.08538 12.8538 3.54589 13.3143 4.11395 13.3143H7.50338L8.97387 17.4317C9.12275 17.8486 9.52163 18.1234 9.96417 18.1141C10.4067 18.1048 10.7937 17.8134 10.9249 17.3906L13.1507 10.2185L14.1304 12.6678C14.2866 13.0583 14.6648 13.3143 15.0854 13.3143H19.8854C20.4534 13.3143 20.9139 12.8538 20.9139 12.2858C20.9139 11.7177 20.4534 11.2572 19.8854 11.2572H15.7818L13.9832 6.7609Z" fill="black"/>
</svg>
