<svg width="24" height="25" viewBox="0 0 24 25" fill="none" xmlns="http://www.w3.org/2000/svg">
<path fill-rule="evenodd" clip-rule="evenodd" d="M8.24997 11.1811C9.29142 11.1811 10.1357 10.3368 10.1357 9.29538C10.1357 8.25393 9.29142 7.40967 8.24997 7.40967C7.20852 7.40967 6.36426 8.25393 6.36426 9.29538C6.36426 10.3368 7.20852 11.1811 8.24997 11.1811ZM17.6106 9.29538C17.6106 10.3368 16.7663 11.1811 15.7249 11.1811C14.6834 11.1811 13.8391 10.3368 13.8391 9.29538C13.8391 8.25393 14.6834 7.40967 15.7249 7.40967C16.7663 7.40967 17.6106 8.25393 17.6106 9.29538ZM8.24997 18.2998C9.29142 18.2998 10.1357 17.4556 10.1357 16.4141C10.1357 15.3727 9.29142 14.5284 8.24997 14.5284C7.20852 14.5284 6.36426 15.3727 6.36426 16.4141C6.36426 17.4556 7.20852 18.2998 8.24997 18.2998Z" fill="black"/>
</svg>
