<svg width="24" height="25" viewBox="0 0 24 25" fill="none" xmlns="http://www.w3.org/2000/svg">
<path fill-rule="evenodd" clip-rule="evenodd" d="M20.0179 1.79287C20.0179 1.24374 19.5727 0.798584 19.0236 0.798584C18.4745 0.798584 18.0293 1.24374 18.0293 1.79287L18.0293 10.6543L15.7429 8.36786C15.3546 7.97957 14.7251 7.97957 14.3368 8.36786C13.9485 8.75616 13.9485 9.3857 14.3368 9.774L18.3206 13.7578C18.507 13.9442 18.7599 14.049 19.0236 14.049C19.2873 14.049 19.5402 13.9442 19.7267 13.7578L23.7105 9.774C24.0988 9.3857 24.0988 8.75616 23.7105 8.36786C23.3222 7.97957 22.6926 7.97957 22.3043 8.36786L20.0179 10.6543L20.0179 1.79287ZM1.98711 4.77069C1.98711 4.58893 2.13445 4.44159 2.31621 4.44159H11.5799H14.8884C15.4375 4.44159 15.8827 3.99643 15.8827 3.44731C15.8827 2.89818 15.4375 2.45302 14.8884 2.45302H11.5799H2.31621C1.03619 2.45302 -0.00146484 3.49068 -0.00146484 4.77069V18.0045C-0.00146484 19.2846 1.03619 20.3222 2.31621 20.3222H10.5856V21.973H6.94806C6.39893 21.973 5.95377 22.4181 5.95377 22.9672C5.95377 23.5164 6.39893 23.9615 6.94806 23.9615H11.5799H16.2118C16.7609 23.9615 17.206 23.5164 17.206 22.9672C17.206 22.4181 16.7609 21.973 16.2118 21.973H12.5742V20.3222H20.8436C22.1236 20.3222 23.1613 19.2846 23.1613 18.0045V15.6886C23.1613 15.1395 22.7161 14.6943 22.167 14.6943C21.6179 14.6943 21.1727 15.1395 21.1727 15.6886V18.0045C21.1727 18.1863 21.0254 18.3336 20.8436 18.3336H11.5799H2.31621C2.13445 18.3336 1.98711 18.1863 1.98711 18.0045V4.77069Z" fill="black"/>
</svg>
