<svg width="24" height="25" viewBox="0 0 24 25" fill="none" xmlns="http://www.w3.org/2000/svg">
<path fill-rule="evenodd" clip-rule="evenodd" d="M0 4.05683C0 1.97393 1.68853 0.2854 3.77143 0.2854H5.82857H18.8571C20.94 0.2854 22.6286 1.97393 22.6286 4.05683V5.0854V6.11397V9.19968C22.6286 9.76775 22.1681 10.2283 21.6 10.2283C21.0319 10.2283 20.5714 9.76775 20.5714 9.19968V7.14254H6.85714V20.514H13.0286C13.5966 20.514 14.0571 20.9745 14.0571 21.5425C14.0571 22.1106 13.5966 22.5711 13.0286 22.5711H5.82857H4.8H3.77143C1.68852 22.5711 0 20.8826 0 18.7997V6.11397V4.05683ZM4.8 20.514H3.77143C2.82466 20.514 2.05714 19.7465 2.05714 18.7997V7.14254H4.8V20.514ZM6.85714 5.0854H20.5714V4.05683C20.5714 3.11005 19.8039 2.34254 18.8571 2.34254H6.85714V5.0854ZM4.8 2.34254V5.0854H2.05714V4.05683C2.05714 3.11006 2.82465 2.34254 3.77143 2.34254H4.8ZM20.2283 16.0565C20.2283 16.8139 19.6143 17.4279 18.8569 17.4279C18.0995 17.4279 17.4855 16.8139 17.4855 16.0565C17.4855 15.2991 18.0995 14.6851 18.8569 14.6851C19.6143 14.6851 20.2283 15.2991 20.2283 16.0565ZM15.7714 16.0363C15.7714 14.8964 16.1428 14.1668 16.6405 13.7136C17.1538 13.2461 17.9144 12.971 18.8571 12.971C19.7999 12.971 20.5605 13.2461 21.0738 13.7136C21.5714 14.1668 21.9429 14.8964 21.9429 16.0363C21.9429 16.5 21.7615 17.1319 21.4007 17.8864C21.0487 18.6223 20.5692 19.3867 20.0735 20.0903C19.642 20.7027 19.2087 21.254 18.8571 21.6811C18.5056 21.254 18.0723 20.7027 17.6408 20.0903C17.145 19.3867 16.6655 18.6223 16.3136 17.8864C15.9527 17.1319 15.7714 16.5 15.7714 16.0363ZM18.1011 23.9541C18.1012 23.9543 18.1013 23.9544 18.8571 23.2567L18.1013 23.9544C18.2961 24.1653 18.5701 24.2853 18.8571 24.2853C19.1442 24.2853 19.4182 24.1653 19.6129 23.9544L18.8571 23.2567C19.6129 23.9544 19.6131 23.9543 19.6132 23.9541L19.6135 23.9537L19.6145 23.9527L19.6176 23.9493L19.6282 23.9378L19.6662 23.8959C19.6988 23.8599 19.7456 23.8078 19.8046 23.741C19.9225 23.6077 20.0893 23.4157 20.2889 23.1771C20.687 22.7012 21.22 22.0347 21.7551 21.2752C22.2879 20.5191 22.837 19.6511 23.2565 18.7741C23.667 17.9157 24 16.9542 24 16.0363C24 14.4128 23.4504 13.0955 22.4589 12.1926C21.4832 11.304 20.1866 10.9139 18.8571 10.9139C17.5276 10.9139 16.2311 11.304 15.2553 12.1926C14.2639 13.0955 13.7143 14.4128 13.7143 16.0363C13.7143 16.9542 14.0473 17.9157 14.4578 18.7741C14.8773 19.6511 15.4264 20.5191 15.9592 21.2752C16.4943 22.0347 17.0272 22.7012 17.4254 23.1771C17.6249 23.4157 17.7918 23.6077 17.9097 23.741C17.9687 23.8078 18.0155 23.8599 18.0481 23.8959L18.0861 23.9378L18.0967 23.9493L18.0997 23.9527L18.1007 23.9537L18.1011 23.9541Z" fill="black"/>
</svg>
