<svg xmlns="http://www.w3.org/2000/svg" width="24" height="24" fill="currentColor" viewBox="0 0 24 24">
  <path fill-rule="evenodd" d="M0 3.772A3.771 3.771 0 0 1 3.771.001h15.086a3.771 3.771 0 0 1 3.772 3.771v5.143a1.029 1.029 0 1 1-2.058 0V6.858H6.857V20.23h6.172a1.029 1.029 0 0 1 0 2.057H3.77A3.771 3.771 0 0 1 0 18.515V3.772ZM4.8 20.23H3.771a1.714 1.714 0 0 1-1.714-1.714V6.858H4.8V20.23ZM6.857 4.802h13.714v-1.03c0-.946-.767-1.714-1.714-1.714h-12v2.743ZM4.8 2.058v2.743H2.057V3.772c0-.946.768-1.714 1.714-1.714H4.8Zm15.429 13.715a1.371 1.371 0 1 1-2.743 0 1.371 1.371 0 0 1 2.743 0Zm-4.458-.02c0-1.14.372-1.87.87-2.324.513-.467 1.273-.742 2.216-.742.943 0 1.704.275 2.217.742.497.454.869 1.183.869 2.323 0 .464-.181 1.096-.542 1.85-.352.736-.832 1.5-1.328 2.204a27.097 27.097 0 0 1-1.216 1.59 27.143 27.143 0 0 1-1.216-1.59c-.496-.704-.975-1.468-1.327-2.204-.361-.754-.543-1.386-.543-1.85Zm2.33 7.917.756-.698-.756.698a1.029 1.029 0 0 0 1.512 0l-.756-.698.756.698.002-.002.003-.003.01-.011.038-.042.139-.155a29.499 29.499 0 0 0 1.95-2.466c.533-.756 1.082-1.624 1.501-2.501.411-.859.744-1.82.744-2.738 0-1.623-.55-2.94-1.541-3.844-.976-.888-2.272-1.278-3.602-1.278s-2.626.39-3.602 1.278c-.991.903-1.54 2.22-1.54 3.844 0 .918.332 1.88.743 2.738.42.877.968 1.745 1.501 2.501a29.463 29.463 0 0 0 2.09 2.62l.037.043.01.011.004.004h.001Z" clip-rule="evenodd"/>
</svg>
