<svg width="24" height="25" viewBox="0 0 24 25" fill="none" xmlns="http://www.w3.org/2000/svg">
<path d="M9.21829 3.04203C9.41919 3.04203 9.57885 3.15575 9.66482 3.34044C9.7252 3.46981 9.75154 3.63425 9.75285 3.84078V18.6266C9.75163 18.9004 9.72304 19.1143 9.66032 19.2754C9.57341 19.4991 9.40757 19.6434 9.18126 19.6472H9.17235L7.4674 19.645C7.23697 19.645 7.07112 19.4975 6.986 19.2699C6.92609 19.11 6.89881 18.8974 6.89768 18.6245V6.27679L6.43859 6.39304L6.2554 6.43898L6.20187 6.45211L6.17468 6.45839L6.16193 6.46101L6.15724 6.46176L6.15481 6.46204H6.15227L6.15199 6.46186L6.1519 6.46157V6.46129L6.15227 6.46092L6.15518 6.45811C6.15631 6.45698 6.15677 6.45595 6.15499 6.45529L6.15396 6.45492L6.14862 6.4552C5.95521 6.46242 5.79424 6.35901 5.70621 6.18173C5.6433 6.05517 5.6163 5.89335 5.61508 5.6886V4.60232C5.61508 4.4105 5.64602 4.24944 5.71596 4.1181C5.79565 3.96828 5.92343 3.86544 6.08412 3.82372L6.09377 3.82128L6.10493 3.81866L9.053 3.05994C9.09844 3.04919 9.14489 3.04331 9.19157 3.0424L9.20535 3.04203H9.21829ZM14.1414 2.60693C14.3526 2.60693 14.5209 2.72534 14.6133 2.92043C14.6801 3.06153 14.7099 3.24312 14.7111 3.4715V7.82836L14.7112 7.83867H15.9793C16.1784 7.83867 16.3421 7.94142 16.4384 8.11664L16.4429 8.12508L16.4473 8.13352C16.5169 8.26974 16.5476 8.44355 16.549 8.66068V9.27877C16.549 9.49965 16.5183 9.67627 16.4461 9.81427C16.352 9.99399 16.1883 10.1002 15.9886 10.1034H14.7092V15.8405L14.7095 15.8852L14.71 15.9292L14.7107 15.9726L14.7112 15.9942L14.7125 16.0473L14.7141 16.0993L14.7161 16.1505L14.7184 16.2006L14.7194 16.2205L14.7215 16.2597L14.724 16.2981L14.7265 16.3362L14.7293 16.3735L14.7307 16.3919L14.7338 16.4284L14.7354 16.4463L14.7371 16.4641L14.7406 16.4993L14.7443 16.5338L14.7462 16.5509L14.7502 16.5846C14.7587 16.6545 14.7688 16.7204 14.78 16.7822L14.7838 16.8026L14.7866 16.8171L14.792 16.8441L14.7976 16.8703L14.8004 16.8833L14.8061 16.9087L14.812 16.9335L14.815 16.9457L14.8211 16.9695C14.829 16.9998 14.8372 17.0285 14.8457 17.0555L14.853 17.0783C14.8888 17.1867 14.929 17.2673 14.9716 17.3196C15.0505 17.4169 15.12 17.4756 15.1734 17.4989L15.1896 17.5056C15.2528 17.5308 15.3403 17.5451 15.4528 17.5461H16.2569C16.4462 17.5461 16.6098 17.6214 16.7172 17.7695C16.8064 17.8924 16.8456 18.0485 16.8473 18.2354L16.8474 18.2485V18.9178C16.8474 19.1247 16.8073 19.2953 16.7136 19.4281C16.6049 19.5823 16.4384 19.663 16.2449 19.6658H16.2346L15.0987 19.6679C14.7838 19.6679 14.509 19.6458 14.2699 19.6007C14.0142 19.5524 13.7542 19.4463 13.4871 19.2837C13.209 19.1144 12.9809 18.8822 12.8035 18.5896C12.631 18.3053 12.4963 17.9218 12.3947 17.438C12.2957 16.9669 12.2452 16.418 12.2434 15.793V10.1034H11.7192C11.5216 10.1034 11.3582 10.0033 11.2614 9.83087L11.2569 9.82262L11.2524 9.81418C11.1819 9.67946 11.1509 9.5078 11.1494 9.29415V8.67586C11.1494 8.45171 11.1799 8.27283 11.2512 8.13352C11.3445 7.95089 11.5085 7.84214 11.7097 7.83886L11.7192 7.83877H12.2433V7.8217L12.4447 3.47412L12.4458 3.45462C12.4601 3.2299 12.4965 3.053 12.563 2.91715C12.6553 2.72872 12.8134 2.61059 13.0152 2.60693H13.0246L14.1414 2.60693ZM23.5192 7.83464C23.7067 7.83464 23.8523 7.94555 23.9276 8.11683C23.9786 8.23299 24 8.37839 24 8.5598C24 8.56646 24 8.57321 23.9998 8.58014L23.9996 8.59055L23.9989 8.61211L23.9984 8.62308L23.9971 8.64568L23.9963 8.6573L23.9945 8.68111C23.993 8.70052 23.991 8.72068 23.9888 8.74168L23.987 8.75761L23.9839 8.7848L23.9803 8.81293L23.9765 8.84208L23.9734 8.86421L21.9852 19.2156L21.9805 19.241L21.9707 19.295L21.9606 19.3484L21.9456 19.4275L21.9355 19.4797L21.9202 19.5569L21.91 19.6077L21.8997 19.6581L21.8894 19.7079L21.8791 19.7573L21.8687 19.806L21.8529 19.8783L21.8424 19.9258L21.8318 19.9729L21.8211 20.0194L21.8105 20.0653L21.7998 20.1109L21.789 20.1559L21.7781 20.2003L21.7672 20.2442L21.7563 20.2877L21.7453 20.3305L21.7342 20.373L21.7232 20.4149L21.712 20.4563L21.7009 20.4971L21.6896 20.5374L21.6784 20.5774L21.6671 20.6168L21.6557 20.6555L21.6442 20.6938L21.6327 20.7316L21.6212 20.7689L21.6096 20.8057L21.598 20.8419L21.5863 20.8776L21.5746 20.9129L21.5687 20.9303L21.5569 20.9648L21.551 20.9818L21.5451 20.9987L21.5301 21.0404L21.5151 21.0814L21.5091 21.0975L21.4971 21.1294L21.485 21.1608L21.4687 21.2019L21.4545 21.2368L21.4398 21.2724C21.4137 21.3343 21.3873 21.3938 21.3604 21.4509L21.3487 21.4753L21.3332 21.5072L21.3175 21.5387C21.1447 21.8822 20.9511 22.1321 20.7287 22.2891C20.4515 22.4863 20.0977 22.5872 19.6701 22.5993L19.6509 22.5998H19.5328C18.8625 22.5998 18.3727 22.4158 18.0906 22.0269L18.0822 22.0151L18.0749 22.0047L18.0711 22C17.9908 21.898 17.951 21.7576 17.9354 21.5613L17.9344 21.5481L17.9327 21.5229L17.9318 21.51L17.9312 21.4971L17.9299 21.4707L17.9294 21.4573L17.9289 21.4437L17.928 21.409L17.9273 21.3734L17.9271 21.359L17.9269 21.3294V21.297L17.927 21.2791L17.9274 21.2437L17.9277 21.2262L17.9281 21.209L17.9289 21.1749L17.9294 21.1581L17.93 21.1415L17.9314 21.1087L17.9329 21.0766L17.9348 21.0451L17.937 21.0142L17.9381 20.9992L17.9406 20.9692L17.9434 20.94C17.9566 20.8098 17.9778 20.6989 18.0079 20.6058C18.0859 20.3643 18.2413 20.2022 18.4759 20.1983H18.4843L18.4935 20.1984L18.5011 20.1988L18.5089 20.1994L18.5171 20.2002L18.5282 20.2016L18.5402 20.2036L18.5563 20.2067L18.5713 20.2099L18.5846 20.213L18.6108 20.2195L18.6459 20.2287L18.6933 20.2418L18.7433 20.2561L18.8096 20.2754L18.9684 20.322L19.0134 20.3357L19.0538 20.3477L19.0923 20.3588L19.1286 20.3692L19.163 20.3785L19.1873 20.3851L19.2104 20.3912L19.2393 20.3985L19.2658 20.405L19.2842 20.4093L19.3011 20.413L19.3167 20.4164L19.3354 20.4202L19.3475 20.4223L19.3583 20.424L19.3647 20.4249L19.3703 20.4255L19.3753 20.426L19.3775 20.4261L19.3815 20.4263C19.3841 20.4262 19.3867 20.4256 19.389 20.4244C19.3972 20.4207 19.4083 20.4132 19.4222 20.4003C19.4655 20.3597 19.514 20.2858 19.5626 20.1783C19.6244 20.0417 19.6696 19.8652 19.697 19.6497L19.6992 19.6312L19.703 19.5989L19.7064 19.5661L19.7081 19.5494L19.7097 19.5326L19.7126 19.4987C19.7222 19.3781 19.7272 19.2573 19.7274 19.1363L19.7275 19.1084L19.7273 19.0995L19.727 19.0926L19.726 19.0807L19.7243 19.0624L19.7218 19.0409L19.7186 19.0165L19.7167 19.0031L19.7125 18.9742L19.7075 18.9424L19.7004 18.8983L19.6922 18.8498L19.6828 18.7969L19.6725 18.7394L19.6584 18.6646L19.643 18.5836L19.6231 18.4812L19.5978 18.354L19.5734 18.2339L19.543 18.0867L19.5109 17.9334L17.3205 8.82952L17.3167 8.80224L17.3132 8.77627L17.31 8.75124L17.307 8.72715L17.3037 8.69818L17.3009 8.67052L17.2998 8.65983L17.298 8.63902L17.2965 8.61886L17.2958 8.60911L17.2946 8.59008L17.2938 8.5718L17.2935 8.56289L17.293 8.54546L17.2929 8.53702V8.51358C17.294 8.35196 17.3131 8.22164 17.3572 8.11589C17.4259 7.95108 17.5623 7.84027 17.7423 7.8368L17.7508 7.8367H19.1017C19.2827 7.8367 19.443 7.9028 19.5668 8.03039C19.6808 8.14777 19.7488 8.32496 19.793 8.57189L19.7956 8.58596L19.7997 8.61052L20.9882 14.9009L21.9163 8.6543L21.9178 8.64239C21.9516 8.39227 22.0086 8.20636 22.1032 8.07802L22.109 8.07042L22.1147 8.06302C22.2293 7.91789 22.3899 7.83755 22.5727 7.83464H22.5828H23.5192ZM3.60517 3.06069C3.80608 3.06069 3.96573 3.1744 4.0518 3.35909C4.11208 3.48847 4.13852 3.65291 4.13974 3.85944V18.6277C4.13974 18.9099 4.11124 19.1295 4.0473 19.2941C3.96039 19.5177 3.79445 19.6621 3.56842 19.6658H1.85241C1.62188 19.6658 1.45604 19.5182 1.37091 19.2907C1.31101 19.1307 1.28372 18.9181 1.2826 18.6452V6.29751L0.953254 6.38076L0.693471 6.44573L0.631878 6.46054L0.60469 6.46682L0.584065 6.47114L0.572346 6.47301L0.56269 6.47395L0.551252 6.47489C0.34997 6.48942 0.181876 6.38507 0.0911254 6.20245C0.0283126 6.07588 0.00131251 5.91407 0 5.70932V4.62304C0 4.43122 0.0309376 4.27016 0.100875 4.13881C0.180563 3.989 0.308345 3.88616 0.469033 3.84444L0.478689 3.842L0.489939 3.83938L3.43998 3.07859C3.48541 3.06781 3.53186 3.06191 3.57855 3.06097L3.59233 3.06069H3.60517Z" fill="black"/>
</svg>
