<svg width="25" height="24" viewBox="0 0 25 24" fill="none" xmlns="http://www.w3.org/2000/svg">
<path fill-rule="evenodd" clip-rule="evenodd" d="M1.31486 4.95674C1.40418 4.48778 1.81419 4.1485 2.29158 4.1485H3.58888H20.4537H21.751C22.2284 4.1485 22.6384 4.48778 22.7278 4.95674L24.0251 11.7675C24.0367 11.8288 24.0426 11.8911 24.0426 11.9536V17.4671C24.0426 18.0162 23.5975 18.4614 23.0483 18.4614H0.994285C0.445157 18.4614 0 18.0162 0 17.4671V11.9536C0 11.8911 0.00587952 11.8288 0.0175607 11.7675L1.31486 4.95674ZM3.11436 6.13707L2.19584 10.9593H6.90245C7.26437 10.9593 7.6182 11.0664 7.91933 11.2672C10.4033 12.9231 13.6393 12.9231 16.1233 11.2672C16.4227 11.0675 16.7746 10.9593 17.1385 10.9593H17.1433H17.1482H17.1531H17.158H17.163H17.168H17.1731H17.1782H17.1833H17.1885H17.1937H17.199H17.2043H17.2097H17.2151H17.2205H17.226H17.2315H17.237H17.2426H17.2483H17.254H17.2597H17.2654H17.2712H17.2771H17.2829H17.2889H17.2948H17.3008H17.3068H17.3129H17.319H17.3252H17.3314H17.3376H17.3439H17.3502H17.3565H17.3629H17.3693H17.3758H17.3823H17.3888H17.3954H17.402H17.4087H17.4154H17.4221H17.4289H17.4357H17.4425H17.4494H17.4563H17.4633H17.4703H17.4773H17.4843H17.4914H17.4986H17.5058H17.513H17.5202H17.5275H17.5348H17.5422H17.5496H17.557H17.5645H17.572H17.5795H17.5871H17.5947H17.6023H17.61H17.6177H17.6255H17.6333H17.6411H17.6489H17.6568H17.6647H17.6727H17.6807H17.6887H17.6968H17.7049H17.713H17.7212H17.7294H17.7376H17.7459H17.7542H17.7625H17.7709H17.7793H17.7877H17.7962H17.8047H17.8132H17.8218H17.8304H17.839H17.8477H17.8564H17.8651H17.8738H17.8826H17.8915H17.9003H17.9092H17.9181H17.9271H17.9361H17.9451H17.9541H17.9632H17.9723H17.9815H17.9906H17.9998H18.0091H18.0184H18.0277H18.037H18.0463H18.0557H18.0651H18.0746H18.0841H18.0936H18.1031H18.1127H18.1223H18.1319H18.1416H18.1513H18.161H18.1707H18.1805H18.1903H18.2002H18.21H18.2199H18.2299H18.2398H18.2498H18.2598H18.2698H18.2799H18.29H18.3001H18.3103H18.3204H18.3307H18.3409H18.3511H18.3614H18.3718H18.3821H18.3925H18.4029H18.4133H18.4238H18.4342H18.4447H18.4553H18.4658H18.4764H18.487H18.4977H18.5083H18.519H18.5298H18.5405H18.5513H18.5621H18.5729H18.5837H18.5946H18.6055H18.6164H18.6274H18.6384H18.6494H18.6604H18.6715H18.6825H18.6936H18.7048H18.7159H18.7271H18.7383H18.7495H18.7608H18.772H18.7833H18.7946H18.806H18.8173H18.8287H18.8402H18.8516H18.8631H18.8745H18.886H18.8976H18.9091H18.9207H18.9323H18.9439H18.9556H18.9672H18.9789H18.9906H19.0024H19.0141H19.0259H19.0377H19.0495H19.0614H19.0732H19.0851H19.097H19.109H19.1209H19.1329H19.1449H19.1569H19.1689H19.181H19.1931H19.2052H19.2173H19.2294H19.2416H19.2538H19.266H19.2782H19.2904H19.3027H19.315H19.3273H19.3396H19.3519H19.3643H19.3767H19.3891H19.4015H19.4139H19.4264H19.4389H19.4514H19.4639H19.4764H19.4889H19.5015H19.5141H19.5267H19.5393H19.552H19.5646H19.5773H19.59H19.6027H19.6154H19.6282H19.6409H19.6537H19.6665H19.6793H19.6922H19.705H19.7179H19.7308H19.7437H19.7566H19.7695H19.7825H19.7954H19.8084H19.8214H19.8344H19.8475H19.8605H19.8736H19.8866H19.8997H19.9128H19.926H19.9391H19.9523H19.9654H19.9786H19.9918H20.005H20.0183H20.0315H20.0448H20.058H20.0713H20.0846H20.0979H20.1113H20.1246H20.138H20.1513H20.1647H20.1781H20.1915H20.205H20.2184H20.2318H20.2453H20.2588H20.2723H20.2858H20.2993H20.3128H20.3264H20.3399H20.3535H20.3671H20.3807H20.3943H20.4079H20.4215H20.4351H20.4488H20.4625H20.4761H20.4898H20.5035H20.5172H20.5309H20.5447H20.5584H20.5722H20.5859H20.5997H20.6135H20.6273H20.6411H20.6549H20.6687H20.6826H20.6964H20.7103H20.7241H20.738H20.7519H20.7658H20.7797H20.7936H20.8075H20.8215H20.8354H20.8494H20.8633H20.8773H20.8913H20.9053H20.9193H20.9333H20.9473H20.9613H20.9753H20.9894H21.0034H21.0175H21.0315H21.0456H21.0597H21.0737H21.0878H21.1019H21.116H21.1302H21.1443H21.1584H21.1725H21.1867H21.2008H21.215H21.2291H21.2433H21.2575H21.2717H21.2859H21.3H21.3142H21.3284H21.3427H21.3569H21.3711H21.3853H21.3996H21.4138H21.428H21.4423H21.4565H21.4708H21.4851H21.4993H21.5136H21.5279H21.5422H21.5564H21.5707H21.585H21.5993H21.6136H21.6279H21.6422H21.6566H21.6709H21.6852H21.6995H21.7138H21.7282H21.7425H21.7569H21.7712H21.7855H21.7999H21.8142H21.8286H21.8429H21.8468L20.9283 6.13707H20.4537H3.58888H3.11436ZM22.0541 12.9478H22.0441H22.0297H22.0154H22.001H21.9866H21.9722H21.9579H21.9435H21.9291H21.9148H21.9004H21.886H21.8717H21.8573H21.8429H21.8286H21.8142H21.7999H21.7855H21.7712H21.7569H21.7425H21.7282H21.7138H21.6995H21.6852H21.6709H21.6566H21.6422H21.6279H21.6136H21.5993H21.585H21.5707H21.5564H21.5422H21.5279H21.5136H21.4993H21.4851H21.4708H21.4565H21.4423H21.428H21.4138H21.3996H21.3853H21.3711H21.3569H21.3427H21.3284H21.3142H21.3H21.2859H21.2717H21.2575H21.2433H21.2291H21.215H21.2008H21.1867H21.1725H21.1584H21.1443H21.1302H21.116H21.1019H21.0878H21.0737H21.0597H21.0456H21.0315H21.0175H21.0034H20.9894H20.9753H20.9613H20.9473H20.9333H20.9193H20.9053H20.8913H20.8773H20.8633H20.8494H20.8354H20.8215H20.8075H20.7936H20.7797H20.7658H20.7519H20.738H20.7241H20.7103H20.6964H20.6826H20.6687H20.6549H20.6411H20.6273H20.6135H20.5997H20.5859H20.5722H20.5584H20.5447H20.5309H20.5172H20.5035H20.4898H20.4761H20.4625H20.4488H20.4351H20.4215H20.4079H20.3943H20.3807H20.3671H20.3535H20.3399H20.3264H20.3128H20.2993H20.2858H20.2723H20.2588H20.2453H20.2318H20.2184H20.205H20.1915H20.1781H20.1647H20.1513H20.138H20.1246H20.1113H20.0979H20.0846H20.0713H20.058H20.0448H20.0315H20.0183H20.005H19.9918H19.9786H19.9654H19.9523H19.9391H19.926H19.9128H19.8997H19.8866H19.8736H19.8605H19.8475H19.8344H19.8214H19.8084H19.7954H19.7825H19.7695H19.7566H19.7437H19.7308H19.7179H19.705H19.6922H19.6793H19.6665H19.6537H19.6409H19.6282H19.6154H19.6027H19.59H19.5773H19.5646H19.552H19.5393H19.5267H19.5141H19.5015H19.4889H19.4764H19.4639H19.4514H19.4389H19.4264H19.4139H19.4015H19.3891H19.3767H19.3643H19.3519H19.3396H19.3273H19.315H19.3027H19.2904H19.2782H19.266H19.2538H19.2416H19.2294H19.2173H19.2052H19.1931H19.181H19.1689H19.1569H19.1449H19.1329H19.1209H19.109H19.097H19.0851H19.0732H19.0614H19.0495H19.0377H19.0259H19.0141H19.0024H18.9906H18.9789H18.9672H18.9556H18.9439H18.9323H18.9207H18.9091H18.8976H18.886H18.8745H18.8631H18.8516H18.8402H18.8287H18.8173H18.806H18.7946H18.7833H18.772H18.7608H18.7495H18.7383H18.7271H18.7159H18.7048H18.6936H18.6825H18.6715H18.6604H18.6494H18.6384H18.6274H18.6164H18.6055H18.5946H18.5837H18.5729H18.5621H18.5513H18.5405H18.5298H18.519H18.5083H18.4977H18.487H18.4764H18.4658H18.4553H18.4447H18.4342H18.4238H18.4133H18.4029H18.3925H18.3821H18.3718H18.3614H18.3511H18.3409H18.3307H18.3204H18.3103H18.3001H18.29H18.2799H18.2698H18.2598H18.2498H18.2398H18.2299H18.2199H18.21H18.2002H18.1903H18.1805H18.1707H18.161H18.1513H18.1416H18.1319H18.1223H18.1127H18.1031H18.0936H18.0841H18.0746H18.0651H18.0557H18.0463H18.037H18.0277H18.0184H18.0091H17.9998H17.9906H17.9815H17.9723H17.9632H17.9541H17.9451H17.9361H17.9271H17.9181H17.9092H17.9003H17.8915H17.8826H17.8738H17.8651H17.8564H17.8477H17.839H17.8304H17.8218H17.8132H17.8047H17.7962H17.7877H17.7793H17.7709H17.7625H17.7542H17.7459H17.7376H17.7294H17.7212H17.713H17.7049H17.6968H17.6887H17.6807H17.6727H17.6647H17.6568H17.6489H17.6411H17.6333H17.6255H17.6177H17.61H17.6023H17.5947H17.5871H17.5795H17.572H17.5645H17.557H17.5496H17.5422H17.5348H17.5275H17.5202H17.513H17.5058H17.4986H17.4914H17.4843H17.4773H17.4703H17.4633H17.4563H17.4494H17.4425H17.4357H17.4289H17.4221H17.4154H17.4087H17.402H17.3954H17.3888H17.3823H17.3758H17.3693H17.3629H17.3565H17.3502H17.3439H17.3376H17.3314H17.3252H17.319H17.3129H17.3068H17.3008H17.2948H17.2889H17.2829H17.2771H17.2712H17.2654H17.2597H17.254H17.2483H17.2426H17.237H17.2315H17.226H17.2205H17.2151H17.2097H17.2043H17.199H17.1937H17.1885H17.187C14.0535 15.0143 9.98918 15.0143 6.85562 12.9478H1.98857V16.4728H22.0541V12.9478Z" fill="black"/>
</svg>
