<svg width="25" height="25" viewBox="0 0 25 25" fill="none" xmlns="http://www.w3.org/2000/svg">
<path fill-rule="evenodd" clip-rule="evenodd" d="M19.5429 0.143188C17.46 0.143188 15.7714 1.83171 15.7714 3.91462V5.06024C14.9724 5.34264 14.4 6.10464 14.4 7.00033V10.4289C14.4 11.565 15.321 12.486 16.4571 12.486H22.6286C23.7647 12.486 24.6857 11.565 24.6857 10.4289V7.00033C24.6857 6.10464 24.1133 5.34264 23.3143 5.06024V3.91462C23.3143 1.83172 21.6258 0.143188 19.5429 0.143188ZM21.2571 3.91462V4.94319H17.8286V3.91462C17.8286 2.96784 18.5961 2.20033 19.5429 2.20033C20.4896 2.20033 21.2571 2.96784 21.2571 3.91462ZM16.4571 7.00033H16.8H22.2857H22.6286V10.4289L16.4571 10.4289V7.00033ZM2.0569 4.25747C2.0569 4.06812 2.2104 3.91462 2.39976 3.91462H11.9998H12.3426C12.9107 3.91462 13.3712 3.45411 13.3712 2.88605C13.3712 2.31798 12.9107 1.85747 12.3426 1.85747H11.9998H2.39976C1.07427 1.85747 -0.000244141 2.93199 -0.000244141 4.25747V17.9718C-0.000244141 19.2972 1.07427 20.3718 2.39975 20.3718H10.9712V22.086H7.19976C6.63169 22.086 6.17118 22.5465 6.17118 23.1146C6.17118 23.6827 6.63169 24.1432 7.19976 24.1432H11.9998H16.7998C17.3678 24.1432 17.8283 23.6827 17.8283 23.1146C17.8283 22.5465 17.3678 22.086 16.7998 22.086H13.0283V20.3718H21.5998C22.9252 20.3718 23.9998 19.2972 23.9998 17.9718V15.5718C23.9998 15.0037 23.5392 14.5432 22.9712 14.5432C22.4031 14.5432 21.9426 15.0037 21.9426 15.5718V17.9718C21.9426 18.1611 21.7891 18.3146 21.5998 18.3146H11.9998H2.39975C2.2104 18.3146 2.0569 18.1611 2.0569 17.9718V4.25747Z" fill="black"/>
</svg>
