<svg width="24" height="25" viewBox="0 0 24 25" fill="none" xmlns="http://www.w3.org/2000/svg">
<path d="M12 0.107178C5.4 0.107178 0 5.50718 0 12.1072C0 18.7072 5.4 24.1072 12 24.1072C18.6 24.1072 24 18.7072 24 12.1072C24 5.50718 18.6 0.107178 12 0.107178ZM5.3148 18.7924C3.5148 16.9924 2.5716 14.5924 2.5716 12.2788L11.9148 21.5356C9.5148 21.4504 7.1148 20.5924 5.3148 18.7924ZM14.0568 21.2788L2.8284 10.0504C3.7716 5.85038 7.5432 2.67878 12 2.67878C15.1716 2.67878 17.9148 4.22198 19.6284 6.53558L18.3432 7.65038C16.8852 5.67878 14.5716 4.39118 11.9988 4.39118C8.6556 4.39118 5.8272 6.53438 4.7136 9.53438L14.5704 19.3912C17.0556 18.5344 18.942 16.3912 19.542 13.8208H15.4272V12.1072H21.4272C21.4272 16.564 18.2556 20.3356 14.0556 21.2788" fill="black"/>
</svg>
