<svg width="24" height="25" viewBox="0 0 24 25" fill="none" xmlns="http://www.w3.org/2000/svg">
<path fill-rule="evenodd" clip-rule="evenodd" d="M4.89224 2.87753C4.89224 2.6799 5.05244 2.5197 5.25007 2.5197H7.95429C8.15191 2.5197 8.31212 2.6799 8.31212 2.87753V5.24372C8.31212 5.44134 8.15191 5.60155 7.95429 5.60155H6.60218H5.25007C5.05244 5.60155 4.89224 5.44134 4.89224 5.24372V2.87753ZM5.25007 0.531128C3.95419 0.531128 2.90367 1.58165 2.90367 2.87753V5.24372C2.90367 6.5396 3.95419 7.59012 5.25007 7.59012H5.60789V9.05748L2.85714 11.8082C2.46884 12.1965 2.46884 12.8261 2.85714 13.2144L5.60789 15.9651V17.0945H5.25007C3.95419 17.0945 2.90367 18.145 2.90367 19.4409V22.1451C2.90367 23.441 3.95419 24.4915 5.25007 24.4915H7.95429C9.25017 24.4915 10.3007 23.441 10.3007 22.1451V19.4409C10.3007 18.145 9.25017 17.0945 7.95429 17.0945H7.59646V15.9657L10.2255 13.3366H15.7289C15.9266 13.3366 16.0868 13.4968 16.0868 13.6944V17.0945H15.7289C14.4331 17.0945 13.3826 18.145 13.3826 19.4409V22.1451C13.3826 23.441 14.4331 24.4915 15.7289 24.4915H18.4332C19.7291 24.4915 20.7796 23.441 20.7796 22.1451V19.4409C20.7796 18.145 19.7291 17.0945 18.4332 17.0945H18.0753V13.6944C18.0753 12.3985 17.0248 11.348 15.7289 11.348H9.88757L7.59646 9.05693V7.59012H7.95429C9.25017 7.59012 10.3007 6.5396 10.3007 5.24372V2.87753C10.3007 1.58165 9.25017 0.531128 7.95429 0.531128H5.25007ZM4.89224 19.4409C4.89224 19.2433 5.05244 19.0831 5.25007 19.0831H6.60218H7.95429C8.15191 19.0831 8.31212 19.2433 8.31212 19.4409V22.1451C8.31212 22.3427 8.15191 22.503 7.95429 22.503H5.25007C5.05244 22.503 4.89224 22.3427 4.89224 22.1451V19.4409ZM15.3711 19.4409C15.3711 19.2433 15.5313 19.0831 15.7289 19.0831H17.0811H18.4332C18.6308 19.0831 18.791 19.2433 18.791 19.4409V22.1451C18.791 22.3427 18.6308 22.503 18.4332 22.503H15.7289C15.5313 22.503 15.3711 22.3427 15.3711 22.1451V19.4409ZM6.60246 14.1474L4.96634 12.5113L6.60246 10.8752L8.23858 12.5113L6.60246 14.1474Z" fill="black"/>
</svg>
