<svg width="24" height="24" viewBox="0 0 24 24" fill="none" xmlns="http://www.w3.org/2000/svg">
<path fill-rule="evenodd" clip-rule="evenodd" d="M0.0344238 1.60049C0.0344238 1.05136 0.479581 0.606201 1.02871 0.606201H3.77156C4.25209 0.606201 4.66385 0.94985 4.74981 1.42262L5.34942 4.72048H22.9716C23.2777 4.72048 23.5668 4.86154 23.7553 5.10287C23.9437 5.3442 24.0104 5.65889 23.9361 5.95592L21.1933 16.9273C21.0826 17.37 20.6849 17.6805 20.2287 17.6805H6.51442C6.0339 17.6805 5.62213 17.3368 5.53617 16.8641L3.54137 5.89263L2.94176 2.59477H1.02871C0.479581 2.59477 0.0344238 2.14962 0.0344238 1.60049ZM5.71098 6.70906L7.34423 15.6919H19.4524L21.6981 6.70906H5.71098ZM17.8152 21.1091C17.7963 21.1091 17.7809 21.1245 17.7809 21.1434C17.7809 21.1624 17.7963 21.1777 17.8152 21.1777C17.8342 21.1777 17.8495 21.1624 17.8495 21.1434C17.8495 21.1245 17.8342 21.1091 17.8152 21.1091ZM15.7924 21.1434C15.7924 20.0262 16.698 19.1206 17.8152 19.1206C18.9324 19.1206 19.8381 20.0262 19.8381 21.1434C19.8381 22.2606 18.9324 23.1663 17.8152 23.1663C16.698 23.1663 15.7924 22.2606 15.7924 21.1434ZM8.88307 21.1434C8.88307 21.1245 8.89842 21.1091 8.91735 21.1091C8.93629 21.1091 8.95164 21.1245 8.95164 21.1434C8.95164 21.1624 8.93629 21.1777 8.91735 21.1777C8.89842 21.1777 8.88307 21.1624 8.88307 21.1434ZM8.91735 19.1206C7.80016 19.1206 6.89449 20.0262 6.89449 21.1434C6.89449 22.2606 7.80016 23.1663 8.91735 23.1663C10.0345 23.1663 10.9402 22.2606 10.9402 21.1434C10.9402 20.0262 10.0345 19.1206 8.91735 19.1206Z" fill="black"/>
</svg>
