<svg width="24" height="25" viewBox="0 0 24 25" fill="none" xmlns="http://www.w3.org/2000/svg">
<path fill-rule="evenodd" clip-rule="evenodd" d="M10.8942 2.20733C11.2619 2.16641 11.6356 2.1454 12.0141 2.1454C13.6919 2.1454 15.2736 2.55805 16.6631 3.28761L16.1114 5.49432C15.902 5.51315 15.6995 5.55617 15.5067 5.62057L10.8942 2.20733ZM13.9604 6.96783L9.22333 3.46241L8.25385 6.66915C8.58973 6.91622 8.86567 7.24002 9.05584 7.61469L13.8556 7.20793C13.8867 7.12589 13.9217 7.04578 13.9604 6.96783ZM13.9019 9.21401L9.22516 9.61035C9.06703 10.1226 8.75892 10.569 8.35211 10.8984L9.04077 13.1611C9.50453 13.1664 9.93988 13.2899 10.3181 13.5029L13.9716 9.36227C13.9469 9.31369 13.9236 9.26425 13.9019 9.21401ZM15.4811 10.6786L11.579 15.101C11.6217 15.2513 11.6515 15.407 11.6672 15.5669L14.4461 15.7892C14.6629 15.001 15.2319 14.3588 15.9732 14.0422L15.7247 10.7499C15.642 10.7299 15.5607 10.7061 15.4811 10.6786ZM17.7109 10.4542L17.979 14.0056C18.049 14.0325 18.1175 14.0623 18.1846 14.0948L21.1708 10.5966L18.5772 9.63328C18.3542 9.96775 18.0578 10.2491 17.7109 10.4542ZM18.9756 7.64474L21.3491 8.52634L21.3459 8.51816C20.7268 6.93276 19.7155 5.54426 18.4316 4.47149L18.0306 6.07558C18.5109 6.46361 18.8539 7.01473 18.9756 7.64474ZM19.6916 16.4991C19.6916 17.8955 18.6198 19.0416 17.254 19.1596L16.2462 21.2381C18.5693 20.1534 20.4078 18.2032 21.3459 15.8009C21.7147 14.8566 21.9268 13.802 21.9824 12.7306L19.5354 15.5971C19.6365 15.8789 19.6916 16.1826 19.6916 16.4991ZM15.32 18.5576C15.0709 18.3516 14.8599 18.1013 14.699 17.8187L11.0716 17.5285C10.7908 17.8693 10.4271 18.1393 10.0113 18.3076V21.9733C10.6585 22.1047 11.3283 22.1736 12.0141 22.1736C12.5641 22.1736 13.1037 22.1293 13.6296 22.044L15.32 18.5576ZM6.93852 17.5171C7.2207 17.8634 7.58799 18.1376 8.00851 18.3078V21.3404C6.28951 20.5894 4.82181 19.3697 3.76727 17.8424L6.93852 17.5171ZM7.17064 13.8951C6.71922 14.3241 6.41765 14.9092 6.35253 15.5639L2.73578 15.9348C2.71766 15.8903 2.69985 15.8457 2.68235 15.8009C2.42981 15.1542 2.24765 14.4825 2.1359 13.7996L5.39825 11.1687C5.71156 11.3393 6.06282 11.4489 6.43613 11.4817L7.17064 13.8951ZM4.12488 9.62268C4.10391 9.55591 4.0855 9.48802 4.06975 9.41911L2.45689 9.16105C2.23929 9.85841 2.0999 10.5785 2.03872 11.3051L4.12488 9.62268ZM3.27599 7.26381L4.38653 7.44149C4.79502 6.76618 5.49424 6.2864 6.31071 6.17563L7.14839 3.40484C5.52811 4.30722 4.18413 5.64644 3.27599 7.26381ZM23.8593 10.2562C24.1751 12.3647 23.9592 14.615 23.2115 16.5295C21.4641 21.0039 17.1109 24.1765 12.0141 24.1765C6.91741 24.1765 2.56414 21.0039 0.816744 16.5295C-0.272248 13.741 -0.272248 10.5781 0.816744 7.78959C2.56414 3.31515 6.91741 0.142578 12.0141 0.142578C17.1109 0.142578 21.4641 3.31515 23.2115 7.78959C23.4526 8.40693 23.6384 9.0592 23.7689 9.73038C23.7951 9.78598 23.8163 9.84436 23.8321 9.90495C23.8623 10.0211 23.8709 10.14 23.8593 10.2562Z" fill="black"/>
</svg>
