<svg width="24" height="25" viewBox="0 0 24 25" fill="none" xmlns="http://www.w3.org/2000/svg">
<path fill-rule="evenodd" clip-rule="evenodd" d="M2.0579 12.1091C2.16163 12.3119 2.30671 12.5825 2.49325 12.9003C2.92532 13.6367 3.57339 14.6157 4.43666 15.5907C6.17421 17.5531 8.68757 19.3978 12 19.3978C12.8881 19.3978 13.7133 19.2661 14.4789 19.038C14.9938 18.8845 15.5357 19.1776 15.6892 19.6925C15.8427 20.2075 15.5496 20.7494 15.0346 20.9029C14.096 21.1826 13.0837 21.3438 12 21.3438C7.90364 21.3438 4.90349 19.0534 2.97973 16.8807C2.01234 15.7881 1.29279 14.6996 0.814923 13.8852C0.575391 13.477 0.394991 13.135 0.273179 12.8921C0.212237 12.7705 0.165851 12.6736 0.133959 12.6054C0.118011 12.5713 0.105677 12.5443 0.0969514 12.525L0.0865643 12.5018L0.0833961 12.4947L0.0823178 12.4922L0.0819051 12.4913C0.0817339 12.4909 0.0815766 12.4905 0.972973 12.1005C0.0884774 11.6951 0.0886353 11.6948 0.0888078 11.6944L0.0892262 11.6935L0.0903275 11.6911L0.0935873 11.6841L0.104334 11.6612C0.113376 11.6421 0.126177 11.6153 0.142727 11.5813C0.175821 11.5134 0.223947 11.4169 0.287038 11.2957C0.413146 11.0536 0.599477 10.7124 0.845532 10.3052C1.33643 9.49265 2.07141 8.40645 3.0481 7.31619C4.9866 5.15229 7.98591 2.8573 12 2.8573C16.0141 2.8573 19.0134 5.15229 20.9519 7.31619C21.9286 8.40645 22.6636 9.49265 23.1545 10.3052C23.4005 10.7124 23.5868 11.0536 23.713 11.2957C23.776 11.4169 23.8242 11.5134 23.8573 11.5813C23.8738 11.6153 23.8866 11.6421 23.8957 11.6612L23.9064 11.6841L23.9097 11.6911L23.9108 11.6935L23.9112 11.6944C23.9114 11.6948 23.9115 11.6951 23.027 12.1005C23.9104 12.5083 23.9104 12.5084 23.9103 12.5085L23.9102 12.5088L23.9098 12.5096L23.9089 12.5117L23.9058 12.5182L23.8955 12.5401C23.8868 12.5586 23.8744 12.5847 23.8584 12.6177C23.8264 12.6837 23.7802 12.7775 23.7209 12.8934C23.6026 13.1247 23.4312 13.4459 23.217 13.8101C22.7958 14.5261 22.1793 15.4594 21.4447 16.1939C21.0648 16.5739 20.4487 16.5739 20.0688 16.1939C19.6888 15.814 19.6888 15.1979 20.0688 14.8179C20.6315 14.2552 21.1501 13.4858 21.5397 12.8234C21.7026 12.5465 21.8378 12.2973 21.9389 12.1031C21.831 11.8998 21.6808 11.6292 21.4889 11.3115C21.0429 10.5733 20.378 9.59193 19.5025 8.61462C17.7366 6.64339 15.2224 4.80325 12 4.80325C8.7776 4.80325 6.2634 6.64339 4.49751 8.61462C3.622 9.59193 2.95706 10.5733 2.5111 11.3115C2.31727 11.6323 2.16602 11.9051 2.0579 12.1091ZM23.027 12.1005L23.9115 11.6951C24.0299 11.9534 24.0295 12.2504 23.9104 12.5083L23.027 12.1005ZM0.0884774 11.6951L0.972973 12.1005L0.0815766 12.4905C-0.0295487 12.2365 -0.0270383 11.9472 0.0884774 11.6951ZM8.10781 11.9384C8.10781 9.78897 9.85027 8.04652 11.9997 8.04652C14.1491 8.04652 15.8916 9.78897 15.8916 11.9384C15.8916 14.0878 14.1491 15.8303 11.9997 15.8303C9.85027 15.8303 8.10781 14.0878 8.10781 11.9384ZM11.9997 6.10057C8.77556 6.10057 6.16187 8.71426 6.16187 11.9384C6.16187 15.1626 8.77556 17.7762 11.9997 17.7762C13.2682 17.7762 14.4423 17.3716 15.3998 16.6845L20.414 21.4037C20.8053 21.772 21.4211 21.7534 21.7893 21.362C22.1576 20.9707 22.139 20.355 21.7477 19.9867L16.7711 15.3029C17.4429 14.3519 17.8375 13.1913 17.8375 11.9384C17.8375 8.71426 15.2239 6.10057 11.9997 6.10057ZM12.9727 10.3167C12.9727 9.77935 12.5371 9.34373 11.9997 9.34373C11.4624 9.34373 11.0268 9.77935 11.0268 10.3167V10.9654H10.3781C9.84075 10.9654 9.40513 11.401 9.40513 11.9383C9.40513 12.4757 9.84075 12.9113 10.3781 12.9113H11.0268V13.5599C11.0268 14.0973 11.4624 14.5329 11.9997 14.5329C12.5371 14.5329 12.9727 14.0973 12.9727 13.5599V12.9113H13.6213C14.1587 12.9113 14.5943 12.4757 14.5943 11.9383C14.5943 11.401 14.1587 10.9654 13.6213 10.9654H12.9727V10.3167Z" fill="black"/>
</svg>
