<svg width="25" height="25" viewBox="0 0 25 25" fill="none" xmlns="http://www.w3.org/2000/svg">
<path d="M12.5 17.8618L11.7324 18.5704C11.9302 18.7846 12.2085 18.9065 12.5 18.9065C12.7916 18.9065 13.0699 18.7846 13.2676 18.5704L12.5 17.8618ZM12.5001 2.0083L12.9604 1.07055C12.67 0.928027 12.3301 0.928027 12.0397 1.07055L12.5001 2.0083ZM22.905 5.13826L23.9491 5.17267C23.967 4.63003 23.5662 4.16415 23.027 4.10076L22.905 5.13826ZM12.5001 22.9918L12.0179 23.9185C12.3201 24.0757 12.68 24.0757 12.9822 23.9185L12.5001 22.9918ZM2.09503 5.13826L1.97307 4.10076C1.43385 4.16415 1.03307 4.63003 1.05096 5.17267L2.09503 5.13826ZM8.54593 10.9225H9.59057C9.59057 9.84022 9.94266 9.15504 10.4074 8.73178C10.8881 8.29401 11.6045 8.03276 12.5 8.03276V6.98812V5.94347C11.2117 5.94347 9.95106 6.32156 9.00068 7.18706C8.03435 8.06708 7.50129 9.3491 7.50129 10.9225H8.54593ZM12.5 6.98812V8.03276C13.3955 8.03276 14.1119 8.29401 14.5926 8.73178C15.0574 9.15504 15.4095 9.84022 15.4095 10.9225H16.4541H17.4987C17.4987 9.3491 16.9657 8.06708 15.9993 7.18706C15.049 6.32156 13.7883 5.94347 12.5 5.94347V6.98812ZM12.5 17.8618C13.2676 18.5704 13.2677 18.5703 13.2679 18.5701C13.2679 18.57 13.2681 18.5699 13.2682 18.5697C13.2685 18.5695 13.2688 18.5691 13.2692 18.5687C13.27 18.5679 13.271 18.5668 13.2722 18.5654C13.2747 18.5627 13.2781 18.559 13.2825 18.5542C13.2911 18.5447 13.3035 18.5312 13.3192 18.5138C13.3507 18.479 13.3958 18.4287 13.4526 18.3644C13.5662 18.2359 13.7269 18.051 13.9191 17.8214C14.3024 17.3632 14.8156 16.7213 15.331 15.9898C15.8441 15.2617 16.3737 14.4247 16.7787 13.5779C17.1746 12.7501 17.4987 11.8171 17.4987 10.9225H16.4541H15.4095C15.4095 11.3558 15.2393 11.9542 14.8939 12.6764C14.5575 13.3798 14.0986 14.1116 13.6231 14.7864C13.15 15.4577 12.6747 16.0527 12.3166 16.4807C12.1381 16.6941 11.9899 16.8646 11.8872 16.9807C11.8359 17.0388 11.7961 17.0831 11.7696 17.1124C11.7564 17.127 11.7465 17.1378 11.7402 17.1447C11.7371 17.1482 11.7349 17.1506 11.7335 17.152C11.7329 17.1528 11.7325 17.1532 11.7323 17.1534C11.7322 17.1535 11.7321 17.1536 11.7322 17.1535C11.7322 17.1535 11.7322 17.1535 11.7322 17.1535C11.7323 17.1534 11.7324 17.1533 12.5 17.8618ZM8.54593 10.9225H7.50129C7.50129 11.8171 7.82543 12.7501 8.22136 13.5779C8.62636 14.4247 9.15595 15.2617 9.66903 15.9898C10.1845 16.7213 10.6976 17.3632 11.081 17.8214C11.2731 18.051 11.4338 18.2359 11.5474 18.3644C11.6042 18.4287 11.6494 18.479 11.6808 18.5138C11.6966 18.5312 11.7089 18.5447 11.7176 18.5542C11.7219 18.559 11.7253 18.5627 11.7278 18.5654C11.7291 18.5668 11.7301 18.5679 11.7308 18.5687C11.7312 18.5691 11.7315 18.5695 11.7318 18.5697C11.7319 18.5699 11.7321 18.57 11.7321 18.5701C11.7323 18.5703 11.7324 18.5704 12.5 17.8618C13.2676 17.1533 13.2677 17.1534 13.2678 17.1535C13.2678 17.1535 13.2679 17.1535 13.2679 17.1535C13.2679 17.1536 13.2679 17.1535 13.2678 17.1534C13.2676 17.1532 13.2671 17.1528 13.2665 17.152C13.2652 17.1506 13.2629 17.1482 13.2598 17.1447C13.2535 17.1378 13.2436 17.127 13.2304 17.1124C13.2039 17.0831 13.1641 17.0388 13.1128 16.9807C13.0102 16.8646 12.862 16.6941 12.6834 16.4807C12.3253 16.0527 11.85 15.4577 11.3769 14.7864C10.9015 14.1116 10.4425 13.3798 10.1062 12.6764C9.76069 11.9542 9.59057 11.3558 9.59057 10.9225H8.54593ZM12.5001 2.0083L12.0397 2.94605C14.6132 4.20935 16.4282 4.92181 18.0556 5.36622C19.6818 5.81032 21.0866 5.97634 22.783 6.17576L22.905 5.13826L23.027 4.10076C21.3177 3.89983 20.0606 3.74798 18.606 3.35074C17.1526 2.95382 15.4679 2.30147 12.9604 1.07055L12.5001 2.0083ZM22.905 5.13826L21.8609 5.10385C21.6997 9.997 21.0519 13.2357 19.5972 15.7288C18.1534 18.2033 15.8339 20.0794 12.0179 22.0651L12.5001 22.9918L12.9822 23.9185C16.9509 21.8534 19.6708 19.7484 21.4018 16.7817C23.122 13.8335 23.7843 10.1708 23.9491 5.17267L22.905 5.13826ZM12.5001 2.0083L12.0397 1.07055C9.53219 2.30147 7.84753 2.95382 6.39407 3.35074C4.93944 3.74798 3.68231 3.89983 1.97307 4.10076L2.09503 5.13826L2.217 6.17576C3.91339 5.97634 5.31826 5.81032 6.94447 5.36622C8.57185 4.92181 10.3869 4.20935 12.9604 2.94605L12.5001 2.0083ZM2.09503 5.13826L1.05096 5.17267C1.21568 10.1708 1.87805 13.8335 3.59825 16.7817C5.32926 19.7484 8.04921 21.8534 12.0179 23.9185L12.5001 22.9918L12.9822 22.0651C9.1662 20.0794 6.84664 18.2033 5.40281 15.7288C3.94817 13.2357 3.30037 9.99699 3.13911 5.10385L2.09503 5.13826Z" fill="black"/>
</svg>
