<svg width="24" height="24" viewBox="0 0 24 24" fill="none" xmlns="http://www.w3.org/2000/svg">
<path d="M21.6523 18.508C21.8683 21.281 21.8683 22.581 21.8683 24H15.4513C15.4513 23.691 15.4573 23.408 15.4623 23.122C15.4803 22.23 15.4983 21.301 15.3533 19.424C15.1633 16.677 13.9793 16.066 11.8033 16.066H1.71529V11.066H12.1113C14.8593 11.066 16.2333 10.231 16.2333 8.017C16.2333 6.071 14.8593 4.892 12.1113 4.892H1.71429V0H13.2553C19.4763 0 22.5683 2.938 22.5683 7.632C22.5683 11.143 20.3923 13.432 17.4543 13.814C19.9343 14.311 21.3843 15.723 21.6523 18.508ZM1.71429 24V20.273H8.4983C9.6313 20.273 9.8773 21.113 9.8773 21.615V24H1.71429Z" fill="black"/>
</svg>
