<svg width="24" height="25" viewBox="0 0 24 25" fill="none" xmlns="http://www.w3.org/2000/svg">
<path d="M21.438 18.758C21.654 21.531 21.654 22.831 21.654 24.25H15.237C15.237 23.941 15.243 23.658 15.248 23.372C15.266 22.48 15.284 21.551 15.139 19.674C14.949 16.927 13.765 16.316 11.589 16.316H1.501V11.316H11.897C14.645 11.316 16.019 10.481 16.019 8.267C16.019 6.321 14.645 5.142 11.897 5.142H1.5V0.25H13.041C19.262 0.25 22.354 3.188 22.354 7.882C22.354 11.393 20.178 13.682 17.24 14.064C19.72 14.561 21.17 15.973 21.438 18.758ZM1.5 24.25V20.523H8.284C9.417 20.523 9.663 21.363 9.663 21.865V24.25H1.5Z" fill="black"/>
</svg>
