<svg width="24" height="25" viewBox="0 0 24 25" fill="none" xmlns="http://www.w3.org/2000/svg">
<path d="M10.5 3.10718L11.04 4.10418L9.243 4.74818L11.652 4.96618L12.4 6.21218L12.867 5.09118L14.944 4.88318L13.334 4.27018L13.76 3.25318L12.182 3.77218L10.5 3.10718ZM17.405 5.18418L13.76 6.62818L17.052 7.92618L17.405 7.78018L20.698 6.48218L17.405 5.18418ZM6.895 5.49618C6.10775 5.49618 5.35271 5.61752 4.7958 5.83353C4.23889 6.04954 3.92568 6.34256 3.925 6.64818C3.925 6.95397 4.23791 7.24724 4.79489 7.46347C5.35188 7.6797 6.10731 7.80118 6.895 7.80118C7.68269 7.80118 8.43812 7.6797 8.99511 7.46347C9.55209 7.24724 9.865 6.95397 9.865 6.64818C9.86432 6.34256 9.55111 6.04954 8.9942 5.83353C8.43729 5.61752 7.68225 5.49618 6.895 5.49618ZM24 7.25118C24 7.25118 15.017 11.5292 13.605 12.2042C12.379 12.7652 11.704 12.7652 10.344 12.2982C8.318 11.4682 0 7.68718 0 7.68718V8.72518C0 8.96518 0.332 9.22418 0.966 9.52518C2.243 10.1382 9.306 13.2022 10.416 13.7312C11.528 14.2612 12.316 14.2712 13.729 13.5342C15.141 12.7962 21.778 9.62918 23.055 8.96418C23.709 8.62218 24 8.36218 24 8.12418V7.25118ZM13.958 7.85318L8.39 8.70618L12.274 10.3162L13.958 7.85318ZM24 11.0832C24 11.0832 15.017 15.3622 13.605 16.0372C12.379 16.5972 11.704 16.5972 10.344 16.1302C8.318 15.3002 0 11.5202 0 11.5202V12.5582C0 12.7962 0.332 13.0562 0.966 13.3582C2.243 13.9702 9.306 17.0342 10.416 17.5632C11.528 18.0932 12.316 18.1032 13.729 17.3662C15.141 16.6292 21.778 13.4612 23.055 12.7962C23.709 12.4642 24 12.1942 24 11.9562V11.0832ZM24 14.9252L13.605 19.8792C12.379 20.4392 11.704 20.4392 10.344 19.9732C8.318 19.1422 0 15.3622 0 15.3622V16.4002C0 16.6392 0.332 16.8992 0.966 17.2002C2.243 17.8132 9.306 20.8762 10.416 21.4062C11.528 21.9362 12.316 21.9462 13.729 21.2082C15.141 20.4712 21.778 17.3042 23.055 16.6392C23.709 16.2962 24 16.0262 24 15.7982V14.9252Z" fill="black"/>
</svg>
