<svg width="24" height="25" viewBox="0 0 24 25" fill="none" xmlns="http://www.w3.org/2000/svg">
<path fill-rule="evenodd" clip-rule="evenodd" d="M21.2569 0.428579C21.825 0.428579 22.2855 0.889084 22.2855 1.45715V2.14286H22.9712C23.5392 2.14286 23.9998 2.60336 23.9998 3.17142C23.9998 3.73948 23.5392 4.19999 22.9712 4.19999H22.2855V4.8857C22.2855 5.45376 21.825 5.91427 21.2569 5.91427C20.6888 5.91427 20.2283 5.45376 20.2283 4.8857V4.19999H19.5426C18.9746 4.19999 18.5141 3.73948 18.5141 3.17142C18.5141 2.60336 18.9746 2.14286 19.5426 2.14286H20.2283V1.45715C20.2283 0.889084 20.6888 0.428579 21.2569 0.428579ZM12.3429 7.9714C12.3429 7.40333 12.8034 6.94283 13.3715 6.94283H17.8286C18.3967 6.94283 18.8572 7.40333 18.8572 7.9714V12.4285C18.8572 12.9966 18.3967 13.4571 17.8286 13.4571C17.2605 13.4571 16.8 12.9966 16.8 12.4285V10.3786L10.6539 16.2575C10.454 16.4487 10.1856 16.5513 9.90915 16.5422C9.63272 16.5331 9.3716 16.4131 9.18471 16.2092L6.30898 13.0721L2.05725 19.5914V20.657C2.05725 21.6038 2.82476 22.3713 3.77153 22.3713H20.2286C21.1754 22.3713 21.9429 21.6038 21.9429 20.657V8.30155C21.9429 7.73349 22.4034 7.27299 22.9714 7.27299C23.5395 7.27299 24 7.73349 24 8.30155V20.657C24 22.7399 22.3115 24.4285 20.2286 24.4285H3.77153C1.68864 24.4285 0.000118944 22.7399 0.000118944 20.657V19.3003C-3.95161e-05 19.2899 -3.97797e-05 19.2795 0.000118944 19.269V7.9587V4.19999C0.000118944 2.1171 1.68864 0.428579 3.77153 0.428579H16.1143C16.6824 0.428579 17.1429 0.889084 17.1429 1.45715C17.1429 2.02521 16.6824 2.48571 16.1143 2.48571H3.77153C2.82476 2.48571 2.05725 3.25322 2.05725 4.19999V7.9587V15.8256L5.30998 10.8381C5.48359 10.5719 5.7705 10.4009 6.08724 10.3748C6.40399 10.3488 6.71498 10.4706 6.92973 10.7049L9.99119 14.0447L15.2652 8.99996H13.3715C12.8034 8.99996 12.3429 8.53946 12.3429 7.9714Z" fill="black"/>
</svg>
