<svg width="24" height="25" viewBox="0 0 24 25" fill="none" xmlns="http://www.w3.org/2000/svg">
<path fill-rule="evenodd" clip-rule="evenodd" d="M12.4386 1.08469C12.1655 0.950503 11.846 0.948756 11.5714 1.07995C8.57854 2.51013 5.92052 3.34026 4.01671 3.81201C3.06521 4.04779 2.30341 4.19373 1.78407 4.28025C1.52444 4.3235 1.32555 4.35188 1.19401 4.3692C1.12824 4.37787 1.07932 4.38376 1.04808 4.38737L1.01459 4.39112L1.00824 4.39179L1.00798 4.39182L1.00783 4.39183L1.00783 4.39183L1.00765 4.39185C0.499618 4.44291 0.112793 4.8705 0.112793 5.38115C0.112793 13.1421 2.94676 17.9882 5.85054 20.892C7.2923 22.3337 8.73572 23.2818 9.82454 23.8715C10.3694 24.1667 10.8272 24.3731 11.1543 24.5074C11.318 24.5746 11.4491 24.6239 11.5424 24.6573C11.589 24.674 11.6262 24.6868 11.6533 24.6959L11.6863 24.7067L11.6969 24.7101L11.7007 24.7113L11.7023 24.7118C11.7029 24.712 11.7036 24.7122 12.0001 23.7632L11.7036 24.7122C11.8967 24.7726 12.1036 24.7726 12.2967 24.7122L12.0001 23.7632C12.2967 24.7122 12.2973 24.712 12.298 24.7118L12.2995 24.7113L12.3034 24.7101L12.314 24.7067L12.3469 24.6959C12.374 24.6868 12.4112 24.674 12.4579 24.6573C12.5512 24.6239 12.6823 24.5746 12.8459 24.5074C13.173 24.3731 13.6309 24.1667 14.1757 23.8715C15.2646 23.2818 16.708 22.3337 18.1497 20.892C21.0535 17.9882 23.8875 13.1421 23.8875 5.38115C23.8875 4.86389 23.4909 4.43306 22.9754 4.39028L22.975 4.39024L22.9693 4.38973L22.9365 4.38659C22.9057 4.38353 22.8572 4.37845 22.7919 4.37081C22.6613 4.35554 22.4634 4.33005 22.2048 4.29005C21.6875 4.21003 20.9279 4.07204 19.9788 3.84185C18.0797 3.38131 15.4267 2.55292 12.4386 1.08469ZM7.25667 19.4858C4.81658 17.0457 2.3122 12.946 2.11396 6.24127C2.67953 6.14697 3.491 5.99099 4.495 5.74221C6.41247 5.26707 9.037 4.4522 11.9943 3.0789C14.9572 4.4918 17.5875 5.30816 19.5101 5.7744C20.5095 6.01678 21.3189 6.16484 21.886 6.25294C21.6852 12.9508 19.1823 17.0472 16.7436 19.4858C15.4621 20.7673 14.1823 21.6065 13.2286 22.123C12.7522 22.381 12.3591 22.5576 12.0905 22.6679C12.0586 22.681 12.0284 22.6932 12.0001 22.7044C11.9718 22.6932 11.9417 22.681 11.9098 22.6679C11.6412 22.5576 11.248 22.381 10.7717 22.123C9.81802 21.6065 8.53818 20.7673 7.25667 19.4858ZM12.0001 6.08881C9.947 6.08881 8.2826 7.75322 8.2826 9.80636V10.963C7.49041 11.2345 6.92097 11.9858 6.92097 12.87V16.2741C6.92097 17.3873 7.82334 18.2896 8.93648 18.2896H15.0638C16.177 18.2896 17.0793 17.3873 17.0793 16.2741V12.87C17.0793 11.9858 16.5099 11.2345 15.7177 10.963V9.80636C15.7177 7.75322 14.0533 6.08881 12.0001 6.08881ZM13.7291 9.80636V10.8545H10.2712V9.80636C10.2712 8.85148 11.0453 8.07738 12.0001 8.07738C12.955 8.07738 13.7291 8.85147 13.7291 9.80636ZM8.90954 12.87C8.90954 12.8645 8.91047 12.8617 8.91125 12.8599C8.9123 12.8574 8.91427 12.8541 8.91743 12.851C8.92059 12.8478 8.92379 12.8459 8.9263 12.8448C8.92814 12.844 8.93092 12.8431 8.93648 12.8431H9.27689H14.7234H15.0638C15.0694 12.8431 15.0722 12.844 15.074 12.8448C15.0765 12.8459 15.0797 12.8478 15.0829 12.851C15.086 12.8541 15.088 12.8574 15.0891 12.8599C15.0898 12.8617 15.0908 12.8645 15.0908 12.87V16.2741C15.0908 16.2797 15.0898 16.2825 15.0891 16.2843C15.088 16.2868 15.086 16.29 15.0829 16.2932C15.0797 16.2963 15.0765 16.2983 15.074 16.2993C15.0722 16.3001 15.0694 16.3011 15.0638 16.3011H8.93648C8.93092 16.3011 8.92814 16.3001 8.9263 16.2993C8.92379 16.2983 8.92059 16.2963 8.91743 16.2932C8.91427 16.29 8.9123 16.2868 8.91125 16.2843C8.91047 16.2825 8.90954 16.2797 8.90954 16.2741V12.87Z" fill="black"/>
</svg>
