<svg width="24" height="25" viewBox="0 0 24 25" fill="none" xmlns="http://www.w3.org/2000/svg">
<path fill-rule="evenodd" clip-rule="evenodd" d="M4.87146 1.89099C6.65434 1.24995 9.15682 0.601318 11.9999 0.601318C14.843 0.601318 17.3455 1.24995 19.1284 1.89099C20.0225 2.21248 20.7435 2.53488 21.2453 2.77941C21.4964 2.90178 21.6933 3.00496 21.8302 3.07921C21.8986 3.11634 21.9522 3.14627 21.99 3.16778L22.035 3.1936L22.0486 3.2015L22.0531 3.20415L22.0548 3.20514L22.0555 3.20556C22.0558 3.20574 22.0561 3.20591 21.464 4.20496L22.0561 3.20591C22.4089 3.41503 22.6253 3.79478 22.6253 4.20496V20.0803C22.6253 20.4904 22.4089 20.8702 22.0561 21.0793L21.464 20.0803C22.0561 21.0793 22.0558 21.0795 22.0555 21.0797L22.0548 21.0801L22.0531 21.0811L22.0486 21.0837L22.035 21.0916L21.99 21.1174C21.9522 21.1389 21.8986 21.1689 21.8302 21.206C21.6933 21.2803 21.4964 21.3834 21.2453 21.5058C20.7435 21.7503 20.0225 22.0727 19.1284 22.3942C17.3455 23.0353 14.843 23.6839 11.9999 23.6839C9.1568 23.6839 6.65433 23.0353 4.87145 22.3942C3.9773 22.0727 3.25634 21.7503 2.75454 21.5058C2.50343 21.3834 2.30656 21.2803 2.16967 21.206C2.1012 21.1689 2.04768 21.1389 2.00981 21.1174L1.9648 21.0916L1.95126 21.0837L1.94675 21.0811L1.94507 21.0801L1.94437 21.0797C1.94407 21.0795 1.94377 21.0793 2.5358 20.0803L1.94377 21.0793C1.5909 20.8702 1.37451 20.4904 1.37451 20.0803V4.20496C1.37451 3.79478 1.5909 3.41502 1.94377 3.20591L2.5358 4.20496C1.94377 3.20591 1.94407 3.20574 1.94438 3.20556L1.94507 3.20514L1.94676 3.20415L1.95126 3.2015L1.96481 3.1936L2.00981 3.16778C2.04768 3.14627 2.10121 3.11634 2.16967 3.07921C2.30657 3.00496 2.50343 2.90178 2.75454 2.77941C3.25635 2.53488 3.97731 2.21248 4.87146 1.89099ZM3.12732 5.20431L3.12636 5.20488L3.1269 5.20456L3.12732 5.20431ZM3.69709 4.90402C3.72133 4.89205 3.7463 4.87979 3.77198 4.86728C4.20991 4.65387 4.85324 4.36568 5.65729 4.07658C7.27081 3.49644 9.5004 2.9239 11.9999 2.9239C14.4995 2.9239 16.729 3.49644 18.3426 4.07658C19.1466 4.36568 19.7899 4.65387 20.2279 4.86728C20.2535 4.87979 20.2785 4.89205 20.3028 4.90402V5.94825C20.2785 5.96023 20.2535 5.97248 20.2279 5.985C19.7899 6.1984 19.1466 6.48659 18.3425 6.77569C16.729 7.35583 14.4994 7.92838 11.9999 7.92838C9.50037 7.92838 7.27079 7.35583 5.65728 6.77569C4.85323 6.48659 4.2099 6.19841 3.77198 5.985C3.7463 5.97248 3.72133 5.96023 3.69709 5.94825V4.90402ZM3.69709 8.50151V12.6647C3.72133 12.6767 3.7463 12.689 3.77198 12.7015C4.2099 12.9149 4.85323 13.2031 5.65728 13.4922C7.27079 14.0723 9.50037 14.6449 11.9999 14.6449C14.4994 14.6449 16.729 14.0723 18.3425 13.4922C19.1466 13.2031 19.7899 12.9149 20.2279 12.7015C20.2535 12.689 20.2785 12.6767 20.3028 12.6647V8.50151C19.9556 8.64898 19.5624 8.80524 19.1284 8.96129C17.3455 9.60232 14.843 10.251 11.9999 10.251C9.15679 10.251 6.65432 9.60232 4.87144 8.96129C4.43744 8.80524 4.04423 8.64898 3.69709 8.50151ZM20.3028 15.218C19.9556 15.3655 19.5624 15.5217 19.1284 15.6778C17.3455 16.3188 14.843 16.9674 11.9999 16.9674C9.15679 16.9674 6.65432 16.3188 4.87144 15.6778C4.43744 15.5217 4.04423 15.3655 3.69709 15.218V19.3812C3.72133 19.3932 3.7463 19.4054 3.77198 19.4179C4.20991 19.6313 4.85323 19.9195 5.65728 20.2086C7.2708 20.7888 9.50038 21.3613 11.9999 21.3613C14.4995 21.3613 16.729 20.7888 18.3426 20.2086C19.1466 19.9195 19.7899 19.6313 20.2279 19.4179C20.2535 19.4054 20.2785 19.3932 20.3028 19.3812V15.218ZM3.12635 5.20488C3.12611 5.20503 3.12611 5.20503 3.12636 5.20488Z" fill="black"/>
</svg>
