<svg width="24" height="25" viewBox="0 0 24 25" fill="none" xmlns="http://www.w3.org/2000/svg">
<path d="M23.1511 3.55317L16.6489 4.73831L17.7788 0.821533L8.75577 2.58956L8.61519 4.96331L0.709915 3.55031C0.165463 3.51862 -0.151787 3.90961 0.0730251 4.45247L11.5131 24.5142C11.7594 24.9161 12.3263 24.9318 12.5749 24.5142L23.7925 4.45055C24.0457 3.99698 23.6578 3.46533 23.1511 3.55317ZM12.0417 23.9642L0.837649 4.31634L8.57169 5.69873L8.2071 11.8565L11.3773 11.1248L10.4934 15.4535L12.9015 14.7218L11.7065 20.5061C11.6469 20.8843 12.1396 21.0855 12.3833 20.5441L19.4249 6.49139L15.9498 7.16207L16.4226 5.52323L23.0277 4.3193L12.0417 23.9642Z" fill="black"/>
</svg>
