<svg width="25" height="25" viewBox="0 0 25 25" fill="none" xmlns="http://www.w3.org/2000/svg">
<path fill-rule="evenodd" clip-rule="evenodd" d="M12.8648 6.02706C12.9324 4.88063 12.0693 3.91511 10.9603 3.84972C9.85123 3.78433 8.88063 4.64172 8.81303 5.78815C8.74543 6.93458 9.60855 7.9001 10.7176 7.96549C11.281 7.99871 11.8047 7.79631 12.1969 7.43692C12.5791 7.08672 12.8315 6.59163 12.8648 6.02706ZM11.0773 1.8646C13.3024 1.9958 14.981 3.92111 14.8499 6.14411C14.806 6.88864 14.5645 7.57585 14.1798 8.15543L15.5823 9.75055L16.6976 11.0191L17.5893 12.0333C17.9519 12.4457 17.9116 13.0739 17.4992 13.4365C17.0868 13.7991 16.4585 13.7587 16.0959 13.3463L15.8677 13.0868L15.2907 13.605C14.8822 13.9719 14.2535 13.9382 13.8866 13.5296C13.5197 13.1211 13.5534 12.4924 13.962 12.1255L14.5546 11.5933L14.0889 11.0636L12.707 9.49194C12.0811 9.82432 11.3592 9.99534 10.6005 9.95061C8.37547 9.81941 6.69683 7.8941 6.8279 5.6711C6.95898 3.4481 8.85224 1.7334 11.0773 1.8646ZM3.01155 8.96152C2.53416 8.96152 2.12415 9.30081 2.03483 9.76976L0.737531 16.5805C0.72585 16.6419 0.719971 16.7042 0.719971 16.7666V22.2801C0.719971 22.8292 1.16513 23.2744 1.71426 23.2744H23.7683C24.3174 23.2744 24.7626 22.8292 24.7626 22.2801V16.7666C24.7626 16.7042 24.7567 16.6419 24.745 16.5805L23.4477 9.76976C23.3584 9.30081 22.9484 8.96152 22.471 8.96152H18.2548C17.7057 8.96152 17.2605 9.40668 17.2605 9.95581C17.2605 10.5049 17.7057 10.9501 18.2548 10.9501H21.6482L22.5668 15.7723H22.5629H22.5486H22.5342H22.5199H22.5055H22.4912H22.4768H22.4625H22.4482H22.4338H22.4195H22.4052H22.3908H22.3765H22.3622H22.3479H22.3336H22.3193H22.305H22.2907H22.2764H22.2621H22.2478H22.2336H22.2193H22.205H22.1908H22.1765H22.1623H22.148H22.1338H22.1195H22.1053H22.0911H22.0768H22.0626H22.0484H22.0342H22.02H22.0058H21.9916H21.9775H21.9633H21.9491H21.935H21.9208H21.9067H21.8925H21.8784H21.8642H21.8501H21.836H21.8219H21.8078H21.7937H21.7796H21.7656H21.7515H21.7374H21.7234H21.7093H21.6953H21.6813H21.6672H21.6532H21.6392H21.6252H21.6112H21.5973H21.5833H21.5693H21.5554H21.5414H21.5275H21.5136H21.4997H21.4858H21.4719H21.458H21.4441H21.4302H21.4164H21.4025H21.3887H21.3749H21.3611H21.3473H21.3335H21.3197H21.3059H21.2921H21.2784H21.2646H21.2509H21.2372H21.2235H21.2098H21.1961H21.1824H21.1688H21.1551H21.1415H21.1278H21.1142H21.1006H21.087H21.0735H21.0599H21.0463H21.0328H21.0193H21.0057H20.9922H20.9788H20.9653H20.9518H20.9384H20.9249H20.9115H20.8981H20.8847H20.8713H20.8579H20.8446H20.8312H20.8179H20.8046H20.7913H20.778H20.7647H20.7515H20.7382H20.725H20.7118H20.6986H20.6854H20.6722H20.6591H20.6459H20.6328H20.6197H20.6066H20.5935H20.5805H20.5674H20.5544H20.5414H20.5284H20.5154H20.5024H20.4895H20.4766H20.4636H20.4507H20.4379H20.425H20.4121H20.3993H20.3865H20.3737H20.3609H20.3481H20.3354H20.3227H20.31H20.2973H20.2846H20.2719H20.2593H20.2467H20.2341H20.2215H20.2089H20.1964H20.1838H20.1713H20.1588H20.1464H20.1339H20.1215H20.109H20.0967H20.0843H20.0719H20.0596H20.0473H20.035H20.0227H20.0104H19.9982H19.9859H19.9738H19.9616H19.9494H19.9373H19.9251H19.9131H19.901H19.8889H19.8769H19.8649H19.8529H19.8409H19.8289H19.817H19.8051H19.7932H19.7814H19.7695H19.7577H19.7459H19.7341H19.7223H19.7106H19.6989H19.6872H19.6755H19.6639H19.6523H19.6407H19.6291H19.6175H19.606H19.5945H19.583H19.5716H19.5601H19.5487H19.5373H19.526H19.5146H19.5033H19.492H19.4807H19.4695H19.4583H19.4471H19.4359H19.4247H19.4136H19.4025H19.3914H19.3804H19.3693H19.3583H19.3474H19.3364H19.3255H19.3146H19.3037H19.2929H19.282H19.2712H19.2605H19.2497H19.239H19.2283H19.2177H19.207H19.1964H19.1858H19.1752H19.1647H19.1542H19.1437H19.1333H19.1228H19.1124H19.1021H19.0917H19.0814H19.0711H19.0609H19.0506H19.0404H19.0302H19.0201H19.01H18.9999H18.9898H18.9798H18.9698H18.9598H18.9498H18.9399H18.93H18.9201H18.9103H18.9005H18.8907H18.881H18.8713H18.8616H18.8519H18.8423H18.8327H18.8231H18.8136H18.804H18.7946H18.7851H18.7757H18.7663H18.7569H18.7476H18.7383H18.7291H18.7198H18.7106H18.7014H18.6923H18.6832H18.6741H18.6651H18.656H18.6471H18.6381H18.6292H18.6203H18.6114H18.6026H18.5938H18.5851H18.5763H18.5676H18.559H18.5503H18.5417H18.5332H18.5246H18.5161H18.5077H18.4992H18.4908H18.4825H18.4741H18.4658H18.4576H18.4493H18.4411H18.433H18.4248H18.4168H18.4087H18.4007H18.3927H18.3847H18.3768H18.3689H18.361H18.3532H18.3454H18.3377H18.33H18.3223H18.3147H18.3071H18.2995H18.2919H18.2844H18.277H18.2695H18.2622H18.2548H18.2475H18.2402H18.2329H18.2257H18.2186H18.2114H18.2043H18.1973H18.1902H18.1832H18.1763H18.1694H18.1625H18.1556H18.1488H18.1421H18.1353H18.1287H18.122H18.1154H18.1088H18.1023H18.0958H18.0893H18.0829H18.0765H18.0701H18.0638H18.0576H18.0513H18.0451H18.039H18.0329H18.0268H18.0208H18.0148H18.0088H18.0029H17.997H17.9912H17.9854H17.9796H17.9739H17.9682H17.9626H17.957H17.9515H17.9459H17.9405H17.935H17.9296H17.9243H17.919H17.9137H17.9085H17.9033H17.8982H17.8931H17.888H17.883H17.878H17.8731H17.8682H17.8633H17.8585C17.4945 15.7723 17.1427 15.8806 16.8433 16.0802C14.3593 17.7362 11.1233 17.7362 8.6393 16.0802C8.33817 15.8794 7.98434 15.7723 7.62242 15.7723H2.91581L3.83433 10.9501H6.2548C6.80392 10.9501 7.24908 10.5049 7.24908 9.95581C7.24908 9.40668 6.80392 8.96152 6.2548 8.96152H3.01155ZM22.7641 17.7609H22.774V21.2858H2.70854V17.7609H7.57559C10.7091 19.8274 14.7734 19.8274 17.907 17.7609H17.9085H17.9137H17.919H17.9243H17.9296H17.935H17.9405H17.9459H17.9515H17.957H17.9626H17.9682H17.9739H17.9796H17.9854H17.9912H17.997H18.0029H18.0088H18.0148H18.0208H18.0268H18.0329H18.039H18.0451H18.0513H18.0576H18.0638H18.0701H18.0765H18.0829H18.0893H18.0958H18.1023H18.1088H18.1154H18.122H18.1287H18.1353H18.1421H18.1488H18.1556H18.1625H18.1694H18.1763H18.1832H18.1902H18.1973H18.2043H18.2114H18.2186H18.2257H18.2329H18.2402H18.2475H18.2548H18.2622H18.2695H18.277H18.2844H18.2919H18.2995H18.3071H18.3147H18.3223H18.33H18.3377H18.3454H18.3532H18.361H18.3689H18.3768H18.3847H18.3927H18.4007H18.4087H18.4168H18.4248H18.433H18.4411H18.4493H18.4576H18.4658H18.4741H18.4825H18.4908H18.4992H18.5077H18.5161H18.5246H18.5332H18.5417H18.5503H18.559H18.5676H18.5763H18.5851H18.5938H18.6026H18.6114H18.6203H18.6292H18.6381H18.6471H18.656H18.6651H18.6741H18.6832H18.6923H18.7014H18.7106H18.7198H18.7291H18.7383H18.7476H18.7569H18.7663H18.7757H18.7851H18.7946H18.804H18.8136H18.8231H18.8327H18.8423H18.8519H18.8616H18.8713H18.881H18.8907H18.9005H18.9103H18.9201H18.93H18.9399H18.9498H18.9598H18.9698H18.9798H18.9898H18.9999H19.01H19.0201H19.0302H19.0404H19.0506H19.0609H19.0711H19.0814H19.0917H19.1021H19.1124H19.1228H19.1333H19.1437H19.1542H19.1647H19.1752H19.1858H19.1964H19.207H19.2177H19.2283H19.239H19.2497H19.2605H19.2712H19.282H19.2929H19.3037H19.3146H19.3255H19.3364H19.3474H19.3583H19.3693H19.3804H19.3914H19.4025H19.4136H19.4247H19.4359H19.4471H19.4583H19.4695H19.4807H19.492H19.5033H19.5146H19.526H19.5373H19.5487H19.5601H19.5716H19.583H19.5945H19.606H19.6175H19.6291H19.6407H19.6523H19.6639H19.6755H19.6872H19.6989H19.7106H19.7223H19.7341H19.7459H19.7577H19.7695H19.7814H19.7932H19.8051H19.817H19.8289H19.8409H19.8529H19.8649H19.8769H19.8889H19.901H19.9131H19.9251H19.9373H19.9494H19.9616H19.9738H19.9859H19.9982H20.0104H20.0227H20.035H20.0473H20.0596H20.0719H20.0843H20.0967H20.109H20.1215H20.1339H20.1464H20.1588H20.1713H20.1838H20.1964H20.2089H20.2215H20.2341H20.2467H20.2593H20.2719H20.2846H20.2973H20.31H20.3227H20.3354H20.3481H20.3609H20.3737H20.3865H20.3993H20.4121H20.425H20.4379H20.4507H20.4636H20.4766H20.4895H20.5024H20.5154H20.5284H20.5414H20.5544H20.5674H20.5805H20.5935H20.6066H20.6197H20.6328H20.6459H20.6591H20.6722H20.6854H20.6986H20.7118H20.725H20.7382H20.7515H20.7647H20.778H20.7913H20.8046H20.8179H20.8312H20.8446H20.8579H20.8713H20.8847H20.8981H20.9115H20.9249H20.9384H20.9518H20.9653H20.9788H20.9922H21.0057H21.0193H21.0328H21.0463H21.0599H21.0735H21.087H21.1006H21.1142H21.1278H21.1415H21.1551H21.1688H21.1824H21.1961H21.2098H21.2235H21.2372H21.2509H21.2646H21.2784H21.2921H21.3059H21.3197H21.3335H21.3473H21.3611H21.3749H21.3887H21.4025H21.4164H21.4302H21.4441H21.458H21.4719H21.4858H21.4997H21.5136H21.5275H21.5414H21.5554H21.5693H21.5833H21.5973H21.6112H21.6252H21.6392H21.6532H21.6672H21.6813H21.6953H21.7093H21.7234H21.7374H21.7515H21.7656H21.7796H21.7937H21.8078H21.8219H21.836H21.8501H21.8642H21.8784H21.8925H21.9067H21.9208H21.935H21.9491H21.9633H21.9775H21.9916H22.0058H22.02H22.0342H22.0484H22.0626H22.0768H22.0911H22.1053H22.1195H22.1338H22.148H22.1623H22.1765H22.1908H22.205H22.2193H22.2336H22.2478H22.2621H22.2764H22.2907H22.305H22.3193H22.3336H22.3479H22.3622H22.3765H22.3908H22.4052H22.4195H22.4338H22.4482H22.4625H22.4768H22.4912H22.5055H22.5199H22.5342H22.5486H22.5629H22.5773H22.5916H22.606H22.6204H22.6347H22.6491H22.6635H22.6778H22.6922H22.7066H22.721H22.7353H22.7497H22.7641Z" fill="black"/>
</svg>
