<svg width="24" height="24" viewBox="0 0 24 24" fill="none" xmlns="http://www.w3.org/2000/svg">
<path fill-rule="evenodd" clip-rule="evenodd" d="M11.6041 5.94391C11.6614 6.45768 12.0972 6.85713 12.6262 6.85713H14.3405C14.9086 6.85713 15.3691 6.39662 15.3691 5.82856V1.02856C15.3691 0.460492 14.9086 -1.52588e-05 14.3405 -1.52588e-05H9.54052C8.97245 -1.52588e-05 8.51195 0.460492 8.51195 1.02856V1.71427C8.51195 2.10386 8.73206 2.46002 9.08053 2.63425L9.351 2.76949C10.5843 3.38616 11.429 4.5767 11.6041 5.94391ZM13.3119 4.32541C12.996 3.46922 12.4951 2.69484 11.8479 2.05713H13.3119V4.32541ZM18.1119 6.07967e-06C17.5439 6.07967e-06 17.0834 0.460513 17.0834 1.02858V5.82858C17.0834 6.39664 17.5439 6.85715 18.1119 6.85715H22.9119C23.48 6.85715 23.9405 6.39664 23.9405 5.82858V1.02858C23.9405 0.460513 23.48 6.07967e-06 22.9119 6.07967e-06H18.1119ZM19.1405 4.80001V2.05715H21.8834V4.80001H19.1405ZM16.0548 8.57144C15.4867 8.57144 15.0262 9.03194 15.0262 9.60001V14.4C15.0262 14.9681 15.4867 15.4286 16.0548 15.4286H22.9119C23.48 15.4286 23.9405 14.9681 23.9405 14.4V9.60001C23.9405 9.03194 23.48 8.57144 22.9119 8.57144H16.0548ZM17.0834 13.3714V10.6286H21.8834V13.3714H17.0834ZM15.4008 17.2135C15.7952 17.3677 16.0548 17.7479 16.0548 18.1714V22.9714C16.0548 23.5395 15.5943 24 15.0262 24H10.2262C9.65816 24 9.19765 23.5395 9.19765 22.9714V22.1143C9.19765 21.7597 9.38034 21.43 9.68108 21.2421L11.3316 20.2105C11.9789 19.8059 12.5693 19.3167 13.087 18.7558L14.2704 17.4738C14.5577 17.1626 15.0063 17.0593 15.4008 17.2135ZM13.9976 20.7521C13.517 21.1957 12.9961 21.5944 12.4412 21.9429H13.9976V20.7521ZM18.1119 17.1429C17.5439 17.1429 17.0834 17.6034 17.0834 18.1714V22.9714C17.0834 23.5395 17.5439 24 18.1119 24H22.9119C23.48 24 23.9405 23.5395 23.9405 22.9714V18.1714C23.9405 17.6034 23.48 17.1429 22.9119 17.1429H18.1119ZM19.1405 21.9429V19.2H21.8834V21.9429H19.1405ZM6.14218 3.68812C6.09822 3.34172 5.88153 3.04129 5.56671 2.89025C5.25189 2.73921 4.88194 2.7582 4.58425 2.94069C2.46774 4.23807 1.99374 6.3943 2.15228 8.3856C2.24265 9.52062 2.53888 10.6723 2.8964 11.7196C2.7043 11.4622 2.52609 11.129 2.36688 10.7191C2.19986 10.2891 1.76697 10.0229 1.30786 10.0679C0.848744 10.1128 0.475719 10.458 0.395286 10.9122C-0.082931 13.6129 0.828151 16.4107 2.55512 18.2547C4.31601 20.1349 6.98709 21.0647 9.8459 19.7955C13.4428 18.1987 14.5972 14.9952 14.1551 12.345C13.9258 10.9712 13.2471 10.0997 12.5642 9.42073C12.381 9.23861 12.1548 9.0312 11.952 8.84521L11.952 8.84518L11.9519 8.84516C11.8289 8.7323 11.7144 8.62732 11.6233 8.54067C11.3389 8.27002 11.106 8.02095 10.9193 7.7475C10.5677 7.23252 10.4372 6.63827 10.4048 6.10543C10.3888 5.84297 10.3973 5.6078 10.4102 5.42025C10.4156 5.34185 10.4214 5.27537 10.4269 5.21199L10.427 5.21184L10.4306 5.17034L10.4314 5.16116L10.4314 5.16114C10.4354 5.11808 10.4482 4.98005 10.4397 4.86252C10.4138 4.50437 10.2031 4.18562 9.88366 4.02157C9.56423 3.85753 9.18238 3.87195 8.87623 4.05962C7.66832 4.80004 7.02917 5.79239 6.85339 6.94623L6.84731 6.98751C6.43392 5.80244 6.23641 4.4306 6.14218 3.68812ZM5.60337 12.9694C4.98343 11.5785 4.33059 9.82577 4.20293 8.22233C4.13772 7.40321 4.20998 6.68207 4.46169 6.07527C4.58377 6.62541 4.74001 7.20812 4.9399 7.76372C5.19647 8.47686 5.55109 9.2218 6.05553 9.80125C6.57533 10.3983 7.31331 10.8785 8.27346 10.8569C8.59821 10.8496 8.90043 10.6893 9.08864 10.4245C9.27685 10.1598 9.32893 9.82166 9.22913 9.51254C9.1046 9.12681 9.00937 8.77493 8.94676 8.45345C9.02723 8.60577 9.11801 8.75757 9.22037 8.90748C9.52598 9.35508 9.87789 9.71939 10.2052 10.0308C10.3664 10.1843 10.5016 10.3075 10.628 10.4227C10.7922 10.5722 10.9415 10.7083 11.1138 10.8796C11.6298 11.3926 11.9941 11.8934 12.126 12.6835C12.425 14.4756 11.6898 16.7262 9.0112 17.9154C7.07741 18.7739 5.31795 18.1954 4.0566 16.8485C3.35995 16.1047 2.83468 15.1396 2.55434 14.0879C3.20948 14.426 3.97639 14.5487 4.83672 14.4021C5.14992 14.3487 5.42088 14.1536 5.57078 13.8734C5.72069 13.5933 5.73272 13.2596 5.60337 12.9694Z" fill="black"/>
</svg>
