<svg width="24" height="24" viewBox="0 0 24 24" fill="none" xmlns="http://www.w3.org/2000/svg">
<path d="M13.2236 8.66901C11.4276 8.73301 6.97358 9.22302 6.97358 12.865C6.97358 16.776 12.0726 16.936 13.7396 14.408C13.9796 14.772 15.0446 15.747 15.4096 16.079L17.5036 14.079C17.5036 14.079 16.3126 13.175 16.3126 12.193V6.93903C16.3126 6.03503 15.4096 4 12.1716 4C8.92658 4 7.20458 5.96401 7.20458 7.72501L9.91457 7.96802C10.5156 6.20002 11.9126 6.20001 11.9126 6.20001C13.4156 6.19801 13.2236 7.26601 13.2236 8.66901ZM13.2236 11.769C13.2236 14.626 10.1186 14.198 10.1186 12.383C10.1186 10.697 11.9806 10.358 13.2236 10.319V11.769ZM18.2386 17.609C17.9546 17.966 15.6576 20.002 11.8046 20.002C7.95157 20.002 5.00158 17.448 4.09858 16.395C3.84758 16.12 4.13558 15.991 4.30158 16.099C7.00458 17.688 11.2256 20.306 18.0366 17.181C18.3126 17.048 18.5266 17.251 18.2386 17.609ZM19.7056 17.687C19.4656 18.251 19.1156 18.644 18.9236 18.794C18.7206 18.955 18.5736 18.89 18.6836 18.658C18.7946 18.426 19.3956 16.997 19.1516 16.694C18.9116 16.398 17.7876 16.54 17.3816 16.58C16.9836 16.616 16.9026 16.651 16.8656 16.569C16.7806 16.365 17.6656 16.015 18.2486 15.944C18.8276 15.88 19.7606 15.915 19.9446 16.148C20.0826 16.33 19.9456 17.116 19.7056 17.687Z" fill="black"/>
</svg>
