<svg width="24" height="24" viewBox="0 0 24 24" fill="none" xmlns="http://www.w3.org/2000/svg">
<path fill-rule="evenodd" clip-rule="evenodd" d="M6 12C6 11.45 5.55 11 5 11C4.45 11 4 11.45 4 12C4 12.55 4.45 13 5 13C5.55 13 6 12.55 6 12ZM12 11C12.55 11 13 11.45 13 12C13 12.55 12.55 13 12 13C11.45 13 11 12.55 11 12C11 11.45 11.45 11 12 11ZM19 11C19.55 11 20 11.45 20 12C20 12.55 19.55 13 19 13C18.45 13 18 12.55 18 12C18 11.45 18.45 11 19 11Z" fill="black"/>
<path d="M5 11.75C5.13579 11.75 5.25 11.8642 5.25 12H6.75C6.75 11.0358 5.96421 10.25 5 10.25V11.75ZM4.75 12C4.75 11.8642 4.86421 11.75 5 11.75V10.25C4.03579 10.25 3.25 11.0358 3.25 12H4.75ZM5 12.25C4.86421 12.25 4.75 12.1358 4.75 12H3.25C3.25 12.9642 4.03579 13.75 5 13.75V12.25ZM5.25 12C5.25 12.1358 5.13579 12.25 5 12.25V13.75C5.96421 13.75 6.75 12.9642 6.75 12H5.25ZM13.75 12C13.75 11.0358 12.9642 10.25 12 10.25V11.75C12.1358 11.75 12.25 11.8642 12.25 12H13.75ZM12 13.75C12.9642 13.75 13.75 12.9642 13.75 12H12.25C12.25 12.1358 12.1358 12.25 12 12.25V13.75ZM10.25 12C10.25 12.9642 11.0358 13.75 12 13.75V12.25C11.8642 12.25 11.75 12.1358 11.75 12H10.25ZM12 10.25C11.0358 10.25 10.25 11.0358 10.25 12H11.75C11.75 11.8642 11.8642 11.75 12 11.75V10.25ZM20.75 12C20.75 11.0358 19.9642 10.25 19 10.25V11.75C19.1358 11.75 19.25 11.8642 19.25 12H20.75ZM19 13.75C19.9642 13.75 20.75 12.9642 20.75 12H19.25C19.25 12.1358 19.1358 12.25 19 12.25V13.75ZM17.25 12C17.25 12.9642 18.0358 13.75 19 13.75V12.25C18.8642 12.25 18.75 12.1358 18.75 12H17.25ZM19 10.25C18.0358 10.25 17.25 11.0358 17.25 12H18.75C18.75 11.8642 18.8642 11.75 19 11.75V10.25Z" fill="black"/>
</svg>
