<svg width="24" height="24" viewBox="0 0 24 24" fill="none" xmlns="http://www.w3.org/2000/svg">
<path d="M11.0303 17.0303C11.3232 16.7374 11.3232 16.2626 11.0303 15.9697C10.7374 15.6768 10.2626 15.6768 9.96967 15.9697L11.0303 17.0303ZM8 19L7.46967 19.5303C7.76256 19.8232 8.23744 19.8232 8.53033 19.5303L8 19ZM6.03033 15.9697C5.73744 15.6768 5.26256 15.6768 4.96967 15.9697C4.67678 16.2626 4.67678 16.7374 4.96967 17.0303L6.03033 15.9697ZM8.75 5C8.75 4.58579 8.41421 4.25 8 4.25C7.58579 4.25 7.25 4.58579 7.25 5H8.75ZM13.2935 18.2483C13.1545 18.6385 13.358 19.0675 13.7482 19.2066C14.1384 19.3456 14.5674 19.142 14.7065 18.7519L13.2935 18.2483ZM15.7 13.7301L15.0006 13.4593L14.9969 13.4687L14.9935 13.4783L15.7 13.7301ZM16.29 13.7301L16.9965 13.4783L16.9931 13.4687L16.9894 13.4593L16.29 13.7301ZM17.2835 18.7519C17.4226 19.142 17.8516 19.3456 18.2418 19.2066C18.632 19.0675 18.8355 18.6385 18.6965 18.2483L17.2835 18.7519ZM14.67 16.48C14.2558 16.48 13.92 16.8158 13.92 17.23C13.92 17.6442 14.2558 17.98 14.67 17.98V16.48ZM17.33 17.98C17.7442 17.98 18.08 17.6442 18.08 17.23C18.08 16.8158 17.7442 16.48 17.33 16.48V17.98ZM14.25 4.75C13.8358 4.75 13.5 5.08579 13.5 5.5C13.5 5.91421 13.8358 6.25 14.25 6.25V4.75ZM17.63 6.29999L18.1714 6.81918L18.1789 6.81105L17.63 6.29999ZM14.35 9.71997L14.8899 10.2406L14.8913 10.2391L14.35 9.71997ZM17.75 11.26C18.1642 11.26 18.5 10.9242 18.5 10.51C18.5 10.0958 18.1642 9.76001 17.75 9.76001V11.26ZM9.96967 15.9697L7.46967 18.4697L8.53033 19.5303L11.0303 17.0303L9.96967 15.9697ZM8.53033 18.4697L6.03033 15.9697L4.96967 17.0303L7.46967 19.5303L8.53033 18.4697ZM7.25 5V19H8.75V5H7.25ZM14.7065 18.7519L16.4065 13.9818L14.9935 13.4783L13.2935 18.2483L14.7065 18.7519ZM16.3994 14.0008C16.3674 14.0836 16.2386 14.2476 15.995 14.2476C15.7515 14.2476 15.6226 14.0836 15.5906 14.0008L16.9894 13.4593C16.8374 13.0665 16.4736 12.7476 15.995 12.7476C15.5165 12.7476 15.1526 13.0665 15.0006 13.4593L16.3994 14.0008ZM15.5835 13.9818L17.2835 18.7519L18.6965 18.2483L16.9965 13.4783L15.5835 13.9818ZM14.67 17.98H17.33V16.48H14.67V17.98ZM14.25 6.25H17.36V4.75H14.25V6.25ZM17.36 6.25C17.2704 6.25 17.184 6.21616 17.1203 6.16387C17.0624 6.11634 17.0357 6.0649 17.024 6.03005C17.0034 5.96861 17.0044 5.8713 17.0811 5.78892L18.1789 6.81105C18.5256 6.43868 18.5766 5.94138 18.446 5.55244C18.3146 5.16137 17.9425 4.75 17.36 4.75V6.25ZM17.0887 5.78085L13.8087 9.20083L14.8913 10.2391L18.1713 6.81912L17.0887 5.78085ZM13.8101 9.19937C13.4466 9.57634 13.4079 10.0835 13.54 10.4653C13.671 10.8437 14.0377 11.26 14.62 11.26V9.76001C14.8423 9.76001 14.939 9.92134 14.9575 9.97467C14.9772 10.0315 14.9834 10.1436 14.8899 10.2406L13.8101 9.19937ZM14.62 11.26H17.75V9.76001H14.62V11.26Z" fill="black"/>
</svg>
