<svg width="24" height="24" viewBox="0 0 24 24" fill="none" xmlns="http://www.w3.org/2000/svg">
<path fill-rule="evenodd" clip-rule="evenodd" d="M7.46967 4.46967C7.54158 4.39776 7.62445 4.34351 7.71291 4.30691C7.79996 4.27081 7.89528 4.25064 7.99523 4.25001L8 4.25L8.00477 4.25001C8.19512 4.25122 8.3851 4.32444 8.53033 4.46967L11.0303 6.96967C11.3232 7.26256 11.3232 7.73744 11.0303 8.03033C10.7374 8.32322 10.2626 8.32322 9.96967 8.03033L8.75 6.81066V19C8.75 19.4142 8.41421 19.75 8 19.75C7.58579 19.75 7.25 19.4142 7.25 19V6.81066L6.03033 8.03033C5.73744 8.32322 5.26256 8.32322 4.96967 8.03033C4.67678 7.73744 4.67678 7.26256 4.96967 6.96967L7.46967 4.46967ZM15.75 18.5001V14.4408L15.365 14.6553C15.0032 14.8569 14.5464 14.727 14.3448 14.3651C14.1432 14.0033 14.2731 13.5465 14.635 13.3449L15.2889 12.9806C15.6976 12.6864 16.199 12.6901 16.5858 12.9033C16.9844 13.123 17.25 13.5525 17.25 14.0501V18.5001C17.25 18.9143 16.9142 19.2501 16.5 19.2501C16.0858 19.2501 15.75 18.9143 15.75 18.5001ZM16 6.25C15.5858 6.25 15.25 6.58579 15.25 7C15.25 7.41421 15.5858 7.75 16 7.75C16.4142 7.75 16.75 7.41421 16.75 7C16.75 6.58579 16.4142 6.25 16 6.25ZM16.5174 9.19023C16.2889 9.52443 15.9026 9.75 15.48 9.75H15C14.5858 9.75 14.25 10.0858 14.25 10.5C14.25 10.9142 14.5858 11.25 15 11.25H15.48C16.9243 11.25 18.1562 10.0929 18.2288 8.6423C18.25 8.30954 18.25 7.93128 18.25 7.51881V7.51879V7.5V7C18.25 5.75736 17.2426 4.75 16 4.75C14.7574 4.75 13.75 5.75736 13.75 7C13.75 8.24264 14.7574 9.25 16 9.25C16.178 9.25 16.3513 9.22932 16.5174 9.19023Z" fill="black"/>
</svg>
